<?xml version="1.0" encoding="UTF-8"?>
<svg id="Layer_2" data-name="Layer 2" xmlns="http://www.w3.org/2000/svg" viewBox="0 0 482.02 482">
  <g id="Layer_1-2" data-name="Layer 1">
    <path d="m79.27,399.72c-.65,2.71-3.1,4.51-5.8,4.51-.49,0-.98-.06-1.47-.19-5.43-1.38-10.66-2.88-15.56-4.45-3.14-1.01-4.9-4.39-3.92-7.54,1.02-3.16,4.41-4.9,7.56-3.89,4.7,1.5,9.72,2.93,14.91,4.26,3.19.82,5.15,4.09,4.29,7.3h0Zm122.15,12.05c0,3.31-2.65,6-6,6-30.02,0-58.81-2.07-85.56-6.14-3.27-.5-5.51-3.56-5.02-6.83.49-3.28,3.59-5.53,6.86-5.03,26.1,3.98,54.27,6,83.72,6,3.35,0,6,2.68,6,6h0Zm-96.58-124.92c.49-3.28,3.59-5.53,6.86-5.03,26.1,3.98,54.27,5.99,83.72,5.99,3.35,0,6,2.69,6,6s-2.65,6-6,6c-30.02,0-58.81-2.06-85.56-6.13-3.27-.5-5.51-3.56-5.02-6.83h0Zm-52.31-12.76c1.02-3.15,4.41-4.9,7.56-3.88,4.7,1.49,9.72,2.93,14.91,4.25,3.19.83,5.15,4.1,4.29,7.31-.65,2.71-3.1,4.51-5.8,4.51-.49,0-.98-.06-1.47-.19-5.43-1.39-10.66-2.88-15.56-4.45-3.14-1.01-4.9-4.39-3.92-7.55h0Zm0-117.95c1.02-3.15,4.41-4.9,7.56-3.89,4.7,1.5,9.72,2.93,14.91,4.26,3.19.83,5.15,4.09,4.29,7.3-.65,2.71-3.1,4.52-5.8,4.52-.49,0-.98-.06-1.47-.19-5.43-1.39-10.66-2.89-15.56-4.46-3.14-1.01-4.9-4.38-3.92-7.54h0Zm52.31,12.75c.49-3.27,3.59-5.53,6.86-5.03,26.1,3.98,54.27,6,83.72,6,3.35,0,6,2.69,6,6s-2.65,6-6,6c-30.02,0-58.81-2.06-85.56-6.13-3.27-.5-5.51-3.56-5.02-6.84h0Zm282.03,301.11c-45.86,0-83.19-37.3-83.19-83.16s37.33-83.16,83.19-83.16,83.15,37.31,83.15,83.16-37.33,83.16-83.15,83.16h0ZM12.01,409.56c0,24.43,75.35,51.65,183.41,51.65,43.74,0,85.47-4.57,118.84-12.93-14.05-16.59-22.58-38.04-22.58-61.44,0-13.63,2.9-26.6,8.09-38.34-31.04,6.17-66.81,9.41-104.34,9.41-51.17,0-99.36-6.09-135.67-17.15-21.77-6.62-37.78-14.54-47.74-23.45v92.25h0Zm0-207.55v92.25c0,24.43,75.35,51.65,183.41,51.65,40.84,0,79.47-3.91,111.94-11.3,15.64-23.74,41.66-40.09,71.51-42.59v-90.01c-9.96,8.91-25.97,16.83-47.74,23.45-36.35,11.05-84.54,17.14-135.71,17.14s-99.36-6.09-135.67-17.14c-21.77-6.62-37.78-14.54-47.74-23.45h0Zm0-115.36v92.3c0,24.43,75.35,51.65,183.41,51.65s183.45-27.22,183.45-51.65v-92.3c-9.96,8.91-26.06,16.84-47.82,23.47-36.43,11.08-84.58,17.18-135.62,17.18s-99.16-6.1-135.58-17.18c-21.77-6.63-37.86-14.56-47.82-23.47h0ZM63.34,28.66c35.28-10.74,82.21-16.66,132.07-16.66s96.83,5.92,132.11,16.66c32.14,9.78,51.33,22.86,51.33,34.99s-19.19,25.21-51.33,34.99c-35.28,10.75-82.21,16.66-132.11,16.66s-96.79-5.91-132.07-16.66c-32.14-9.78-51.33-22.86-51.33-34.99s19.19-25.21,51.33-34.99h0Zm327.52,263.11V63.65c0-18.49-20.71-34.56-59.83-46.47C294.61,6.1,246.46,0,195.41,0S96.26,6.1,59.83,17.18C20.71,29.09,0,45.16,0,63.65v345.91c0,18.53,20.66,34.61,59.75,46.5,36.31,11.06,84.49,17.15,135.67,17.15,47.66,0,93.11-5.34,128.48-15.06,16.83,14.83,38.84,23.85,62.97,23.85,52.44,0,95.15-42.69,95.15-95.16s-40.55-92.96-91.15-95.07h0Zm15.03,89.07c-2.16-6.28-8.7-11.18-19.03-16.87-10.33,5.69-16.91,10.59-19.07,16.87h38.1Zm-19.03,28.88c10.33-5.69,16.87-10.6,19.03-16.88h-38.1c2.16,6.29,8.74,11.19,19.07,16.88h0Zm31.94-77.94c-.12-3.31-2.9-5.91-6.21-5.77-3.31.12-5.92,2.9-5.76,6.21.2,6.74-7.72,11.6-19.97,18.12-12.25-6.52-20.22-11.38-19.97-18.12.12-3.31-2.49-6.09-5.8-6.21-3.31-.14-6.08,2.46-6.21,5.77-.45,12.14,8.78,19.33,19.56,25.47-9.96,6.17-20.01,15.08-19.44,29.59-.57,14.51,9.47,23.42,19.44,29.6-10.78,6.14-20.01,13.33-19.56,25.46.12,3.24,2.78,5.78,6,5.78h.2c3.31-.12,5.92-2.91,5.8-6.22-.25-6.73,7.72-11.6,19.97-18.12,12.25,6.52,20.17,11.39,19.97,18.12-.16,3.31,2.45,6.1,5.76,6.22h.25c3.19,0,5.84-2.54,5.96-5.78.45-12.13-8.78-19.32-19.56-25.46,10.01-6.18,20.01-15.09,19.48-29.6.53-14.51-9.47-23.42-19.48-29.59,10.78-6.14,20.01-13.33,19.56-25.47Z" fill-rule="evenodd" stroke-width="0"/>
  </g>
</svg>