<?xml version="1.0" encoding="UTF-8"?>
<svg id="Layer_2" data-name="Layer 2" xmlns="http://www.w3.org/2000/svg" viewBox="0 0 482.02 318.09">
  <g id="Layer_1-2" data-name="Layer 1">
    <path d="m51.5,222.96c-.78.92-1.55,1.84-2.37,2.76-.78-.92-1.55-1.84-2.37-2.76-9.39-10.97-18.5-21.61-25.03-32.86h54.85c-6.53,11.25-15.64,21.89-25.07,32.86h0Zm18.99,58.76H27.81c3.59-13.36,11.72-25.39,21.32-37.29,9.6,11.89,17.72,23.93,21.36,37.29h0Zm15.8-122.67c-.2,6.68-1.63,12.99-3.92,19.05H15.93c-2.33-6.06-3.72-12.37-3.92-19.05.2-6.69,1.59-12.99,3.92-19.05h66.44c2.29,6.06,3.72,12.37,3.92,19.05h0Zm-39.53-63.91c.82-.92,1.59-1.85,2.37-2.77.82.92,1.59,1.85,2.37,2.77,9.43,10.97,18.54,21.61,25.07,32.86H21.73c6.53-11.25,15.64-21.89,25.03-32.86h0Zm-18.95-58.76h42.68c-3.63,13.36-11.76,25.39-21.36,37.29-9.6-11.9-17.72-23.93-21.32-37.29h0Zm29.16,46.68c18.21-22.23,33.28-46.25,25.4-78.48-.82-3.22-4.04-5.19-7.27-4.4-3.23.79-5.19,4.03-4.41,7.26,1.47,5.93,1.96,11.56,1.72,16.94H25.89c-.29-5.39.25-11.01,1.67-16.94.82-3.22-1.18-6.47-4.37-7.26-3.23-.79-6.49,1.18-7.27,4.4-7.92,32.23,7.19,56.26,25.4,78.48-1.23,1.42-2.45,2.84-3.68,4.27C19.52,108.48.78,130.35,0,158.89v.32c.78,28.53,19.52,50.4,37.65,71.56,1.23,1.43,2.45,2.85,3.68,4.27-18.21,22.22-33.32,46.25-25.4,78.48.65,2.74,3.1,4.58,5.84,4.58.45,0,.94-.06,1.43-.18,3.19-.79,5.19-4.04,4.37-7.25-1.43-5.94-1.96-11.57-1.67-16.95h46.52c.24,5.39-.25,11.01-1.72,16.95-.78,3.21,1.18,6.46,4.41,7.25.49.12.94.18,1.43.18,2.7,0,5.15-1.84,5.84-4.58,7.88-32.23-7.19-56.25-25.4-78.48,1.23-1.42,2.41-2.85,3.68-4.27,18.09-21.15,36.88-43.03,37.61-71.56v-.32c-.74-28.53-19.52-50.41-37.61-71.56-1.27-1.43-2.45-2.85-3.68-4.27h0Zm281.87,128.12h-57.7c-3.31,0-6,2.69-6,6v10.43l-50.64-33.26,50.64-33.26v10.43c0,3.32,2.7,6,6,6h57.7v33.66h0Zm6-45.66h-57.7v-15.56c0-2.21-1.18-4.23-3.14-5.28-1.92-1.05-4.29-.94-6.13.27l-67.59,44.38c-1.67,1.11-2.7,3-2.7,5.02s1.02,3.91,2.7,5.02l67.59,44.38c.98.66,2.12.98,3.27.98.98,0,1.96-.24,2.86-.72,1.96-1.05,3.14-3.07,3.14-5.28v-15.56h57.7c3.31,0,6-2.68,6-6v-45.66c0-3.32-2.7-6-6-6h0Zm-137.99-8.51v-10.43c0-3.32-2.65-6-5.96-6h-57.7v-33.65h57.7c3.31,0,5.96-2.69,5.96-6v-10.43l50.68,33.27-50.68,33.26h0Zm67.59-33.26c0-2.02-1.02-3.91-2.7-5.02l-67.59-44.38c-1.84-1.21-4.21-1.31-6.13-.26-1.96,1.05-3.14,3.07-3.14,5.28v15.56h-57.7c-3.31,0-6,2.69-6,6v45.66c0,3.31,2.7,6,6,6h57.7v15.56c0,2.2,1.18,4.23,3.14,5.28.9.48,1.88.72,2.86.72,1.14,0,2.29-.33,3.27-.98l67.59-44.38c1.67-1.11,2.7-2.99,2.7-5.01h0Zm156.04,99.21c-9.39-10.97-18.5-21.61-25.03-32.86h54.85c-6.53,11.25-15.64,21.89-25.03,32.86-.82.92-1.59,1.84-2.37,2.76-.82-.92-1.59-1.84-2.41-2.76h0Zm23.73,58.76h-42.68c3.63-13.36,11.76-25.39,21.36-37.29,9.6,11.89,17.72,23.93,21.32,37.29h0Zm-23.73-186.58c.82-.92,1.59-1.85,2.41-2.77.78.92,1.55,1.85,2.37,2.77,9.39,10.97,18.5,21.61,25.03,32.86h-54.85c6.53-11.25,15.64-21.89,25.03-32.86h0Zm-18.95-58.76h42.68c-3.59,13.36-11.72,25.39-21.32,37.29-9.6-11.9-17.72-23.93-21.36-37.29h0Zm-15.8,122.67c.2-6.69,1.63-12.99,3.92-19.05h66.44c2.33,6.06,3.72,12.37,3.92,19.05-.2,6.68-1.59,12.99-3.92,19.05h-66.44c-2.29-6.06-3.72-12.37-3.92-19.05h0Zm86.29.16v-.32c-.78-28.53-19.52-50.41-37.65-71.56-1.23-1.43-2.45-2.85-3.68-4.27,18.21-22.23,33.28-46.25,25.4-78.48-.78-3.22-4.04-5.19-7.27-4.4-3.19.79-5.19,4.03-4.37,7.26,1.43,5.93,1.92,11.56,1.67,16.94h-46.51c-.25-5.39.24-11.01,1.72-16.94.78-3.22-1.18-6.47-4.41-7.26-3.23-.79-6.45,1.18-7.27,4.4-7.88,32.23,7.19,56.26,25.4,78.48-1.23,1.42-2.45,2.84-3.68,4.27-18.13,21.15-36.88,43.03-37.65,71.56v.32c.78,28.53,19.52,50.4,37.65,71.56,1.23,1.43,2.45,2.85,3.68,4.27-18.21,22.22-33.28,46.25-25.4,78.48.69,2.74,3.14,4.58,5.84,4.58.45,0,.94-.06,1.43-.18,3.23-.79,5.19-4.04,4.41-7.25-1.47-5.94-1.96-11.57-1.72-16.95h46.51c.25,5.39-.24,11.01-1.67,16.95-.82,3.21,1.18,6.46,4.37,7.25.49.12.98.18,1.43.18,2.74,0,5.19-1.84,5.84-4.58,7.88-32.23-7.19-56.25-25.4-78.48,1.23-1.42,2.45-2.85,3.68-4.27,18.13-21.15,36.88-43.03,37.65-71.56Z" fill-rule="evenodd" stroke-width="0"/>
  </g>
</svg>