<?xml version="1.0" encoding="UTF-8"?>
<svg id="Layer_2" data-name="Layer 2" xmlns="http://www.w3.org/2000/svg" viewBox="0 0 482.03 423.93">
  <g id="Layer_1-2" data-name="Layer 1">
    <path d="m461.64,403.56c-5.39,5.4-12.61,8.37-20.3,8.37s-14.91-2.97-20.3-8.37l-77.64-77.63,40.6-40.61,77.64,77.64c11.19,11.19,11.19,29.41,0,40.6h0Zm-142.66-92.82l11.31,11.32,49.83-49.83-11.32-11.32-49.83,49.84h0Zm-13.06-31.47l13.78,13.78,31.43-31.43-13.77-13.77c-4.43,5.9-9.29,11.52-14.6,16.83-5.34,5.33-10.97,10.19-16.84,14.58h0Zm-194-23.07c55.79,55.79,146.57,55.79,202.36,0,27.03-27.03,41.91-62.96,41.91-101.18,0-8.91-.82-17.71-2.41-26.29l-16.65,13.57c3.66,36.04-8.28,73.37-35.83,100.93-24.32,24.32-56.26,36.48-88.21,36.48s-63.89-12.16-88.21-36.48c-15.22-15.22-25.67-33.42-31.37-52.75l-14.85,13.77c7.05,19.3,18.29,36.99,33.25,51.95h0Zm164.87-80.19c-8.47-7.32-20.31-10.47-31.92-7.36-4.23,1.13-8.12,3.01-11.55,5.51l-39.68-38.31c5.48-8.1,7.56-18.44,4.84-28.61-2.42-9.01-8.2-16.55-16.28-21.22-8.08-4.66-17.5-5.9-26.51-3.49-9.01,2.42-16.55,8.2-21.21,16.28-4.67,8.08-5.91,17.5-3.49,26.51.97,3.63,2.49,6.96,4.43,9.95l-34.36,31.86c-3.51-32.76,7.26-66.78,32.31-91.84,43.96-43.96,115.49-43.96,159.45,0,17.03,17.03,27.93,38.54,31.62,61.87l-47.65,38.84h0Zm-28.81,4.24c1.98-.53,3.97-.78,5.93-.78,10.13,0,19.42,6.77,22.16,17,1.59,5.92.77,12.1-2.29,17.41-3.06,5.3-8.01,9.1-13.93,10.68-5.92,1.59-12.1.77-17.4-2.29-5.3-3.06-9.1-8.01-10.69-13.93-1.59-5.92-.77-12.1,2.29-17.4,3.06-5.31,8.01-9.1,13.93-10.69h0Zm-89.18-86.12c1.98-.53,3.98-.79,5.97-.79,3.97,0,7.89,1.05,11.43,3.08,5.3,3.06,9.1,8.01,10.69,13.93,3.27,12.21-4,24.82-16.22,28.09-12.21,3.28-24.82-4-28.09-16.22-1.59-5.92-.77-12.1,2.29-17.4,3.06-5.31,8.01-9.1,13.92-10.69h0Zm167.04,60.89c0,30.12-11.73,58.43-33.02,79.72-43.96,43.96-115.49,43.96-159.45,0-15.27-15.27-25.23-33.88-29.89-53.49l40.11-37.18c6,4.55,13.42,7.15,21.16,7.15,2.98,0,6.02-.38,9.03-1.19,4.28-1.15,8.16-3.06,11.54-5.53l39.68,38.31c-.46.69-.92,1.39-1.34,2.12-4.67,8.08-5.91,17.5-3.49,26.51,2.42,9.01,8.2,16.54,16.28,21.21,5.38,3.11,11.36,4.7,17.41,4.7,3.03,0,6.09-.4,9.1-1.21,9.01-2.41,16.55-8.19,21.21-16.27,4.67-8.08,5.9-17.5,3.49-26.51-.77-2.87-1.88-5.57-3.28-8.05l41.4-33.75c.03,1.15.06,2.31.06,3.47h0Zm-255.84,0c0-38.22,14.88-74.15,41.91-101.18,27.9-27.9,64.54-41.85,101.18-41.85s73.29,13.95,101.18,41.85c17.49,17.49,29.89,38.72,36.47,61.88l-15.77,12.86c-4.88-22.66-16.1-44.2-33.66-61.77-48.64-48.64-127.78-48.64-176.42,0-29.93,29.93-41.44,71.42-34.53,110.24l-15.66,14.52c-3.09-11.78-4.69-24.04-4.69-36.55h0Zm-15.19,97.8c-3.06,5.3-8.01,9.1-13.92,10.69-12.21,3.27-24.82-4-28.09-16.22-1.59-5.92-.77-12.1,2.29-17.4,3.06-5.31,8.01-9.1,13.93-10.69,1.97-.53,3.98-.79,5.97-.79,3.97,0,7.9,1.04,11.43,3.08,5.31,3.06,9.1,8.01,10.69,13.93,1.58,5.92.77,12.1-2.29,17.4h0ZM377.84,76.24c3.06-5.31,8.01-9.1,13.92-10.68,5.92-1.59,12.1-.77,17.4,2.29,5.31,3.06,9.1,8.01,10.69,13.93,3.27,12.21-4,24.81-16.22,28.09-5.92,1.58-12.1.77-17.4-2.29-5.3-3.06-9.1-8.01-10.69-13.93-1.59-5.92-.77-12.1,2.29-17.41h0Zm92.28,278.23l-77.64-77.64.37-.37c2.34-2.34,2.34-6.14,0-8.48l-19.8-19.8c-2.35-2.34-6.14-2.34-8.48,0l-4.96,4.96-15.32-15.31c15.56-24.55,23.89-53.04,23.89-82.81,0-11.87-1.33-23.54-3.91-34.84l9.08-7.4c2.05,1.98,4.35,3.73,6.88,5.19,5.38,3.11,11.36,4.7,17.41,4.7,3.03,0,6.09-.4,9.1-1.2,18.61-4.99,29.69-24.18,24.7-42.79-2.42-9.01-8.2-16.55-16.28-21.21-8.08-4.67-17.49-5.91-26.51-3.49-9.01,2.41-16.55,8.19-21.21,16.27-4.66,8.08-5.9,17.5-3.49,26.51.59,2.19,1.38,4.29,2.34,6.29l-5.5,4.48c-7.43-23.2-20.32-44.45-38.04-62.17-60.47-60.47-158.86-60.47-219.33,0-29.29,29.29-45.42,68.24-45.42,109.66,0,15.72,2.33,31.09,6.81,45.71l-11.68,10.82c-.24-.15-.48-.3-.73-.44-8.08-4.66-17.49-5.91-26.51-3.49-9.01,2.42-16.55,8.2-21.21,16.28C.03,231.97-1.21,241.38,1.21,250.39c4.18,15.59,18.33,25.9,33.75,25.9,2.98,0,6.02-.38,9.03-1.19,9.01-2.41,16.55-8.19,21.21-16.28,4.67-8.08,5.9-17.5,3.49-26.51-1.27-4.75-3.49-9.09-6.48-12.81l6.97-6.46c7.7,19.1,19.24,36.64,34.24,51.65,30.24,30.23,69.95,45.35,109.67,45.35,28.8,0,57.59-7.96,82.77-23.85l15.35,15.35-4.96,4.96c-2.34,2.34-2.34,6.14,0,8.49l19.8,19.8c1.17,1.17,2.71,1.76,4.24,1.76s3.07-.59,4.24-1.76l.37-.38,77.64,77.64c7.66,7.66,17.88,11.88,28.79,11.88s21.13-4.22,28.79-11.88c15.87-15.87,15.87-41.7,0-57.57Z" fill-rule="evenodd" stroke-width="0"/>
  </g>
</svg>