<?xml version="1.0" encoding="UTF-8"?>
<svg id="Layer_2" data-name="Layer 2" xmlns="http://www.w3.org/2000/svg" viewBox="0 0 482.05 481.84">
  <g id="Layer_1-2" data-name="Layer 1">
    <path d="m462.13,461.95c-10.54,10.54-27.65,10.54-38.18,0l-73.67-73.64,38.22-38.21,73.63,73.64c10.54,10.53,10.54,27.67,0,38.21h0ZM134.4,0h-6.96c-8.76,1.22-15.64,8.73-15.86,17.79h-63.26c-.19-9.06-7.1-16.57-15.86-17.79h-6.96c-8.78,1.21-15.51,8.53-15.81,17.66-.74,25.04,3.76,46.2,14.17,66.6,6.7,13.11,16.09,26.26,28.83,40.3l-.41.4c-2.04,1.99-4.12,4.03-6.21,6.1C15.6,161.04-.28,199.01,0,240.78c-.29,41.86,15.6,79.83,46.07,109.8,2.08,2.07,4.17,4.11,6.21,6.1l.41.4c-12.74,14.05-22.13,27.19-28.83,40.3-10.41,20.4-14.91,41.56-14.17,66.6.33,10.01,8.37,17.84,18.38,17.84h1.88c9.92,0,18.17-8.06,18.38-17.97h63.26c.24,9.91,8.45,17.97,18.38,17.97h1.88c10.01,0,18.09-7.84,18.38-17.84,1.23-40.67-11.27-72.01-42.96-106.91.12-.13.25-.25.37-.38,2.04-2,4.12-4.04,6.25-6.12,4.78-4.71,9.23-9.68,13.35-14.83,27.97,25.15,63.34,37.73,98.71,37.73,27.36,0,54.76-7.54,78.7-22.61l14.25,14.23-4.53,4.51c-1.14,1.12-1.76,2.65-1.76,4.24s.61,3.12,1.76,4.24l18.83,18.83c1.18,1.17,2.74,1.76,4.25,1.76s3.06-.59,4.25-1.76l.16-.14,73.63,73.64c7.6,7.6,17.6,11.41,27.57,11.41s20.01-3.81,27.61-11.41c15.23-15.21,15.23-39.97,0-55.18l-73.63-73.64.12-.15c1.14-1.13,1.76-2.65,1.76-4.24s-.61-3.12-1.76-4.24l-18.83-18.83c-2.33-2.34-6.13-2.34-8.49,0l-4.49,4.51-14.25-14.23c35.94-57.08,29.08-133.57-20.58-183.22-57.66-57.64-151.43-57.64-209.05,0-2.94,2.93-5.72,5.97-8.37,9.08-1.84-1.81-3.63-3.59-5.43-5.33-.12-.13-.24-.25-.37-.38,31.69-34.9,44.19-66.24,42.96-106.91-.26-9.13-7.02-16.46-15.81-17.66h0Zm192.68,373.86l10.33,10.35,47-46.99-10.37-10.35-46.96,46.99h0Zm-12.41-29.9l12.66,12.66,29.49-29.48-12.66-12.66c-4.12,5.5-8.7,10.78-13.68,15.78-5.02,5-10.29,9.56-15.8,13.7h0Zm-184.79-22.18c52.97,52.96,139.14,52.96,192.1,0,52.97-52.96,52.97-139.12,0-192.08-26.5-26.48-61.26-39.72-96.05-39.72s-69.55,13.24-96.05,39.72c-52.93,52.96-52.93,139.12,0,192.08h0Zm-24.42,20.26c-2.12,2.07-4.21,4.1-6.21,6.09-20.5,20.08-38.22,37.43-50.07,60.29-8.29,16-12.33,33.53-12.82,55.16-.08,3.45-2.94,6.25-6.41,6.25h-1.88c-3.47,0-6.25-2.72-6.37-6.2-1.35-44.4,14.91-76.58,59.99-118.76,10.86-10.19,19.64-19.9,26.71-29.51,3.14,4.12,6.53,8.13,10.17,11.98-4,5.1-8.37,10.03-13.11,14.7h0Zm32.75,121.59c-.08,3.48-2.9,6.2-6.37,6.2h-1.88c-3.43,0-6.29-2.81-6.37-6.25-.49-21.63-4.57-39.16-12.86-55.16-5.59-10.83-12.7-20.91-22.62-32.16,3.35-3.52,6.9-7.09,10.58-10.76,29.12,32.24,40.67,61.04,39.53,98.13h0Zm-83.39-38.18h50.27c2.9,8.08,4.82,16.77,5.76,26.4h-61.79c.98-9.63,2.86-18.32,5.76-26.4h0Zm25.16-40.3c8.66,9.94,14.91,18.86,19.85,28.3h-39.69c5.39-10.29,12.05-19.36,19.85-28.3h0Zm-19.28-37.04c-2.04-1.99-4.12-4.01-6.21-6.08-28.06-27.64-42.76-62.62-42.47-101.25-.29-38.54,14.42-73.52,42.47-101.16,2.08-2.07,4.17-4.09,6.21-6.08l.2-.23c3.27,3.34,6.78,6.75,10.41,10.21-31.81,31.9-44.76,61.31-43.04,97.31-1.72,36,11.23,65.4,43.04,97.31-3.63,3.47-7.15,6.87-10.41,10.21l-.2-.23h0Zm23.07-162.75h-30.34c6.37-11.1,15.15-22.11,26.54-33.52,4.21,4.23,8.05,8.36,11.52,12.44-3.1,6.86-5.68,13.9-7.72,21.08h0Zm-36.26,12h33.41c-2.41,12.35-3.19,24.94-2.45,37.46h-38.35c0-13.18,2.37-25.47,7.39-37.46h0Zm0,86.92c-5.02-11.99-7.39-24.28-7.39-37.46h39.57c1.84,12.8,5.35,25.41,10.54,37.46h-42.72Zm32.47,45.52c-11.39-11.41-20.17-22.42-26.54-33.52h42.59c1.59,2.92,3.27,5.78,5.06,8.6-5.59,8.12-12.54,16.34-21.11,24.92h0ZM21.69,18.02c.12-3.48,2.9-6.2,6.37-6.2h1.88c3.47,0,6.33,2.81,6.41,6.25.49,21.63,4.53,39.16,12.82,55.16,11.84,22.86,29.57,40.2,50.03,60.29,2.04,1.99,4.12,4.02,6.25,6.09.04.07.12.13.16.2-2.98,4.2-5.76,8.53-8.25,12.96-4.66-5.22-9.84-10.5-15.68-15.98C36.59,94.61,20.34,62.42,21.69,18.02h0Zm78.12,50.17c-4.94,9.44-11.19,18.36-19.85,28.3-7.8-8.94-14.46-18-19.85-28.3h39.69Zm5.27-12h-50.27c-2.9-8.08-4.78-16.77-5.76-26.4h61.79c-.94,9.63-2.86,18.32-5.76,26.4h0Zm24.87-44.37h1.88c3.47,0,6.29,2.72,6.37,6.2,1.14,37.09-10.41,65.89-39.53,98.13-3.68-3.67-7.23-7.23-10.58-10.76,9.92-11.25,17.03-21.33,22.62-32.16,8.29-16,12.37-33.53,12.86-55.16.08-3.45,2.94-6.25,6.37-6.25h0Zm171.6,289.54c-41.7,41.7-109.57,41.7-151.27,0-41.7-41.7-41.7-109.56,0-151.26,20.87-20.85,48.27-31.28,75.63-31.28s54.81,10.43,75.63,31.28c20.22,20.2,31.32,47.06,31.32,75.63s-11.11,55.43-31.32,75.63h0Zm8.49-159.74c22.46,22.47,34.84,52.34,34.84,84.11s-12.37,61.65-34.84,84.11c-23.2,23.19-53.66,34.79-84.13,34.79s-60.93-11.59-84.13-34.79c-46.35-46.38-46.35-121.85,0-168.23,46.39-46.38,121.86-46.38,168.25,0Z" fill-rule="evenodd" stroke-width="0"/>
  </g>
</svg>