<?xml version="1.0" encoding="UTF-8"?>
<svg id="Layer_2" data-name="Layer 2" xmlns="http://www.w3.org/2000/svg" viewBox="0 0 482.07 482.07">
  <g id="Layer_1-2" data-name="Layer 1">
    <path d="m376.6,440.41l-17.82,10.28-22.92-39.69,17.82-10.29c3.6-2.08,7.53-3.07,11.42-3.07,7.92,0,15.64,4.12,19.88,11.46,6.32,10.94,2.56,24.99-8.38,31.31h0Zm-46.04,26.57l17.82-10.29-22.92-39.69-17.81,10.29c-10.95,6.31-14.71,20.36-8.39,31.3,6.32,10.95,20.36,14.71,31.3,8.39h0Zm17.12-76.66l-46.03,26.57c-16.68,9.63-22.41,31.03-12.79,47.7,6.47,11.19,18.23,17.46,30.3,17.46,5.92,0,11.92-1.51,17.4-4.68l46.04-26.57c8.04-4.65,13.81-12.18,16.23-21.21,2.42-9.03,1.19-18.44-3.45-26.49-9.63-16.68-31.03-22.41-47.7-12.78h0Zm110.91,16.76c-10.94,6.32-24.99,2.55-31.32-8.39l-10.25-17.82,39.69-22.92,10.29,17.81c6.29,10.95,2.53,24.99-8.41,31.31h0Zm-49.48-85.73c-10.95,6.32-14.71,20.37-8.39,31.31l10.29,17.82,39.7-22.92-10.29-17.82c-3.06-5.27-8-9.05-13.93-10.64-5.96-1.59-12.13-.79-17.38,2.25h0Zm41.68,2.39c-4.61-8.05-12.17-13.82-21.2-16.23-9.03-2.42-18.44-1.19-26.49,3.45-16.68,9.63-22.41,31.02-12.78,47.7l26.57,46.03c6.45,11.19,18.21,17.45,30.3,17.45,5.92,0,11.92-1.5,17.4-4.67,16.7-9.63,22.42-31.03,12.78-47.7l-26.59-46.03h0Zm-134.27-7.59c-.13.11-.25.24-.36.36-16.3,17.75-38.71,29.3-61.47,31.69-11.35,1.18-22.94.77-34.52-1.21-2.02-10.04-5.24-19.95-9.65-29.57-2.03-4.45-4.18-8.72-6.35-12.9,12.46,5.11,26.27,8.65,42.74,7.5,16.41-1.14,29.72-7.11,44.53-19.99.21-.18.41-.38.6-.59,12.87-14.81,18.85-28.13,19.99-44.53,1.86-26.89-8.59-46.66-19.65-67.59-3.35-6.33-6.81-12.88-9.91-19.66-11.54-25.18-14.14-52.41-7.53-78.76,6.34-25.27,20.56-47.73,41.13-64.96,6.66-5.58,16.31-5.15,22.45.99l1.09,1.09c6.39,6.39,6.55,16.55.38,23.15-15.5,16.55-25.22,31.58-29.71,45.93-9.5,30.36,4.18,58.6,20.31,87.27,14.15,25.16,20.41,53.69,17.62,80.32-2.39,22.76-13.94,45.17-31.69,61.47h0Zm-68.88-134.03l52.33,52.33c-1.2-14.26-6.4-26.57-12.92-39.42-11.81-5.99-24.5-11.61-39.41-12.91h0Zm39.43,96.46c7.15-9.27,10.99-17.79,12.46-27.61l-68.43-68.43c-9.82,1.46-18.34,5.3-27.61,12.45l83.58,83.58h0Zm-36.09,20.94c9.81-1.47,18.34-5.31,27.61-12.46l-83.58-83.58c-7.15,9.27-10.99,17.79-12.46,27.61l68.43,68.43h0Zm-55.95-12.49c11.81,6,24.5,11.62,39.41,12.92l-52.33-52.33c1.2,14.26,6.4,26.57,12.92,39.42h0Zm12.11,114.14c6.61-26.34,4.01-53.58-7.53-78.76-3.11-6.79-6.57-13.33-9.91-19.66-11.06-20.93-21.51-40.7-19.65-67.59,1.14-16.41,7.12-29.73,19.99-44.53.19-.21.38-.41.6-.59,14.81-12.88,28.12-18.86,44.53-19.99,16.48-1.14,30.29,2.39,42.74,7.5-2.17-4.18-4.32-8.46-6.35-12.9-4.41-9.62-7.63-19.52-9.65-29.57-11.58-1.98-23.17-2.4-34.52-1.21-22.76,2.39-45.17,13.94-61.47,31.69-.11.13-.23.24-.36.36-17.75,16.3-29.3,38.7-31.69,61.47-2.79,26.63,3.47,55.16,17.62,80.33,16.13,28.66,29.81,56.9,20.31,87.26-4.49,14.35-14.21,29.38-29.71,45.93-6.17,6.6-6.01,16.76.38,23.15l1.08,1.09c6.15,6.14,15.8,6.57,22.46.99,20.57-17.23,34.79-39.69,41.13-64.96h0Zm-138.83-67.98c6.48-4.5,12.66-7.86,18.63-10.15l72.09,72.09c-2.29,5.97-5.65,12.15-10.15,18.63l-80.57-80.57h0Zm94.15,48.4l-61.95-61.95c18.11-2.14,35.81,4.77,50.05,11.81,8.29,16.83,13.92,33.49,11.9,50.14h0Zm-121.29-41.61c-6.6,6.17-16.76,6.01-23.15-.38l-1.09-1.09c-6.14-6.14-6.56-15.8-.99-22.46,17.23-20.57,39.69-34.79,64.96-41.13,14.5-3.64,29.29-4.48,44.01-2.54,3.87,16.62,10.18,30.63,16.12,41.19.13.22.26.45.38.67-16.17-6.25-34.95-10.05-54.31-3.99-14.35,4.49-29.38,14.21-45.93,29.71h0Zm372.58-191.11l-80.55-80.57c-4.5,6.48-7.86,12.66-10.15,18.63l72.09,72.09c5.97-2.29,12.15-5.65,18.61-10.15h0Zm-94.13-48.39c-2.02,16.65,3.61,33.31,11.9,50.14,14.24,7.04,31.94,13.93,50.05,11.8l-61.95-61.94h0Zm121.29,41.6c-16.54,15.5-31.58,25.22-45.93,29.71-19.36,6.06-38.14,2.26-54.31-3.99.12.22.25.45.37.67,5.95,10.56,12.26,24.58,16.13,41.2,14.72,1.94,29.51,1.1,44.01-2.54,25.27-6.34,47.74-20.56,64.97-41.12,5.55-6.66,5.15-16.32-1.02-22.46l-1.06-1.08c-6.41-6.39-16.58-6.55-23.16-.38h0Zm-116.09,182.74c19.77-18.24,32.64-43.33,35.32-68.88,1.26-12.04.85-23.4-.66-33.93,4.36.44,8.71.69,13.06.69,10.58,0,21.14-1.31,31.56-3.92,27.75-6.96,52.37-22.54,71.24-45.06,9.6-11.46,8.86-28.08-1.72-38.65l-1.06-1.09c-11.03-10.99-28.51-11.28-39.86-.65-3.14,2.97-6.25,5.7-9.31,8.21l-82.85-82.86c2.51-3.03,5.23-6.13,8.21-9.31,10.62-11.34,10.34-28.84-.66-39.83l-1.08-1.08c-10.57-10.57-27.19-11.3-38.65-1.71-22.52,18.86-38.1,43.49-45.06,71.23-3.71,14.79-4.78,29.82-3.27,44.67-11.36-1.63-22.73-1.89-33.89-.71-25.55,2.68-50.64,15.55-68.88,35.32-19.77,18.24-32.64,43.33-35.32,68.89-1.26,12.03-.85,23.39.65,33.91-14.94-1.52-29.91-.44-44.61,3.25-27.74,6.96-52.37,22.54-71.24,45.06-9.6,11.46-8.86,28.08,1.71,38.65l1.08,1.09c5.62,5.62,12.93,8.44,20.26,8.43,7.01,0,14.03-2.58,19.58-7.78,3.17-2.98,6.27-5.7,9.31-8.21l82.86,82.86c-2.51,3.04-5.23,6.13-8.21,9.31-10.62,11.35-10.34,28.85.65,39.84l1.09,1.08c5.61,5.61,12.91,8.45,20.24,8.45,6.5,0,13.02-2.23,18.41-6.74,22.52-18.87,38.1-43.5,45.06-71.24,3.71-14.78,4.78-29.81,3.27-44.66,6.62.95,13.24,1.43,19.82,1.43,4.71,0,9.41-.24,14.07-.73,25.55-2.68,50.64-15.55,68.88-35.32Z" fill-rule="evenodd" stroke-width="0"/>
  </g>
</svg>