<?xml version="1.0" encoding="UTF-8"?>
<svg id="Layer_2" data-name="Layer 2" xmlns="http://www.w3.org/2000/svg" viewBox="0 0 481.97 429.84">
  <g id="Layer_1-2" data-name="Layer 1">
    <path d="m453.41,242.01h-31.24l-15.64-27.08,15.64-27.09h31.24l15.64,27.09-15.64,27.08h0Zm-190.23,62.42c-1.88,1.84-3.72,3.64-5.51,5.41-18.25,17.9-34.06,33.35-44.64,53.77-7.39,14.32-11.07,29.99-11.48,49.33-.08,2.7-2.33,4.9-5.02,4.9h-1.67c-2.74,0-4.9-2.13-4.98-4.86-1.18-39.25,13.19-67.73,53.09-105.09,32.92-30.82,46.27-58.65,44.68-92.97,1.59-34.33-11.76-62.15-44.68-92.98-39.9-37.35-54.27-65.82-53.09-105.08h0c.08-2.73,2.25-4.87,4.98-4.87h1.67c2.7,0,4.94,2.2,5.02,4.91.41,19.33,4.08,35.01,11.48,49.33,10.58,20.42,26.38,35.88,44.64,53.77,1.8,1.77,3.63,3.57,5.51,5.41,24.79,24.45,37.82,55.38,37.53,89.55.29,34.08-12.74,65.01-37.53,89.46h0Zm28.95,108.56c.98-32.58-9.11-57.95-34.51-86.25-2.94,2.93-5.8,5.79-8.49,8.61,8.66,9.87,14.87,18.74,19.81,28.27,7.39,14.32,11.07,29.99,11.48,49.33.08,2.7,2.33,4.9,5.02,4.9h1.67c2.74,0,4.94-2.13,5.02-4.86h0Zm-73.02-33.25c-2.41,6.8-4,14.09-4.86,22.13h53.46c-.86-8.04-2.45-15.33-4.86-22.13h-43.74Zm21.89-35.48c-6.45,7.44-12.01,15-16.54,23.47h33.08c-4.21-7.8-9.43-15.25-16.54-23.47h0Zm-22.46-179.31h44.84c-5.51-9.33-12.9-18.61-22.38-28.18-9.56,9.58-16.95,18.86-22.46,28.18h0Zm-12.33,43.97h69.55c-.08-11.2-2.12-21.7-6.37-31.97h-56.81c-4.25,10.25-6.29,20.75-6.37,31.97h0Zm63.18,43.97c4.25-10.27,6.29-20.78,6.37-31.97h-69.55c.08,11.22,2.12,21.72,6.37,31.97h56.81Zm-28.38,40.19c9.47-9.58,16.87-18.86,22.38-28.19h-44.84c5.51,9.33,12.9,18.6,22.46,28.19h0Zm-22.22,11.34c1.8,1.75,3.55,3.46,5.27,5.15,2.61-2.69,5.39-5.41,8.29-8.16-27.73-28.02-39.49-54.92-37.98-86.49-1.51-31.58,10.25-58.47,37.98-86.5-2.9-2.75-5.68-5.48-8.29-8.16-1.72,1.69-3.47,3.4-5.27,5.15-24.83,24.45-37.78,55.38-37.53,89.46-.25,34.17,12.7,65.1,37.53,89.55h0Zm-158.94-62.42h-31.28l-15.64-27.08,15.64-27.09h31.28l15.64,27.09-15.64,27.08h0ZM257.55,62.11h-33.08c4.53,8.47,10.09,16.04,16.54,23.47,7.11-8.22,12.33-15.67,16.54-23.47h0Zm5.31-12c2.41-6.8,4-14.1,4.86-22.14h-53.46c.86,8.04,2.45,15.33,4.86,22.14h43.74Zm22.58-38.12c-2.7,0-4.94,2.2-5.02,4.91-.41,19.33-4.08,35.01-11.48,49.33-4.94,9.53-11.15,18.41-19.81,28.27,2.7,2.82,5.55,5.68,8.49,8.61,25.4-28.31,35.49-53.67,34.51-86.25-.08-2.73-2.29-4.87-5.02-4.87h-1.67Zm103.53,331.15c5.06,0,10.09,1.92,13.97,5.77,7.68,7.7,7.68,20.22,0,27.93-7.72,7.7-20.26,7.69-27.93,0-7.72-7.7-7.72-20.23,0-27.93,3.84-3.85,8.9-5.77,13.97-5.77h0Zm-281.99,33.7h0c-3.72,3.73-8.66,5.78-13.97,5.78s-10.21-2.05-13.97-5.78c-3.72-3.73-5.76-8.69-5.76-13.96s2.04-10.23,5.76-13.96c3.76-3.73,8.7-5.79,13.97-5.79s10.25,2.05,13.97,5.79c3.72,3.73,5.8,8.69,5.8,13.96s-2.08,10.23-5.8,13.96h0Zm-13.97-290.15c-5.27,0-10.21-2.05-13.97-5.78-3.72-3.73-5.76-8.69-5.76-13.96s2.04-10.23,5.76-13.96c3.76-3.73,8.7-5.79,13.97-5.79s10.25,2.05,13.97,5.79c7.72,7.7,7.72,20.22,0,27.92-3.72,3.73-8.66,5.78-13.97,5.78h0Zm281.99-33.7c3.72-3.73,8.7-5.79,13.97-5.79s10.21,2.05,13.97,5.79c7.68,7.7,7.68,20.22,0,27.92h0c-3.76,3.73-8.7,5.78-13.97,5.78s-10.25-2.05-13.97-5.78c-3.76-3.73-5.8-8.69-5.8-13.96s2.04-10.23,5.8-13.96h0Zm106.18,158.93l-19.11-33.08c-1.06-1.86-3.02-3-5.19-3h-38.18c-2.16,0-4.12,1.14-5.19,3l-17.4,30.08h-83.47c-.57-16.5-4-32.27-10.17-46.98l68.69-68.69c5.19,3.54,11.35,5.46,17.81,5.46,8.45,0,16.46-3.3,22.42-9.3,12.37-12.38,12.37-32.52,0-44.89-5.96-5.99-13.97-9.3-22.42-9.3s-16.46,3.3-22.46,9.3c-6,6-9.31,13.97-9.31,22.44,0,6.44,1.92,12.59,5.47,17.81l-65.71,65.7c-6.49-12.1-14.99-23.36-25.36-33.59-1.84-1.81-3.63-3.59-5.43-5.33,27.97-30.98,39.04-58.88,37.94-95.04-.24-9.26-7.72-16.51-16.99-16.51h-1.67c-8.94,0-16.42,7.11-16.95,15.98h-55.01c-.53-8.87-8-15.98-16.95-15.98h-1.67c-9.23,0-16.7,7.25-16.99,16.51h0c-1.06,35.55,9.84,63.72,37.98,95.01-1.8,1.75-3.63,3.53-5.47,5.35-10.37,10.22-18.87,21.49-25.36,33.59l-65.71-65.7c8.37-12.34,7.11-29.32-3.84-40.24-6-5.99-13.97-9.3-22.46-9.3s-16.46,3.3-22.42,9.3c-6,6-9.31,13.97-9.31,22.44s3.31,16.45,9.31,22.45c5.96,6,13.97,9.3,22.42,9.3,6.45,0,12.62-1.91,17.81-5.46l68.69,68.69c-6.17,14.72-9.6,30.49-10.17,46.98h-83.47l-17.36-30.08c-1.1-1.86-3.06-3-5.23-3H25.1c-2.16,0-4.12,1.14-5.19,3L.8,211.92c-1.06,1.85-1.06,4.14,0,6l19.11,33.08c1.06,1.86,3.02,3,5.19,3h38.18c2.16,0,4.12-1.14,5.23-3l17.36-30.08h83.47c.57,16.5,4,32.27,10.17,46.98l-68.69,68.69c-5.19-3.55-11.35-5.46-17.81-5.46-8.45,0-16.46,3.3-22.42,9.3-6,6-9.31,13.97-9.31,22.45s3.31,16.45,9.31,22.44c5.96,6,13.97,9.3,22.42,9.3s16.46-3.3,22.46-9.3c6-5.99,9.31-13.96,9.31-22.44,0-6.45-1.92-12.59-5.47-17.81l65.71-65.7c6.49,12.1,14.99,23.36,25.36,33.58,1.84,1.83,3.68,3.61,5.47,5.36-28.14,31.29-39.04,59.46-37.98,95.01.29,9.25,7.76,16.5,16.99,16.5h1.67c8.94,0,16.42-7.11,16.95-15.98h55.01c.53,8.87,8,15.98,16.95,15.98h1.67c9.27,0,16.74-7.25,16.99-16.5,1.1-36.17-9.96-64.06-37.94-95.04,1.8-1.74,3.59-3.52,5.43-5.33,10.37-10.22,18.87-21.48,25.36-33.58l65.71,65.7c-8.37,12.35-7.06,29.32,3.84,40.24,6.21,6.19,14.33,9.29,22.46,9.29s16.25-3.1,22.42-9.29c12.37-12.37,12.37-32.51,0-44.89-10.9-10.93-27.89-12.2-40.23-3.83l-68.69-68.69c6.17-14.73,9.6-30.5,10.17-46.99h83.47l17.4,30.08c1.06,1.86,3.02,3,5.19,3h38.18c2.16,0,4.12-1.14,5.19-3l19.11-33.08c1.06-1.86,1.06-4.15,0-6Z" fill-rule="evenodd" stroke-width="0"/>
  </g>
</svg>