<?xml version="1.0" encoding="UTF-8"?>
<svg id="Layer_2" data-name="Layer 2" xmlns="http://www.w3.org/2000/svg" viewBox="0 0 482.01 481.82">
  <g id="Layer_1-2" data-name="Layer 1">
    <path d="m430.56,307.41v36.58c0,19.26-15.66,34.93-34.92,34.93h-98.82l15.96,16.07c2.34,2.35,2.32,6.15-.03,8.48-1.17,1.16-2.7,1.74-4.23,1.74s-3.08-.59-4.25-1.77l-26.12-26.29c-2.34-2.35-2.32-6.15.03-8.49l26.29-26.12c2.35-2.34,6.15-2.32,8.48.03,2.34,2.35,2.33,6.15-.02,8.49l-15.97,15.86h98.68c12.64,0,22.92-10.29,22.92-22.93v-36.58c0-3.32,2.69-6,6-6s6,2.69,6,6h0ZM373.87,0h-5.49c-5.1.74-9.86,3.52-13.05,8.07-10.25,14.61-15.52,31.52-15.24,48.91.13,8.23,1.52,16.25,4.09,23.88-5.85.91-11.54,2.41-16.97,4.49-14.67,5.63-27.45,17.17-35.1,31.7-8.76,13.89-12.37,30.73-9.91,46.25.97,6.13,2.58,11.77,4.58,16.95-7.94,1.6-15.55,4.41-22.71,8.4-15.2,8.45-27.21,21.47-34.74,37.66-4.26,9.16-.88,19.87,7.87,24.92l.79.45c3.07,1.77,6.41,2.62,9.71,2.62,6.46,0,12.73-3.25,16.4-9.16.9-1.45,1.8-2.82,2.69-4.13l55.93,32.29c-.69,1.43-1.43,2.89-2.24,4.39-4.94,9.27-1.7,20.64,7.4,25.88l.78.45c3.08,1.78,6.42,2.63,9.72,2.63,6.1,0,12.04-2.91,15.8-8.27,10.26-14.61,15.53-31.53,15.25-48.91-.14-8.23-1.53-16.25-4.09-23.89,5.85-.91,11.53-2.41,16.97-4.49,14.67-5.62,27.45-17.17,35.1-31.7,8.75-13.89,12.36-30.73,9.9-46.25-.97-6.13-2.58-11.77-4.57-16.94,7.93-1.6,15.54-4.41,22.71-8.4,15.19-8.45,27.2-21.47,34.73-37.65,4.26-9.16.88-19.88-7.87-24.93l-.78-.45c-9.1-5.25-20.57-2.38-26.11,6.54-.9,1.45-1.8,2.82-2.69,4.14l-55.94-32.29c.7-1.43,1.44-2.9,2.24-4.4,4.95-9.26,1.7-20.63-7.39-25.88l-.79-.45c-2.22-1.28-4.59-2.08-6.98-2.43h0Zm-170.02,104.5c2.33,2.35,2.32,6.15-.03,8.48l-26.29,26.12c-1.17,1.16-2.7,1.74-4.23,1.74s-3.08-.59-4.25-1.77c-2.34-2.35-2.33-6.15.02-8.49l15.97-15.86h-98.68c-12.64,0-22.93,10.29-22.93,22.93v36.57c0,3.32-2.68,6-6,6s-6-2.69-6-6v-36.57c0-19.26,15.67-34.93,34.93-34.93h98.81l-15.95-16.06c-2.34-2.35-2.33-6.15.03-8.49,2.35-2.34,6.15-2.32,8.48.03l26.12,26.29h0Zm-53.24,333.83l-18.19,31.49h-36.37l-18.18-31.49,18.18-31.49h36.37l18.19,31.49h0ZM12.93,400.83l18.18,31.49h36.37l18.18-31.49-18.18-31.49H31.11l-18.18,31.49h0Zm18.18-106.49h36.37l18.18,31.49-18.18,31.49H31.11l-18.18-31.49,18.18-31.49h0Zm64.95-37.49l-18.19,31.49,18.19,31.49h36.36l18.19-31.49-18.19-31.49h-36.36Zm0,74.99h39.83c2.14,0,4.12-1.14,5.19-3l21.65-37.5c1.07-1.85,1.07-4.14,0-6l-21.65-37.49c-1.07-1.86-3.05-3-5.19-3h-43.3c-2.14,0-4.12,1.14-5.19,3l-19.92,34.49H27.65c-2.15,0-4.13,1.15-5.2,3L.8,322.84c-1.07,1.85-1.07,4.14,0,6l19.92,34.49L.8,397.83c-1.07,1.86-1.07,4.15,0,6l21.65,37.5c1.07,1.85,3.05,3,5.2,3h39.83l19.91,34.5c1.08,1.85,3.06,3,5.2,3h43.3c2.14,0,4.12-1.15,5.19-3l21.65-37.49c1.07-1.86,1.07-4.15,0-6l-21.65-37.5c-1.07-1.86-3.05-3-5.19-3h-39.83l-18.19-31.49,18.19-31.49h0ZM469.3,75.09c-6.45,13.88-16.72,25.02-29.69,32.23-6.94,3.86-14.38,6.42-22.15,7.63-3.47-6.19-7.37-11.46-11.12-15.78,8.86.21,18.23-1.34,26.86-6.81,7.81-4.95,15.14-13.04,22.4-24.71,2.11-3.39,6.47-4.48,9.93-2.49l.78.45c3.33,1.92,4.61,5.99,2.99,9.47h0Zm-62.16,108.09c-.09.14-.17.29-.25.44-6.3,12.08-16.83,21.65-28.88,26.28-5.57,2.14-11.46,3.55-17.54,4.25-2.63-5.02-5.81-9.81-9.54-14.31-.53-.64-1.05-1.25-1.58-1.87,6.38.25,13.19-.4,20.39-2.87,9.72-3.34,16.76-9.07,23.56-19.14.15-.23.29-.47.41-.72,5.33-10.92,6.77-19.88,4.8-29.97-3.18-16.29-12.81-26.67-22.12-36.71-2.85-3.07-5.8-6.25-8.56-9.58-10.05-12.15-15.5-26.74-15.74-42.19-.24-14.84,4.28-29.3,13.06-41.83,2.21-3.14,6.38-4.06,9.7-2.14l.79.45c3.45,1.99,4.69,6.31,2.81,9.83-6.49,12.13-9.82,22.52-10.21,31.76-.88,21.36,15.05,37.65,25.59,48.43,11.55,11.81,19.23,26.63,21.63,41.73,2.02,12.75-1.01,26.66-8.32,38.15h0Zm-49.62-62.74c5.24-.01,10.27.8,15.12,1.81,3.51,3.94,6.66,7.87,9.15,12.2l-24.27-14.01h0Zm11.96,61.83l-47.23-27.27c-.32-4.16.24-8.12,1.81-12.56l55.39,31.98c-3.06,3.57-6.21,6.04-9.97,7.84h0Zm-29.45-58.07l47.24,27.27c.31,4.15-.25,8.11-1.82,12.56l-55.39-31.98c3.07-3.57,6.21-6.04,9.97-7.85h0Zm-3.16,60.02c-3.5-3.94-6.65-7.87-9.15-12.2l24.27,14.01c-5.24.02-10.27-.8-15.12-1.81h0Zm7.49,107.28c-2.2,3.14-6.38,4.07-9.7,2.15l-.78-.45c-3.46-2-4.69-6.32-2.81-9.84,6.48-12.13,9.82-22.52,10.2-31.76.89-21.36-15.04-37.66-25.59-48.44-11.55-11.81-19.23-26.63-21.63-41.73-2.02-12.75,1.01-26.65,8.32-38.15.09-.14.18-.29.26-.45,6.3-12.08,16.83-21.65,28.88-26.28,5.56-2.14,11.45-3.55,17.54-4.25,2.62,5.02,5.81,9.81,9.53,14.32.53.63,1.06,1.25,1.59,1.87-6.38-.26-13.2.4-20.39,2.87-9.72,3.34-16.77,9.06-23.56,19.14-.16.23-.3.47-.42.73-5.33,10.92-6.76,19.88-4.79,29.97,3.17,16.29,12.8,26.67,22.12,36.71,2.85,3.07,5.79,6.24,8.55,9.58,10.06,12.15,15.5,26.74,15.75,42.19.24,14.84-4.28,29.3-13.07,41.83h0Zm-70.09-60.03c1.8-1.94,3.6-3.62,5.4-5.05l49.25,28.43c-.34,2.28-.9,4.68-1.68,7.21l-52.97-30.59h0Zm41.45-10.66c5.39,6.23,9.82,12.63,12.05,19.52l-34.98-20.19c6.24-1.36,13.63-1.11,22.93.67h0Zm-61.81,18c-2.11,3.39-6.47,4.48-9.92,2.49l-.79-.45c-3.32-1.92-4.61-5.99-2.99-9.47,6.46-13.87,16.72-25.02,29.69-32.23,6.94-3.86,14.38-6.41,22.16-7.63,3.46,6.19,7.36,11.45,11.12,15.77-8.87-.21-18.23,1.34-26.87,6.81-7.81,4.95-15.13,13.04-22.4,24.72h0Zm139.88-153.16c-5.38-6.24-9.82-12.63-12.04-19.52l34.97,20.19c-6.24,1.35-13.62,1.11-22.93-.67h0Zm41.46-10.66c-1.8,1.94-3.6,3.62-5.41,5.05l-49.24-28.43c.34-2.28.89-4.68,1.67-7.21l52.98,30.59Z" fill-rule="evenodd" stroke-width="0"/>
  </g>
</svg>