<?xml version="1.0" encoding="UTF-8"?>
<svg id="Layer_2" data-name="Layer 2" xmlns="http://www.w3.org/2000/svg" viewBox="0 0 482.02 481.82">
  <g id="Layer_1-2" data-name="Layer 1">
    <path d="m290.73,267.41v-7.19c0-3.32-2.7-6-6-6h-48.11v-26.79h48.11c3.31,0,6-2.69,6-6v-7.2l40.51,26.59-40.51,26.59h0ZM442.02,0h-7.79c-22.2,1.98-39.68,20.69-39.68,43.42,0,13.55,6.21,25.68,15.93,33.68l-15.76,25.78c-5.35-2.34-11.23-3.64-17.44-3.64-24.01,0-43.57,19.55-43.57,43.6s19.56,43.59,43.57,43.59c6.25,0,12.17-1.32,17.52-3.68l15.07,24.5c-9.68,8-15.85,20.1-15.85,33.61s6.21,25.69,15.97,33.69l-15.56,25.45c-5.35-2.33-11.23-3.63-17.4-3.63-24.05,0-43.62,19.56-43.62,43.59s19.56,43.6,43.62,43.6c6.33,0,12.33-1.37,17.76-3.81l15.68,25.07c-9.56,8-15.64,20.01-15.64,33.42,0,24.04,19.56,43.6,43.57,43.6s43.62-19.56,43.62-43.6-19.56-43.59-43.62-43.59c-6.33,0-12.33,1.37-17.76,3.81l-15.68-25.07c9.56-8,15.64-20.01,15.64-33.42s-6.21-25.69-15.97-33.69l15.56-25.44c5.35,2.33,11.23,3.63,17.4,3.63,24.05,0,43.62-19.56,43.62-43.6s-19.56-43.59-43.62-43.59c-6.21,0-12.13,1.32-17.52,3.68l-15.07-24.5c9.68-8,15.89-20.1,15.89-33.61s-6.21-25.68-15.97-33.68l15.8-25.78c5.35,2.34,11.23,3.65,17.4,3.65,24.05,0,43.62-19.56,43.62-43.59,0-22.73-17.48-41.44-39.72-43.42h0Zm-250.05,0h-45.29c-1.19.29-2.26.94-3.07,1.87-1.14,1.3-1.67,3.03-1.43,4.74,2.04,15.31,1.39,27.58-2.25,38.15H56.85c-3.63-10.57-4.29-22.85-2.25-38.15.24-1.71-.29-3.44-1.43-4.74-.82-.93-1.89-1.58-3.07-1.87H4.81C2.19.65.25,3.01.25,5.82.25,39.46,2.78,57.72,9.64,73.19c7.23,16.28,19.32,28.73,36.06,45.96,5.31,5.44,10.01,10.43,14.54,15.22-10.66,10.44-19.15,18.59-22.42,21.6C17.28,174.94-2.24,208.46.21,240.82c-2.45,32.36,17.07,65.88,37.61,84.84,3.68,3.38,12.05,11.42,22.42,21.6-4.41,4.68-9.23,9.78-14.54,15.23-16.74,17.23-28.83,29.69-36.06,45.97C2.78,423.92.25,442.18.25,475.82c0,1.59.61,3.12,1.76,4.24,1.1,1.13,2.65,1.76,4.25,1.76h42.39c1.76,0,3.39-.75,4.53-2.05,1.14-1.3,1.67-3.03,1.43-4.74-2.04-15.31-1.39-27.58,2.21-38.15h83.11c3.63,10.57,4.29,22.85,2.25,38.15-.24,1.71.29,3.44,1.43,4.74,1.14,1.3,2.78,2.05,4.53,2.05h42.39c1.59,0,3.1-.63,4.25-1.76,1.1-1.12,1.76-2.65,1.76-4.24,0-33.64-2.53-51.9-9.39-67.36-7.23-16.28-19.32-28.73-36.06-45.97-5.31-5.44-10.05-10.43-14.54-15.22,10.66-10.44,19.15-18.59,22.42-21.6,20.54-18.96,40.06-52.49,37.57-84.84,2.49-32.36-17.03-65.89-37.57-84.84-3.68-3.38-12.05-11.42-22.42-21.6,4.41-4.68,9.23-9.78,14.54-15.23,16.74-17.23,28.83-29.69,36.06-45.96,6.86-15.47,9.39-33.73,9.39-67.37,0-2.82-1.95-5.18-4.56-5.82h0Zm156.19,240.82c0-2.02-1.02-3.91-2.7-5.01l-57.42-37.71c-1.84-1.21-4.21-1.31-6.13-.27-1.96,1.05-3.19,3.08-3.19,5.28v12.31h-48.11c-3.31,0-5.96,2.68-5.96,6v38.79c0,3.31,2.65,6,5.96,6h48.11v12.31c0,2.2,1.23,4.23,3.19,5.28.86.48,1.84.72,2.82.72,1.18,0,2.33-.33,3.31-.98l57.42-37.7c1.67-1.11,2.7-3,2.7-5.01h0Zm90.25,229c-17.4,0-31.57-14.17-31.57-31.59s14.17-31.6,31.57-31.6,31.61,14.17,31.61,31.6-14.17,31.59-31.61,31.59h0Zm-92.99-129.87c0-17.42,14.17-31.59,31.61-31.59s31.57,14.17,31.57,31.59-14.17,31.6-31.57,31.6-31.61-14.17-31.61-31.6h0Zm60.6-99.09c0-17.42,14.17-31.6,31.57-31.6s31.61,14.18,31.61,31.6-14.17,31.59-31.61,31.59-31.57-14.17-31.57-31.59h0Zm-60.32-98.03c0-17.42,14.17-31.6,31.57-31.6s31.61,14.18,31.61,31.6-14.17,31.59-31.61,31.59-31.57-14.17-31.57-31.59h0Zm60.85-99.4c0-17.42,14.17-31.6,31.57-31.6s31.61,14.17,31.61,31.6-14.17,31.59-31.61,31.59-31.57-14.17-31.57-31.59h0Zm-255.73,273.43c-3.23,2.97-11.43,10.84-22.54,21.68-7.35-7.81-14.01-14.78-20.99-21.44,1.27-1.11,2.57-2.2,3.84-3.28,20.62-17.14,47.41-43.28,43.62-72.99,3.8-29.71-22.99-55.85-43.62-72.99-13.56-11.3-24.3-22.7-37.9-37.14-5.84-6.22-11.88-12.65-18.91-19.9C21.44,76.98,12.83,68.09,12.3,11.82h29.65c-1.67,18.11-.16,39.92,16.62,59.55,20.54,24.07,80.49,82.6,92.25,93.43,18.5,17.07,36.1,47.05,33.73,75.52-.04.34-.04.67,0,1,2.37,28.47-15.23,58.45-33.73,75.52h0Zm-88.74-106.56c6.53-10.28,16.91-21.31,31.24-33.23,1.72-1.43,3.39-2.87,5.06-4.34,1.63,1.45,3.35,2.9,5.06,4.34,14.33,11.91,24.71,22.94,31.24,33.23H62.08Zm80.7,29.67c-.12.58-.12,1.17,0,1.76.82,5.64.12,11.51-2.08,17.66H56.08c-2.21-6.15-2.9-12.03-2.04-17.66.08-.58.08-1.18,0-1.76-.86-5.64-.16-11.51,2.04-17.66h84.66c2.16,6.15,2.86,12.03,2.04,17.66h0Zm-44.39,68.98c-1.63-1.45-3.35-2.89-5.06-4.34-14.33-11.91-24.71-22.94-31.24-33.23h72.61c-6.53,10.29-16.91,21.31-31.24,33.23-1.67,1.43-3.39,2.87-5.06,4.34h0Zm86.13,160.89h-29.69c1.63-18.1.12-39.92-16.62-59.55-20.58-24.07-80.49-82.6-92.25-93.43-18.5-17.07-36.1-47.05-33.73-75.52.04-.33.04-.67,0-1-2.37-28.47,15.23-58.45,33.73-75.52,3.23-2.97,11.43-10.83,22.54-21.68,7.35,7.81,14.01,14.78,20.99,21.44-1.27,1.1-2.57,2.19-3.84,3.27-20.62,17.14-47.41,43.28-43.62,72.99-3.8,29.71,22.99,55.85,43.62,72.99,13.56,11.3,24.3,22.7,37.86,37.13,5.84,6.22,11.92,12.65,18.95,19.9,32.87,33.81,41.49,42.7,42.06,98.97h0Zm-121.86-44.94c1.47-2.33,3.14-4.61,5.06-6.82,6.17-7.24,16.74-18.51,30.67-32.74,12.46,12.73,23.81,24.7,30.71,32.74,1.88,2.21,3.51,4.48,5.02,6.82H62.65Zm-20.71,44.94H12.3c.53-56.26,9.15-65.16,42.02-98.97,5.27-5.44,10.09-10.52,14.5-15.18,6.78,6.69,14.01,13.9,21.15,21.1-14.38,14.65-24.91,25.91-31.4,33.5-16.78,19.64-18.3,41.45-16.62,59.55h0ZM134.12,56.77c-1.51,2.33-3.14,4.61-5.02,6.81-6.29,7.35-16.62,18.36-30.71,32.74-12.46-12.73-23.81-24.7-30.67-32.74-1.92-2.21-3.59-4.48-5.06-6.81h71.47Zm20.71-44.94h29.69c-.57,56.26-9.19,65.16-42.06,98.97-5.27,5.44-10.09,10.52-14.5,15.18-6.78-6.69-14.01-13.9-21.15-21.1,14.38-14.66,24.91-25.92,31.4-33.5,16.74-19.64,18.25-41.45,16.62-59.55Z" fill-rule="evenodd" stroke-width="0"/>
  </g>
</svg>