<?xml version="1.0" encoding="UTF-8"?>
<svg id="Layer_2" data-name="Layer 2" xmlns="http://www.w3.org/2000/svg" viewBox="0 0 482 481.82">
  <g id="Layer_1-2" data-name="Layer 1">
    <path d="m444.89,265.93c-13.84,0-25.11-11.27-25.11-25.11s11.27-25.11,25.11-25.11,25.11,11.26,25.11,25.11-11.26,25.11-25.11,25.11h0ZM334.58,0h-45.3c-1.18.29-2.25.94-3.07,1.87-1.14,1.3-1.66,3.03-1.43,4.74,2.03,15.31,1.38,27.58-2.23,38.15h-83.11c-3.61-10.57-4.26-22.85-2.23-38.15.22-1.71-.29-3.44-1.43-4.74-.82-.93-1.89-1.58-3.07-1.87h-45.3c-2.61.65-4.56,3.01-4.56,5.82,0,33.64,2.55,51.9,9.4,67.37,7.21,16.28,19.31,28.73,36.06,45.96,3.19,3.28,6.17,6.39,9.03,9.39h-67.87c-2.87-17.62-18.2-31.11-36.62-31.11-20.46,0-37.11,16.65-37.11,37.11s16.65,37.11,37.11,37.11c18.42,0,33.74-13.49,36.62-31.11h67.06c-7.63,7.42-13.51,13.04-16.1,15.43-23.01,21.23-36.34,49.03-37.92,78.84h-68.79c-2.88-17.62-18.2-31.11-36.62-31.11-20.46,0-37.11,16.65-37.11,37.11s16.65,37.11,37.11,37.11c18.42,0,33.74-13.49,36.62-31.11h68.79c1.58,29.8,14.9,57.61,37.92,78.84,2.88,2.66,8.7,8.22,16.12,15.44h-67.08c-2.87-17.62-18.2-31.11-36.62-31.11-20.46,0-37.11,16.65-37.11,37.11s16.65,37.11,37.11,37.11c18.42,0,33.74-13.49,36.62-31.11h67.87c-2.85,3-5.85,6.13-9.03,9.39-16.75,17.23-28.84,29.69-36.06,45.97-6.85,15.47-9.4,33.72-9.4,67.36,0,1.59.63,3.12,1.76,4.24,1.13,1.13,2.65,1.76,4.24,1.76h42.41c1.73,0,3.37-.75,4.51-2.05,1.14-1.3,1.66-3.03,1.43-4.74-2.03-15.31-1.38-27.58,2.23-38.15h83.11c3.61,10.57,4.26,22.85,2.23,38.15-.22,1.71.29,3.44,1.43,4.74,1.14,1.3,2.79,2.05,4.51,2.05h42.41c1.59,0,3.11-.63,4.24-1.76,1.13-1.12,1.76-2.65,1.76-4.24,0-33.64-2.55-51.9-9.4-67.36-7.21-16.28-19.31-28.73-36.06-45.97-3.19-3.28-6.17-6.39-9.03-9.39h67.87c2.88,17.62,18.2,31.11,36.62,31.11,20.46,0,37.1-16.64,37.1-37.11s-16.64-37.11-37.1-37.11c-18.42,0-33.74,13.49-36.62,31.11h-67.06c7.64-7.43,13.51-13.05,16.1-15.43,23.02-21.24,36.34-49.04,37.92-78.84h68.79c2.88,17.62,18.2,31.11,36.62,31.11,20.46,0,37.11-16.65,37.11-37.11s-16.65-37.11-37.11-37.11c-18.42,0-33.74,13.49-36.62,31.11h-68.79c-1.58-29.8-14.9-57.61-37.92-78.84-2.88-2.66-8.69-8.22-16.11-15.43h67.07c2.88,17.61,18.2,31.11,36.62,31.11,20.46,0,37.1-16.65,37.1-37.11s-16.64-37.11-37.1-37.11c-18.42,0-33.74,13.49-36.62,31.11h-67.87c2.84-2.99,5.84-6.12,9.03-9.39,16.75-17.23,28.84-29.69,36.06-45.96,6.85-15.47,9.4-33.73,9.4-67.37,0-2.82-1.94-5.18-4.55-5.82h0Zm-41.16,316.84c-3.22,2.97-11.43,10.83-22.51,21.68-7.36-7.81-14.03-14.78-21-21.44,1.27-1.11,2.55-2.2,3.85-3.28,29.87-24.86,44.4-48.73,44.4-72.99s-14.52-48.14-44.4-72.99c-13.58-11.3-24.3-22.7-37.88-37.13-5.85-6.22-11.9-12.65-18.95-19.9-32.85-33.81-41.5-42.7-42.03-98.97h29.67c-1.65,18.11-.14,39.92,16.63,59.55,20.57,24.08,80.5,82.6,92.24,93.43,22.06,20.35,34.21,47.35,34.21,76.02s-12.15,55.67-34.21,76.02h0Zm-88.02-106.56c6.64-10.77,16.78-21.8,30.52-33.23,1.71-1.43,3.39-2.86,5.07-4.34,1.65,1.45,3.34,2.89,5.08,4.34,13.74,11.43,23.87,22.46,30.52,33.23h-71.19Zm80.75,30.54c0,6.13-1.19,12.3-3.57,18.54h-83.17c-2.38-6.24-3.56-12.41-3.56-18.54s1.18-12.3,3.56-18.54h83.17c2.38,6.24,3.57,12.4,3.57,18.54h0Zm-45.15,68.11c-1.65-1.45-3.34-2.89-5.08-4.34-13.74-11.43-23.87-22.45-30.51-33.23h71.19c-6.64,10.77-16.78,21.8-30.52,33.23-1.71,1.43-3.39,2.87-5.07,4.34h0Zm86.1,160.89h-29.66c1.65-18.1.14-39.92-16.63-59.55-20.56-24.07-80.49-82.6-92.24-93.43-22.06-20.35-34.21-47.35-34.21-76.02s12.15-55.67,34.21-76.02c3.23-2.98,11.43-10.84,22.51-21.68,7.36,7.81,14.03,14.78,21,21.44-1.27,1.1-2.55,2.19-3.84,3.27-29.88,24.86-44.4,48.73-44.4,72.99s14.52,48.13,44.4,72.99c13.57,11.3,24.3,22.7,37.87,37.13,5.85,6.22,11.9,12.65,18.95,19.9,32.85,33.81,41.5,42.7,42.04,98.97h0Zm-121.85-44.94c1.5-2.33,3.17-4.61,5.06-6.82,6.28-7.35,16.6-18.36,30.69-32.74,12.46,12.73,23.82,24.7,30.69,32.74,1.89,2.21,3.55,4.48,5.06,6.82h-71.49Zm-20.7,44.94h-29.67c.54-56.26,9.18-65.16,42.03-98.97,5.28-5.44,10.11-10.52,14.5-15.18,6.78,6.69,14.02,13.9,21.15,21.1-14.36,14.65-24.92,25.92-31.39,33.5-16.77,19.64-18.28,41.45-16.63,59.55h0ZM276.75,56.77c-1.5,2.33-3.17,4.61-5.06,6.81-6.28,7.35-16.6,18.37-30.69,32.74-12.46-12.73-23.82-24.69-30.69-32.74-1.89-2.21-3.55-4.48-5.06-6.81h71.49Zm20.7-44.94h29.66c-.54,56.26-9.18,65.16-42.03,98.97-5.32,5.47-10.13,10.54-14.5,15.18-6.78-6.69-14.02-13.9-21.15-21.1,14.36-14.65,24.92-25.91,31.39-33.5,16.77-19.63,18.28-41.44,16.63-59.55h0Zm91.7,310.17c13.84,0,25.1,11.26,25.1,25.11s-11.26,25.11-25.1,25.11-25.11-11.26-25.11-25.11,11.26-25.11,25.11-25.11h0Zm-296.28,50.21c-13.84,0-25.11-11.26-25.11-25.11s11.26-25.11,25.11-25.11,25.11,11.26,25.11,25.11-11.26,25.11-25.11,25.11h0Zm-55.75-106.27c-13.85,0-25.11-11.27-25.11-25.11s11.26-25.11,25.11-25.11,25.11,11.26,25.11,25.11-11.26,25.11-25.11,25.11h0Zm55.75-106.27c-13.84,0-25.11-11.27-25.11-25.11s11.26-25.11,25.11-25.11,25.11,11.26,25.11,25.11-11.26,25.11-25.11,25.11h0Zm296.28-50.22c13.84,0,25.1,11.26,25.1,25.11s-11.26,25.11-25.1,25.11-25.11-11.27-25.11-25.11,11.26-25.11,25.11-25.11Z" fill-rule="evenodd" stroke-width="0"/>
  </g>
</svg>