<?xml version="1.0" encoding="UTF-8"?>
<svg id="Layer_2" data-name="Layer 2" xmlns="http://www.w3.org/2000/svg" viewBox="0 0 482.02 451.56">
  <g id="Layer_1-2" data-name="Layer 1">
    <path d="m240.74,120.25c0-3.32,2.7-6,6-6h107.73c3.31,0,6,2.68,6,6s-2.7,6-6,6h-107.73c-3.31,0-6-2.69-6-6h0Zm174.14,142.23c0,3.31-2.65,6-5.96,6h-162.17c-3.31,0-6-2.69-6-6s2.7-6,6-6h162.17c3.31,0,5.96,2.68,5.96,6h0Zm0-35.56c0,3.31-2.65,6-5.96,6h-162.17c-3.31,0-6-2.69-6-6s2.7-6,6-6h162.17c3.31,0,5.96,2.68,5.96,6h0Zm0-35.56c0,3.31-2.65,6-5.96,6h-162.17c-3.31,0-6-2.69-6-6s2.7-6,6-6h162.17c3.31,0,5.96,2.69,5.96,6h0Zm0-35.56c0,3.32-2.65,6-5.96,6h-162.17c-3.31,0-6-2.68-6-6s2.7-6,6-6h162.17c3.31,0,5.96,2.69,5.96,6h0Zm-177.85,198.35h19.48v50.52h-19.48v-50.52h0Zm62.73-47.29h19.48v97.81h-19.48v-97.81h0Zm62.73,31.5h19.52v66.31h-19.52v-66.31h0Zm46.43,66.31h-14.95v-72.31c0-3.32-2.65-6-5.96-6h-31.53c-3.31,0-5.96,2.68-5.96,6v72.31h-19.28v-103.81c0-3.32-2.7-6-6-6h-31.49c-3.31,0-6,2.68-6,6v103.81h-19.23v-56.52c0-3.32-2.7-6-6-6h-31.49c-3.31,0-6,2.68-6,6v56.52h-14.91c-3.31,0-6,2.69-6,6s2.7,6,6,6h198.8c3.31,0,5.96-2.69,5.96-6s-2.65-6-5.96-6h0Zm-261.28-112.2c-1.51,1.38-5.06,4.77-9.88,9.49-2.33-2.47-4.66-4.83-6.94-7.13,11.23-9.41,25.61-23.67,23.69-40.4,1.92-16.9-12.78-31.29-24.05-40.7-7.06-5.85-12.66-11.81-19.77-19.37-2.94-3.13-6.29-6.68-10.01-10.52-16.54-17-20.87-21.44-21.36-47.43h9.72c-.45,9.47,1.1,20.4,9.68,30.44,11.64,13.6,43.86,44.88,48.92,49.55,8.94,8.26,18.05,23.54,16.91,37.53-.04.34-.04.67,0,1,1.14,14-7.96,29.27-16.91,37.54h0Zm-39.37-56.99h27.24c-3.19-3.91-7.39-8.07-12.74-12.52-.33-.25-.57-.5-.9-.74-.29.24-.57.5-.86.74-5.35,4.45-9.6,8.61-12.74,12.52h0Zm34.22,18.08c.29-1.95.16-3.97-.37-6.08h-40.47c-.53,2.11-.65,4.13-.37,6.08.08.58.08,1.17,0,1.75-.29,1.94-.16,3.97.37,6.08h40.47c.53-2.11.65-4.14.37-6.08-.08-.58-.08-1.17,0-1.75h0Zm-19.72,32.35c5.35-4.45,9.56-8.61,12.74-12.52h-27.24c3.14,3.91,7.39,8.07,12.74,12.52.29.24.57.49.86.74.29-.25.61-.5.9-.74h0Zm41.7,86.54c-.53-25.98-4.86-30.42-21.36-47.42-3.72-3.85-7.07-7.4-10.05-10.54-7.07-7.55-12.7-13.51-19.72-19.36-11.31-9.41-25.97-23.79-24.05-40.7-1.92-16.72,12.46-30.98,23.69-40.39-2.33-2.3-4.61-4.67-6.94-7.13-4.86,4.72-8.37,8.11-9.88,9.49-8.94,8.26-18.05,23.53-16.91,37.53.04.34.04.67,0,1-1.14,14,7.96,29.27,16.91,37.54,5.06,4.66,37.29,35.92,48.92,49.55,8.58,10.04,10.13,20.96,9.64,30.43h9.76Zm-29.49-23.72h-26.22c2.98-3.38,7.43-8.14,13.11-13.98,5.23,5.34,9.88,10.29,13.11,13.98h0Zm-45.94,23.72h-9.72c.49-25.98,4.82-30.42,21.36-47.42,2-2.07,3.88-4.05,5.68-5.93,2.33,2.3,4.7,4.69,7.11,7.09-6.62,6.83-11.6,12.14-14.74,15.83-8.58,10.04-10.13,20.96-9.68,30.43h0Zm19.72-212.32c3.23,3.69,7.92,8.65,13.11,13.99,5.72-5.84,10.17-10.6,13.11-13.99h-26.22Zm45.94-23.72c.49,9.47-1.06,20.4-9.64,30.44-3.19,3.69-8.13,9.01-14.74,15.82,2.37,2.41,4.78,4.8,7.11,7.1,1.76-1.86,3.68-3.85,5.68-5.93,16.5-17,20.83-21.45,21.36-47.43h-9.76Zm1.06,71.17c-1.67-1.56-5.27-4.99-9.76-9.4,1.76-1.87,3.68-3.89,5.72-5.98,19.64-20.22,24.79-26.95,24.79-61.79,0-3.31-2.7-6-6-6h-22.38c-1.72,0-3.39.75-4.53,2.05-1.1,1.3-1.63,3.03-1.43,4.74.9,6.69.78,12.18-.49,16.93h-39.57c-1.27-4.75-1.39-10.24-.49-16.93.2-1.71-.33-3.44-1.47-4.74-1.14-1.3-2.78-2.05-4.49-2.05h-22.38c-3.31,0-6,2.69-6,6,0,34.84,5.15,41.57,24.79,61.79,2.04,2.11,3.92,4.08,5.72,5.98-4.66,4.56-8.29,8.03-9.76,9.4-11.31,10.42-22.05,28.9-20.79,46.85-1.27,17.96,9.47,36.43,20.79,46.86,1.67,1.55,5.27,4.98,9.76,9.39-1.8,1.91-3.68,3.88-5.72,5.99-19.64,20.22-24.79,26.95-24.79,61.78,0,1.59.61,3.12,1.76,4.25,1.1,1.12,2.65,1.75,4.25,1.75h22.38c1.72,0,3.35-.74,4.49-2.05,1.14-1.3,1.67-3.02,1.47-4.74-.9-6.68-.78-12.17.49-16.93h39.57c1.27,4.76,1.39,10.25.49,16.93-.2,1.72.33,3.44,1.43,4.74,1.14,1.31,2.82,2.05,4.53,2.05h22.38c1.59,0,3.1-.63,4.25-1.75,1.1-1.13,1.76-2.66,1.76-4.25,0-34.83-5.15-41.56-24.79-61.78-2.04-2.11-3.92-4.08-5.72-5.98,4.66-4.56,8.29-8.03,9.76-9.4,11.31-10.43,22.05-28.9,20.75-46.86,1.31-17.95-9.43-36.43-20.75-46.85h0ZM470.01,70.22c0,5.04-4.08,9.14-9.15,9.14H21.15c-5.02,0-9.15-4.1-9.15-9.14v-16.33c0-5.04,4.12-9.14,9.15-9.14h439.71c5.06,0,9.15,4.1,9.15,9.14v16.33h0Zm-34.96,369.34c10.45,0,18.99-8.53,18.99-19V91.36H28.02v329.2c0,10.47,8.49,19,18.99,19h388.05ZM179.65,15.62c.69-2.23,2.61-3.62,4.94-3.62h112.84c2.33,0,4.25,1.39,4.98,3.62l5.55,17.13h-133.91l5.59-17.13h0Zm281.21,17.13h-140.28l-6.78-20.85c-2.33-7.23-8.78-11.9-16.38-11.9h-112.84c-7.6,0-14.01,4.67-16.38,11.9l-6.78,20.85H21.15C9.52,32.75,0,42.23,0,53.89v16.33c0,9.88,6.82,18.17,16.01,20.48v329.86c0,17.09,13.88,31,31,31h388.05c17.07,0,31-13.91,31-31V90.7c9.15-2.31,15.97-10.6,15.97-20.48v-16.33c0-11.66-9.47-21.14-21.15-21.14Z" fill-rule="evenodd" stroke-width="0"/>
  </g>
</svg>