<?xml version="1.0" encoding="UTF-8"?>
<svg id="Layer_2" data-name="Layer 2" xmlns="http://www.w3.org/2000/svg" viewBox="0 0 436.35 482">
  <g id="Layer_1-2" data-name="Layer 1">
    <path d="m382.48,54.25l-5.28-9.15c-1.91,2.63-3.48,5.65-4.9,8.94,3.56.41,6.96.56,10.19.21h0Zm-37.57,30.61l-13-22.52c-1.83.45-3.59,1.1-5.28,1.99-1.61,1.01-3.05,2.21-4.36,3.57l13,22.52c1.83-.45,3.59-1.09,5.28-1.99,1.62-1.01,3.06-2.21,4.36-3.57h0Zm-60.21,13.65l5.28,9.15c1.91-2.63,3.49-5.65,4.91-8.94-3.56-.41-6.96-.56-10.19-.21h0Zm26.53-9.22c3.58.66,7.09,1.27,10.48,1.64l-6.66-11.53c-1.38,3.12-2.6,6.46-3.82,9.9h0Zm34.24-27.46l6.66,11.53c1.38-3.12,2.61-6.46,3.82-9.9-3.58-.66-7.08-1.27-10.48-1.64h0Zm59.97-13.98c2.29,2.39,2.21,6.19-.18,8.49-11.3,10.82-24.61,11.04-37.32,9.23-4.45,12.64-9.07,25.7-21.25,33.18-.09.06-.19.11-.28.16-12.57,6.81-26.19,4.28-39.36,1.81-4.79,11.92-11.63,23.33-26.65,27.71-.56.16-1.13.24-1.68.24-2.6,0-5-1.7-5.76-4.32-.93-3.18.9-6.51,4.08-7.44,1.3-.38,2.49-.86,3.62-1.39l-7.44-12.88c-1.02.71-2.02,1.53-2.99,2.46-1.17,1.11-2.66,1.67-4.15,1.67-1.58,0-3.16-.62-4.34-1.85-2.29-2.39-2.21-6.19.18-8.48,11.3-10.83,24.61-11.04,37.32-9.23,4.45-12.64,9.07-25.7,21.25-33.18.1-.06.19-.11.28-.16,12.57-6.81,26.19-4.28,39.36-1.82,4.79-11.92,11.64-23.34,26.66-27.7,3.18-.92,6.51.9,7.43,4.08.93,3.18-.9,6.51-4.08,7.44-1.3.38-2.49.85-3.62,1.38l7.44,12.88c1.02-.71,2.02-1.52,3-2.46,2.39-2.29,6.19-2.21,8.48.18h0Zm18.91-15.11v89.39c0,11.43-9.3,20.72-20.72,20.72h-88.75c-1.58,0-3.09.62-4.21,1.73l-31.89,31.41v-27.14c0-3.32-2.69-6-6-6h-9.21c-11.43,0-20.73-9.29-20.73-20.72V32.73c0-11.43,9.3-20.73,20.73-20.73h140.07c11.42,0,20.72,9.29,20.72,20.73h0Zm-55.73,122.11v299.17c0,8.82-7.17,15.99-15.99,15.99H104.73c-8.82,0-15.99-7.17-15.99-15.99v-64.42l27.13,29.42c1.96,2.14,4.65,3.27,7.4,3.27,1.26,0,2.53-.23,3.76-.72,3.92-1.55,6.43-5.28,6.38-9.5l-.6-63.18c-.01-.75-.16-1.48-.43-2.15h0l-43.64-110.15v-80.94h81.96c3.32,0,6-2.68,6-6v-81.96h54.13v54.43c0,18.04,14.68,32.72,32.73,32.72h3.21v35.46c0,2.42,1.45,4.6,3.68,5.54.75.31,1.54.47,2.32.47,1.54,0,3.07-.6,4.21-1.73l40.36-39.74h51.28ZM12.86,189.2l6.64,16.76,38.2-15.14-6.64-16.76c-1.19-3-3.49-5.37-6.49-6.66-3-1.3-6.3-1.36-9.3-.16l-15.58,6.17c-6.24,2.47-9.3,9.56-6.83,15.79h0Zm106.16,156.37l-56.9-143.59-38.2,15.13,56.9,143.6,38.2-15.14h0Zm-30.28,26.32l32.63,35.39-.48-49.55-32.15,12.74v1.42h0Zm8.49-228.25h67.47v-67.48l-67.47,67.48h0ZM436.35,32.73v89.39c0,18.04-14.68,32.72-32.72,32.72h-23.01v299.17c0,15.43-12.55,27.99-27.99,27.99H104.73c-15.43,0-27.99-12.56-27.99-27.99v-77.43l-3.7-4.01c-.51-.55-.9-1.18-1.17-1.86h0L1.7,193.62c-4.91-12.39,1.18-26.46,13.57-31.37l15.58-6.17c5.98-2.37,12.54-2.26,18.48.31,5.94,2.56,10.52,7.28,12.89,13.26l14.52,36.66v-56.65h0c.01-1.56.6-3.1,1.75-4.24l87.96-87.97c1.15-1.15,2.68-1.74,4.24-1.74v-.02h60.13v-22.95c0-18.05,14.68-32.73,32.73-32.73h140.07c18.04,0,32.72,14.68,32.72,32.73h0Zm-233.23,403.8h-84.04c-3.31,0-6,2.69-6,6s2.69,6,6,6h84.04c3.31,0,6-2.69,6-6s-2.69-6-6-6h0Zm129.85-62.25h-163.83c-3.32,0-6,2.69-6,6s2.68,6,6,6h163.83c3.32,0,6-2.69,6-6s-2.68-6-6-6h0Zm0-51.07h-179.57c-3.31,0-6,2.69-6,6s2.69,6,6,6h179.57c3.32,0,6-2.69,6-6s-2.68-6-6-6h0Zm0-51.07h-199.58c-3.31,0-6,2.69-6,6s2.69,6,6,6h199.58c3.32,0,6-2.69,6-6s-2.68-6-6-6h0Zm-205.13-51.07c-3.32,0-6,2.68-6,6s2.68,6,6,6h205.13c3.32,0,6-2.69,6-6s-2.68-6-6-6H127.84Z" fill-rule="evenodd" stroke-width="0"/>
  </g>
</svg>