<?xml version="1.0" encoding="UTF-8"?>
<svg id="Layer_2" data-name="Layer 2" xmlns="http://www.w3.org/2000/svg" viewBox="0 0 482 482">
  <g id="Layer_1-2" data-name="Layer 1">
    <path d="m235.66,187.88c-.49,0-.86-.38-.86-.86s.37-.86.86-.86.85.38.85.86-.37.86-.85.86h0Zm11.14-.86c0-6.14-5-11.14-11.14-11.14s-11.15,5-11.15,11.14,5,11.14,11.15,11.14,11.14-5,11.14-11.14h0Zm-136.46,61.48c-.48,0-.86-.38-.86-.86s.38-.86.86-.86.86.38.86.86-.38.86-.86.86h0Zm0-12c-6.14,0-11.14,4.99-11.14,11.14s5,11.14,11.14,11.14,11.14-4.99,11.14-11.14-5-11.14-11.14-11.14h0Zm27.69-47.44c-.48,0-.86-.38-.86-.86s.38-.86.86-.86.86.38.86.86-.38.86-.86.86h0Zm11.14-.86c0-6.14-5-11.14-11.14-11.14s-11.14,5-11.14,11.14,4.99,11.14,11.14,11.14,11.14-5,11.14-11.14h0Zm-49.44-59.33c.48,0,.86.38.86.86s-.38.86-.86.86-.86-.38-.86-.86.37-.86.86-.86h0Zm0,12c6.14,0,11.14-5,11.14-11.14s-5-11.14-11.14-11.14-11.14,5-11.14,11.14,4.99,11.14,11.14,11.14h0Zm165.02-20.42c.48,0,.86.38.86.86s-.38.86-.86.86-.86-.38-.86-.86.37-.86.86-.86h0Zm0,12c6.14,0,11.14-5,11.14-11.14s-5-11.14-11.14-11.14-11.14,5-11.14,11.14,4.99,11.14,11.14,11.14h0Zm-88.94-57.08c.48,0,.85.38.85.86s-.37.86-.85.86-.86-.38-.86-.86.37-.86.86-.86h0Zm0,12c6.14,0,11.14-5,11.14-11.14s-5-11.14-11.14-11.14-11.15,4.99-11.15,11.14,5,11.14,11.15,11.14h0Zm-50.55,6.35c.88-3.19,4.18-5.07,7.38-4.19,3.19.88,5.07,4.18,4.19,7.37-3.01,10.96,1.15,13.53,11.68,18.79,9.32,4.66,22.09,11.03,20.56,29.21-.27,3.13-2.89,5.5-5.98,5.5-.16,0-.34,0-.51-.02-3.3-.28-5.75-3.18-5.47-6.49.81-9.62-4.23-12.6-13.96-17.47-9.97-4.98-23.63-11.8-17.89-32.7h0Zm-38.22,126.22c-.83.39-1.69.57-2.55.57-2.25,0-4.41-1.27-5.43-3.45-1.41-3-.13-6.57,2.87-7.98,8.74-4.11,8.8-9.96,8.15-20.82-.67-11.12-1.59-26.36,19.38-31.84,3.2-.84,6.48,1.08,7.32,4.29.84,3.21-1.08,6.49-4.29,7.32-10.99,2.88-11.14,7.76-10.43,19.51.62,10.4,1.48,24.65-15.02,32.41h0Zm99.21-116.94c7.92,5.51,13.03,2.64,22.1-3.36,9.3-6.14,22.04-14.56,37.27.86,2.33,2.36,2.3,6.16-.06,8.49-2.35,2.33-6.15,2.31-8.48-.05-7.99-8.09-12.29-5.77-22.11.72-5.61,3.7-12.55,8.29-20.79,8.29-4.53,0-9.47-1.39-14.79-5.09-2.72-1.89-3.39-5.63-1.5-8.35,1.9-2.72,5.63-3.39,8.36-1.5h0Zm17.21,158.71c26.63-3.54,45.6-19.79,56.36-48.3,6.87-18.2,1.29-33.2-7.28-39.99-7.55-5.98-17.02-5.95-25.99.08-8.71,5.86-9.45,11.99-10.31,19.09-.72,5.86-1.52,12.5-7.65,17.25h0c-5.88,4.55-10.44,5.04-14.85,5.52-2.52.27-5.13.56-8.66,1.61-16.53,4.94-15.67,23.47-14.83,26.67,4.74,17.96,20.68,19.74,33.21,18.08h0Zm83.21-54.92l-12.52-.56c.79-4.73.93-9.26.52-13.51l13.7-2.21c3.27-.53,5.5-3.61,4.97-6.88s-3.61-5.5-6.88-4.97l-14.47,2.34c-1.14-3.05-2.57-5.86-4.23-8.39l10.43-10.23c2.37-2.32,2.4-6.12.08-8.49-2.32-2.36-6.12-2.4-8.48-.08l-10.14,9.95c-4.1-3.17-8.67-5.22-13.44-6.15v-12.64c0-3.32-2.69-6-6-6s-6,2.69-6,6v12.61c-4.7.86-9.4,2.73-13.85,5.64l-9.95-9.36c-2.41-2.27-6.2-2.15-8.48.26-2.27,2.41-2.15,6.21.26,8.48l9.18,8.64c-3.65,4.63-5.26,9.38-6.13,13.74l-14.85-3.32c-3.23-.73-6.44,1.31-7.16,4.55-.72,3.23,1.31,6.44,4.54,7.16l15.6,3.49c-.44,1.55-1.06,2.67-2.12,3.49h0c-3.2,2.48-4.96,2.67-8.8,3.08-2.77.3-6.22.67-10.81,2.04-3.9,1.17-7.19,2.83-9.97,4.81l-8.9-8.77c-2.36-2.33-6.16-2.3-8.49.06-2.32,2.36-2.3,6.16.06,8.49l9.14,9c-2.95,4.75-4.51,9.96-5.18,14.72l-13.09-.49c-3.33-.11-6.1,2.46-6.22,5.77-.12,3.31,2.46,6.1,5.77,6.22l13.68.51c.07.31.14.62.21.9,1.29,4.88,3.3,9.17,5.94,12.82l-10.37,9.62c-2.43,2.25-2.57,6.05-.32,8.48,1.19,1.27,2.79,1.92,4.4,1.92,1.46,0,2.93-.53,4.08-1.6l10.9-10.11c3.85,2.53,8.29,4.33,13.24,5.35l-.51,13.78c-.12,3.31,2.46,6.1,5.77,6.22.08,0,.16,0,.23,0,3.21,0,5.87-2.54,5.99-5.78l.5-13.26c2.12-.07,4.3-.24,6.54-.54,3.17-.42,6.26-1.01,9.26-1.76l4.29,12.62c.85,2.49,3.18,4.07,5.68,4.07.64,0,1.29-.1,1.93-.32,3.14-1.07,4.82-4.48,3.75-7.61l-4.25-12.5c5.17-2.16,10.03-4.87,14.54-8.1l10.07,10.92c1.19,1.28,2.8,1.94,4.42,1.94,1.45,0,2.91-.53,4.06-1.59,2.44-2.25,2.59-6.04.35-8.48l-9.72-10.54c3.64-3.61,6.99-7.65,10.05-12.1l12.65,8.08c1,.64,2.12.94,3.22.94,1.98,0,3.92-.98,5.07-2.77,1.78-2.8.96-6.51-1.83-8.29l-12.96-8.26c1.92-3.7,3.67-7.61,5.25-11.74l15.27.68c.09,0,.18,0,.27,0,3.19,0,5.85-2.51,5.99-5.73.15-3.31-2.42-6.11-5.73-6.26h0Zm-104.19,103.5c70.47,0,127.8-57.33,127.8-127.8s-57.33-127.8-127.8-127.8-127.8,57.33-127.8,127.8,57.33,127.8,127.8,127.8h0Zm0-267.6c-77.09,0-139.8,62.72-139.8,139.8s62.71,139.8,139.8,139.8,139.8-62.72,139.8-139.8S259.57,42.68,182.48,42.68h0Zm274.87,414.67c-8.37,8.38-20.51,13.1-32.47,12.62-10.83-.43-20.45-4.96-27.09-12.74l-76.67-89.88,46.23-46.23,89.88,76.67c7.78,6.64,12.31,16.26,12.74,27.09.47,11.96-4.25,24.1-12.62,32.47h0Zm-127.13-167.9l27.97,23.86-44.88,44.89-23.86-27.97c15.64-11.36,29.42-25.13,40.77-40.77h0ZM12,182.48c0,94,76.48,170.48,170.48,170.48s170.48-76.48,170.48-170.48S276.48,12,182.48,12,12,88.48,12,182.48h0Zm469.96,241.93c-.57-14.22-6.58-26.91-16.94-35.75l-128.03-109.21c17.71-28.11,27.97-61.36,27.97-96.97C364.96,81.86,283.1,0,182.48,0S0,81.86,0,182.48s81.86,182.48,182.48,182.48c35.61,0,68.86-10.26,96.97-27.97l109.21,128.02c8.84,10.36,21.53,16.37,35.75,16.94.73.03,1.47.04,2.2.04,14.69,0,28.89-5.82,39.23-16.16,10.85-10.86,16.73-25.96,16.12-41.43Z" fill-rule="evenodd" stroke-width="0"/>
  </g>
</svg>