<?xml version="1.0" encoding="UTF-8"?>
<svg id="Layer_2" data-name="Layer 2" xmlns="http://www.w3.org/2000/svg" viewBox="0 0 481.91 481.91">
  <g id="Layer_1-2" data-name="Layer 1">
    <path d="m265.2,261.94c-3.02,0-5.47-2.46-5.47-5.48s2.45-5.49,5.47-5.49,5.51,2.46,5.51,5.49-2.49,5.48-5.51,5.48h0Zm-38.84-45.74c0,5.6-4.53,10.15-10.13,10.15h-89.03c-5.59,0-10.17-4.55-10.17-10.15v-89.01c0-5.6,4.57-10.15,10.17-10.15h89.03c5.6,0,10.13,4.55,10.13,10.15v89.01h0Zm-148.16,45.74c-3.02,0-5.47-2.46-5.47-5.48s2.45-5.49,5.47-5.49,5.51,2.46,5.51,5.49-2.49,5.48-5.51,5.48h0Zm0-180.49c3.02,0,5.51,2.46,5.51,5.49s-2.49,5.48-5.51,5.48-5.47-2.46-5.47-5.48,2.45-5.49,5.47-5.49h0Zm187,0c3.02,0,5.51,2.46,5.51,5.49s-2.49,5.48-5.51,5.48-5.47-2.46-5.47-5.48,2.45-5.49,5.47-5.49h0Zm-5.84,54.56c6.53,0,11.84-5.31,11.84-11.84v-20.83c6.7-2.46,11.48-8.87,11.48-16.4,0-9.65-7.84-17.49-17.48-17.49s-17.48,7.84-17.48,17.49c0,7.53,4.78,13.94,11.48,16.4v20.67h-21.07c-1.55-10.71-10.78-18.97-21.89-18.97h-89.03c-11.15,0-20.38,8.26-21.93,18.97h-21.07v-20.67c6.7-2.46,11.48-8.87,11.48-16.4,0-9.65-7.84-17.49-17.48-17.49s-17.48,7.84-17.48,17.49c0,7.53,4.78,13.94,11.48,16.4v20.83c0,6.53,5.31,11.84,11.84,11.84h21.03v71.37h-21.03c-6.53,0-11.84,5.32-11.84,11.85v20.82c-6.7,2.46-11.48,8.87-11.48,16.41,0,9.64,7.84,17.48,17.48,17.48s17.48-7.84,17.48-17.48c0-7.54-4.78-13.95-11.48-16.41v-20.67h21.07c1.55,10.72,10.78,18.97,21.93,18.97h89.03c11.11,0,20.34-8.25,21.89-18.97h21.07v20.67c-6.7,2.46-11.48,8.87-11.48,16.41,0,9.64,7.84,17.48,17.48,17.48s17.48-7.84,17.48-17.48c0-7.54-4.78-13.95-11.48-16.41v-20.82c0-6.53-5.31-11.85-11.84-11.85h-20.99v-71.37h20.99Zm-55.5,66.88v-62.39c0-.5-.45-.94-.94-.94h-62.4c-.49,0-.94.44-.94.94v62.39c0,.5.45.94.94.94h62.4c.49,0,.94-.44.94-.94h0Zm-.94-75.33h-62.4c-7.15,0-12.95,5.8-12.95,12.94v62.39c0,7.14,5.8,12.94,12.95,12.94h62.4c7.11,0,12.9-5.8,12.9-12.94v-62.39c0-7.14-5.8-12.94-12.9-12.94h0Zm255.28,329.13l-1.51,1.52c-8.21,8.24-18.34,12.15-29.98,11.66-11.64-.51-21.32-5.28-28.83-14.2l-87.88-104.53,41.16-41.16,104.51,87.89c8.94,7.5,13.72,17.21,14.21,28.86.49,11.64-3.43,21.72-11.68,29.96h0Zm-174.87-154.42l29.28,29.27,18.95-18.93-29.28-29.28c-2.9,3.37-5.92,6.65-9.11,9.84-3.19,3.18-6.45,6.21-9.84,9.1h0Zm-224.61-17.59c62.32,62.3,163.68,62.3,225.96,0,62.32-62.3,62.32-163.67,0-225.97-31.12-31.15-72.04-46.72-112.96-46.72s-81.84,15.57-113,46.72c-62.28,62.3-62.28,163.67,0,225.97h0Zm423.13,141.53c-.61-14.93-7.02-27.91-18.46-37.52l-108.75-91.43c-2.37-2-5.88-1.85-8.09.35l-6.53,6.52-30.22-30.24c49.78-67.2,44.27-162.78-16.62-223.66-66.98-66.98-175.97-66.98-242.95,0-66.97,66.97-66.97,175.96,0,242.94,33.49,33.49,77.47,50.23,121.49,50.23,35.98,0,71.96-11.21,102.18-33.61l30.22,30.24-6.49,6.51c-2.21,2.2-2.37,5.72-.37,8.11l91.44,108.74c9.64,11.44,22.58,17.82,37.53,18.47.82.03,1.63.05,2.45.05,13.97,0,26.55-5.23,36.51-15.22l1.51-1.51c10.58-10.57,15.8-24.04,15.15-38.97Z" fill-rule="evenodd" stroke-width="0"/>
  </g>
</svg>