<?xml version="1.0" encoding="UTF-8"?>
<svg id="Layer_2" data-name="Layer 2" xmlns="http://www.w3.org/2000/svg" viewBox="0 0 482 481.82">
  <g id="Layer_1-2" data-name="Layer 1">
    <path d="m70.07,268.52c0-3.22,2.53-5.9,5.74-6.08,88.86-5.26,125.7-55.84,161.32-104.75,36.23-49.75,73.7-101.18,168.32-106.97.16,0,.31-.01.46-.01,1.58,0,2.9.53,4.09,1.66,1.31,1.23,1.92,2.65,1.92,4.45v.81c0,3.22-2.52,5.9-5.74,6.08-88.86,5.26-125.69,55.84-161.31,104.75-36.23,49.75-73.7,101.18-168.32,106.97-1.79.11-3.24-.41-4.55-1.65-1.32-1.23-1.93-2.65-1.93-4.45v-.81h0ZM446.25,0H35.75C15.72,1.88,0,18.78,0,39.29v308.67c0,21.76,17.7,39.47,39.46,39.47h146.92v42.47l-23.33,12.12c-.69.36-1.38.71-2.06,1.05-6.51,3.28-15.41,7.78-15.41,18.51s9.08,20.24,20.24,20.24h150.36c11.16,0,20.24-9.08,20.24-20.24s-8.91-15.23-15.41-18.52c-.69-.34-1.37-.69-2.06-1.05l-23.33-12.12v-42.47h146.92c21.76,0,39.46-17.7,39.46-39.47V39.29c0-20.51-15.72-37.41-35.75-39.29h0ZM103.24,207.39v39.52c7.76-1.55,15.01-3.52,21.83-5.86v-90.24c-9.34-2.62-16.2-11.2-16.2-21.36s6.86-18.74,16.2-21.36v-22.98c-6.83-2.36-14.08-4.33-21.83-5.88v85.44c9.33,2.63,16.19,11.21,16.19,21.37s-6.86,18.74-16.19,21.36h0Zm-16.19-21.36c0,5.62,4.57,10.19,10.19,10.19s10.19-4.57,10.19-10.19-4.57-10.19-10.19-10.19-10.19,4.57-10.19,10.19h0Zm116.56-41.95v38.07c5.03-6.18,9.89-12.57,14.7-19.07-4.83-6.52-9.7-12.88-14.7-18.99h0Zm-33.14,56.48v15.38c7.61-6.1,14.58-12.79,21.14-19.89v-65.8c-6.61-7.14-13.59-13.82-21.14-19.89v47.47c9.33,2.63,16.19,11.21,16.19,21.37s-6.86,18.74-16.19,21.36h0Zm-6-11.17c5.62,0,10.19-4.57,10.19-10.19s-4.57-10.19-10.19-10.19-10.19,4.57-10.19,10.19,4.57,10.19,10.19,10.19h0Zm-27.4-38.57v85.54c7.69-3.4,14.78-7.33,21.4-11.68v-24.12c-9.33-2.63-16.19-11.21-16.19-21.36s6.86-18.74,16.19-21.37v-56.24c-6.64-4.39-13.74-8.33-21.4-11.74v18.24c9.33,2.63,16.19,11.21,16.19,21.36s-6.86,18.74-16.19,21.36h0Zm-6-31.56c-5.63,0-10.2,4.57-10.2,10.19s4.57,10.19,10.2,10.19,10.19-4.57,10.19-10.19-4.57-10.19-10.19-10.19h0Zm-61-61.64c0,3.22,2.53,5.9,5.75,6.08,37.82,2.24,69.23,12.85,96.01,32.43,21.98,16.07,38.8,36.58,53.91,56.81.56-.78,1.13-1.55,1.69-2.33,2.03-2.78,4.06-5.57,6.11-8.36-34.15-45.68-72.77-86.4-156.99-91.55-1.79-.11-3.24.42-4.55,1.65-1.32,1.23-1.93,2.65-1.93,4.45v.81h0Zm308.69,107.05v-85.45c-7.76,1.55-15.01,3.52-21.83,5.86v23c9.34,2.63,16.2,11.21,16.2,21.36s-6.86,18.74-16.2,21.36v90.21c6.83,2.36,14.08,4.33,21.83,5.89v-39.52c-9.33-2.63-16.2-11.21-16.2-21.36s6.87-18.74,16.2-21.37h0Zm16.19,21.37c0-5.62-4.57-10.19-10.19-10.19s-10.2,4.57-10.2,10.19,4.58,10.19,10.2,10.19,10.19-4.57,10.19-10.19h0Zm-116.57-3.97v-38.07c-5.02,6.18-9.88,12.57-14.69,19.07,4.83,6.52,9.7,12.88,14.69,18.99h0Zm33.15-24.23v-47.62c-7.61,6.1-14.58,12.79-21.15,19.89v65.79c6.62,7.14,13.6,13.82,21.15,19.89v-15.23c-9.33-2.63-16.2-11.21-16.2-21.36s6.87-18.74,16.2-21.37h0Zm6,11.17c-5.62,0-10.2,4.57-10.2,10.19s4.58,10.19,10.2,10.19,10.19-4.57,10.19-10.19-4.57-10.19-10.19-10.19h0Zm27.4-60.91v-18.3c-7.69,3.41-14.78,7.33-21.4,11.68v56.36c9.33,2.63,16.19,11.21,16.19,21.37s-6.86,18.74-16.19,21.36v24c6.64,4.39,13.74,8.32,21.4,11.73v-85.47c-9.33-2.62-16.19-11.2-16.19-21.36s6.86-18.74,16.19-21.36h0Zm6,31.56c5.63,0,10.2-4.57,10.2-10.19s-4.57-10.19-10.2-10.19-10.19,4.57-10.19,10.19,4.57,10.19,10.19,10.19h0Zm60.99,128.88c0-3.22-2.52-5.9-5.74-6.08-37.83-2.24-69.23-12.85-96.01-32.43-21.98-16.07-38.8-36.58-53.91-56.81-.56.78-1.13,1.55-1.7,2.33-2.02,2.79-4.05,5.57-6.1,8.36,34.15,45.68,72.77,86.4,156.99,91.55,1.79.11,3.24-.41,4.55-1.65,1.31-1.23,1.92-2.65,1.92-4.45v-.81h0Zm-335.83,18.92c.39,0,.79-.01,1.19-.04,88.43-5.41,129.32-47.86,163.72-93.47,15.19,20.15,33.44,42.08,57.95,59.24,29.24,20.47,63.84,31.67,105.77,34.23.4.02.8.04,1.19.04,4.64,0,8.88-1.69,12.32-4.92,3.72-3.51,5.69-8.07,5.69-13.19v-.81c0-9.56-7.48-17.5-17.03-18.06-5.59-.33-10.96-.86-16.13-1.55v-41.51c9.33-2.63,16.19-11.21,16.19-21.36s-6.86-18.74-16.19-21.37v-87.44c5.17-.69,10.53-1.22,16.13-1.55,9.55-.57,17.03-8.5,17.03-18.07v-.81c0-5.12-1.97-9.68-5.69-13.19-3.73-3.51-8.41-5.19-13.51-4.88-88.43,5.41-129.32,47.86-163.72,93.48-15.19-20.15-33.44-42.08-57.95-59.24-29.24-20.47-63.84-31.67-105.77-34.23-5.11-.31-9.78,1.38-13.51,4.88-3.73,3.51-5.7,8.07-5.7,13.19v.81c0,9.56,7.49,17.5,17.04,18.07,5.59.33,10.96.85,16.13,1.55v87.44c-9.33,2.63-16.19,11.21-16.19,21.37s6.86,18.74,16.19,21.36v41.51c-5.17.69-10.53,1.22-16.13,1.55-9.55.56-17.04,8.5-17.04,18.06v.81c0,5.12,1.97,9.68,5.7,13.19,3.44,3.23,7.68,4.92,12.32,4.92h0Zm366.45,87.99H39.46c-15.14,0-27.46-12.32-27.46-27.47v-21.64h458v21.64c0,15.14-12.32,27.47-27.46,27.47h0Zm-155.69,63.43l26.57,13.81c.72.38,1.45.75,2.18,1.11,6.73,3.4,8.82,4.92,8.82,7.8,0,4.54-3.69,8.24-8.24,8.24h-150.36c-4.55,0-8.24-3.7-8.24-8.24,0-2.88,2.09-4.41,8.82-7.8.72-.36,1.45-.74,2.18-1.11l26.57-13.81c1.99-1.03,3.23-3.08,3.23-5.32v-46.11h85.24v46.11c0,2.24,1.24,4.29,3.23,5.32h0ZM39.46,11.82c-15.14,0-27.46,12.32-27.46,27.46v275.03h458V39.29c0-15.14-12.32-27.46-27.46-27.46H39.46Z" fill-rule="evenodd" stroke-width="0"/>
  </g>
</svg>