<?xml version="1.0" encoding="UTF-8"?>
<svg id="Layer_2" data-name="Layer 2" xmlns="http://www.w3.org/2000/svg" viewBox="0 0 436.1 481.82">
  <g id="Layer_1-2" data-name="Layer 1">
    <path d="m373.53,289.42c-27.88,0-50.57-22.69-50.57-50.57s22.69-50.57,50.57-50.57,50.57,22.69,50.57,50.57-22.68,50.57-50.57,50.57h0ZM108.31,0h-8.59c-27.09,2.19-48.46,24.94-48.46,52.58,0,29.09,23.67,52.76,52.76,52.76,3.23,0,6.39-.31,9.47-.87l43.96,144.95c-25.52,10.12-44.04,34.17-46.15,62.73h-50.16c-2.81-14.15-15.31-24.86-30.27-24.86-17.02,0-30.86,13.84-30.86,30.86s13.84,30.86,30.86,30.86c14.96,0,27.46-10.7,30.27-24.86h50.25c1.23,13.72,6.24,26.36,14,36.86l-56.66,48.77c-7.19-6.22-16.55-10-26.77-10-22.58,0-40.95,18.37-40.95,40.95s18.37,40.95,40.95,40.95,40.95-18.37,40.95-40.95c0-8.04-2.34-15.53-6.35-21.87l56.72-48.82c13.22,12.87,31.25,20.82,51.11,20.82,18.05,0,34.58-6.57,47.37-17.42l42.96,43c-5.08,6.82-8.09,15.27-8.09,24.4,0,22.58,18.38,40.95,40.96,40.95s40.95-18.37,40.95-40.95-18.37-40.95-40.95-40.95c-9.13,0-17.56,3-24.38,8.07l-42.97-43c10.88-12.79,17.46-29.34,17.46-47.41,0-7.86-1.26-15.43-3.56-22.53l64.23-26.73c10.55,19.68,31.32,33.1,55.17,33.1,34.5,0,62.57-28.06,62.57-62.56s-28.07-62.57-62.57-62.57-62.57,28.07-62.57,62.57c0,6.4.97,12.57,2.77,18.39l-64.23,26.73c-12.21-23.56-36.81-39.7-65.12-39.7-5.3,0-10.47.58-15.46,1.66l-43.96-144.94c18.7-8.12,31.81-26.76,31.81-48.41,0-27.65-21.38-50.39-48.46-52.58h0Zm76.08,378.89c-33.8,0-61.31-27.5-61.31-61.31s27.51-61.31,61.31-61.31,61.31,27.5,61.31,61.31-27.5,61.31-61.31,61.31h0Zm152.15,61.98c0,15.96-12.99,28.95-28.95,28.95s-28.96-12.99-28.96-28.95,12.99-28.95,28.96-28.95,28.95,12.99,28.95,28.95h0Zm-294.58,28.83c-15.97,0-28.95-12.99-28.95-28.95s12.98-28.95,28.95-28.95,28.95,12.99,28.95,28.95-12.99,28.95-28.95,28.95h0Zm-11.09-132.68c-10.4,0-18.86-8.46-18.86-18.86s8.46-18.86,18.86-18.86,18.86,8.46,18.86,18.86-8.46,18.86-18.86,18.86h0ZM63.25,52.58c0-22.47,18.28-40.76,40.76-40.76s40.76,18.29,40.76,40.76-18.29,40.76-40.76,40.76-40.76-18.28-40.76-40.76Z" fill-rule="evenodd" stroke-width="0"/>
  </g>
</svg>