<?xml version="1.0" encoding="UTF-8"?>
<svg id="Layer_2" data-name="Layer 2" xmlns="http://www.w3.org/2000/svg" viewBox="0 0 465.52 482">
  <g id="Layer_1-2" data-name="Layer 1">
    <path d="m314.02,423.45c4.7,8.15,2.55,18.24-4.81,22.49-7.36,4.25-17.18,1.07-21.89-7.08h0c-2.32-4.02-3.05-8.61-2.07-12.93.95-4.15,3.39-7.54,6.89-9.56,7.36-4.25,17.17-1.07,21.88,7.08h0Zm-27.88-17.47c-6.41,3.7-10.88,9.84-12.58,17.28-1.66,7.28-.47,14.95,3.38,21.6h0c5.51,9.54,15.34,14.96,25.2,14.96,4.48,0,8.98-1.13,13.07-3.49,13.09-7.55,17.22-25,9.21-38.88-8.02-13.88-25.19-19.03-38.28-11.47h0Zm-20.49-112.09c-.34.34-.9.34-1.25,0-.34-.34-.34-.9,0-1.25.17-.17.4-.25.62-.25s.45.08.62.25c.34.35.34.91,0,1.25h0Zm8.49-9.73c-5.02-5.02-13.19-5.03-18.22,0-5.02,5.02-5.02,13.19,0,18.21,2.51,2.52,5.81,3.77,9.11,3.77s6.6-1.25,9.11-3.77c5.02-5.02,5.02-13.19,0-18.21h0Zm174.89,52.79c-8.29,14.36-26.11,20.79-43.32,15.63-13.68-4.1-32.76-13.07-49.59-20.98-6.05-2.84-11.84-5.57-17.19-7.99l7.89-19.6,20.72,10.33c1.73.87,3.78.84,5.49-.07,1.72-.91,2.88-2.59,3.13-4.51.58-4.41,2-8.6,4.22-12.45,4.82-8.33,12.87-14.16,22.69-16.4,9.99-2.28,20.57-.6,29.81,4.74,18.93,10.92,26.17,33.94,16.15,51.3h0Zm-112.9,85.21c-4.1-13.69-13.07-32.76-20.99-49.59-2.84-6.05-5.57-11.84-7.98-17.19l-19.61,7.89,10.34,20.71c.86,1.74.84,3.78-.07,5.5-.91,1.71-2.59,2.88-4.51,3.13-4.41.58-8.6,2-12.45,4.22-17.36,10.03-22.59,33.58-11.66,52.5,10.93,18.93,33.94,26.17,51.3,16.15,14.37-8.29,20.79-26.11,15.64-43.32h0Zm-56.71-96.33c1.26-.43,2.51-.97,3.71-1.66l8.32-4.71,10.92,24.91-12.34,4.97-10.61-23.51h0Zm-102.95-72.27l91.39,59.87c2.96,1.93,6.28,2.04,9.36.3l14.44-8.18c1.64-.93,3.63-1.03,5.36-.27l30.89,13.54,4.96-12.33-175.26-79.19c-1.83,6.92.87,14.48,7.12,18.58l11.66,7.64s.04.03.06.04h0Zm-34.62,88.91c-3.83,2.94-8.12,5.85-13.06,8.83-3.63-1.81-7.26-3.51-10.86-5.21-.67-.32-1.35-.64-2.03-.96,1.09-.63,2.14-1.27,3.18-1.91,22.27-13.73,48.49-34.52,58.22-74.77l11.01,7.21c-6.98,26.5-21.82,47.82-46.47,66.81h0Zm24.06,52.87c12.55,16.49,25.69,44.21,26.67,74.31h-12.54c-.63-27.22-9.57-49.51-28.56-71.59-12.48-14.51-30.64-23.68-49.87-33.38-13.36-6.75-27.17-13.72-38.65-22.56-34.18-26.34-50.38-58.53-50.96-101.3.58-42.76,16.78-74.95,50.96-101.29,11.47-8.84,25.29-15.81,38.64-22.55,19.23-9.71,37.39-18.88,49.87-33.39,18.99-22.07,27.93-44.37,28.56-71.59h12.54c-.98,30.1-14.12,57.82-26.67,74.31-15.91,20.9-33.97,29.4-53.09,38.39-8.83,4.16-17.96,8.45-27.08,14.08-27.42,16.9-59.24,43.74-61.96,101.76,0,.19,0,.38,0,.57,2.72,58.02,34.54,84.86,61.96,101.76,9.12,5.63,18.25,9.92,27.08,14.08,19.12,8.99,37.18,17.49,53.09,38.39h0Zm-122.96,42.5h119.06c-2.74-7.23-6.44-14.18-11.16-21.03H54.21c-4.76,6.85-8.49,13.8-11.27,21.03h0Zm59.81-59.13c-15.75,8.03-29.53,15.76-39.03,26.1h77.69c-9.58-10.6-23.52-18.37-38.65-26.1h0Zm-77.98,91.29c.62-27.22,9.57-49.51,28.55-71.59,9.29-10.8,21.86-18.72,36.26-26.38-4.45-2.27-8.9-4.61-13.28-7.06-12.47,6.55-25.48,15.06-37.4,30.72-12.55,16.49-25.69,44.21-26.68,74.31h12.54Zm14.13-383.34c11.8,15.5,24.55,23.91,36.74,30.38,4.37-2.47,8.82-4.8,13.26-7.07-14.06-7.51-26.36-15.31-35.58-26.03C34.34,61.87,25.39,39.57,24.77,12.35h-12.54c.98,30.1,14.13,57.82,26.68,74.31h0Zm63.15,16.63c15.07-7.67,29-15.35,38.71-25.75H63.71c9.44,10.28,22.94,17.88,38.34,25.75h0Zm59.67-58.78H42.94c2.78,7.23,6.51,14.18,11.27,21.03h96.14c4.8-6.85,8.57-13.8,11.37-21.03h0Zm3.49,170.66h-5.3l5.97,2.7c-.21-.91-.44-1.81-.67-2.7h0Zm-15.81,1.19c.26-.45.58-.83.93-1.19H39.47c-1.55,6.13-2.68,12.78-3.31,20.01h109.12c-.74-6.05.4-12.37,3.65-18.02l.47-.8h0Zm15.82,50.82H39.64c-1.59-6.12-2.74-12.78-3.41-20h113.33c2.15,3.4,5.04,6.4,8.6,8.74l8.41,5.5c-.4,1.98-.86,3.88-1.35,5.76h0Zm-110.55-85.24c-4.44,6.2-8.33,13.2-11.42,21.23h118.08c-3.17-8.03-7.15-15.05-11.62-21.23H54.67Zm47.4-38.63c-3.37,1.76-6.73,3.64-10.04,5.68-9.33,5.75-18.77,12.44-27.2,20.95h74.65c-8.55-8.61-17.94-15.19-26.7-20.6-3.28-2.02-6.75-3.97-10.71-6.03h0Zm47.66,157.1H55.17c-4.52-6.18-8.47-13.2-11.63-21.23h117.81c-3.17,8.04-7.14,15.05-11.62,21.23h0Zm-46.99,38.28c3.66-1.92,6.98-3.8,10.04-5.68,8.74-5.39,18.15-11.97,26.73-20.6h-73.99c8.25,8.19,17.43,14.65,26.51,20.25,3.54,2.18,7.12,4.16,10.71,6.03h0Zm39.1-198.81c31.1,23.96,47.27,52.72,50.4,89.9l-12.94-5.85c-7.52-46.8-36.03-69.89-60.22-84.8-1.26-.78-2.54-1.54-3.85-2.3.9-.42,1.8-.85,2.7-1.27,3.39-1.6,6.81-3.2,10.22-4.89,5.21,3.12,9.71,6.15,13.69,9.21h0Zm69.01,34.2c6.91-1.82,14.47.88,18.58,7.12l61.09,92.98-43.27-19.55-36.4-80.55h0Zm228.02,101.17c-11.87-6.85-25.54-9-38.48-6.04-13.11,2.99-23.91,10.84-30.41,22.1-1.64,2.84-2.95,5.8-3.94,8.88l-19.7-9.82c-1.49-.75-3.24-.83-4.81-.24-1.56.6-2.81,1.82-3.43,3.37l-.74,1.85-26.43-11.94-71.48-108.8c-8.44-12.84-25.46-16.89-38.75-9.21l-.8.46c-2.67,1.54-3.74,4.86-2.47,7.67l33.27,73.62-26.07-11.77c-1.96-43.96-19.65-77.41-55.47-105-2.7-2.09-5.62-4.14-8.78-6.21,12.16-7.06,24.11-16.19,35.07-30.6,14.59-19.16,29.91-52.27,29.15-87.7-.07-3.26-2.73-5.87-6-5.87h-24.56c-1.61,0-3.16.65-4.29,1.8-1.13,1.16-1.74,2.72-1.71,4.33.2,9.38-.64,18.1-2.59,26.38H39.27c-1.89-8.18-2.7-16.79-2.5-26.03.03-1.61-.58-3.17-1.71-4.33-1.13-1.15-2.67-1.8-4.29-1.8H6.2C2.93.35.27,2.96.2,6.22c-.76,35.43,14.57,68.54,29.16,87.7,11.12,14.62,23.24,23.69,34.51,30.28-2.81,1.86-5.57,3.78-8.22,5.83-17.13,13.19-29.86,27.52-38.94,43.81C5.95,193.13.33,215.64,0,240.75v.15c.33,25.11,5.95,47.62,16.69,66.91,9.08,16.29,21.81,30.62,38.94,43.81,2.83,2.19,5.78,4.24,8.79,6.2-11.5,6.68-23.84,15.84-35.07,30.61C14.76,407.59-.56,440.7.2,476.13c.07,3.26,2.74,5.87,6,5.87h24.57c1.61,0,3.16-.65,4.29-1.8,1.13-1.16,1.74-2.71,1.71-4.33-.2-9.24.61-17.85,2.5-26.03h126.35c1.83,8.08,2.62,16.57,2.43,25.68-.03,1.62.58,3.17,1.71,4.33,1.13,1.15,2.68,1.8,4.29,1.8h24.56c3.27,0,5.93-2.61,6-5.87.76-35.43-14.56-68.54-29.15-87.7-10.79-14.18-22.54-23.25-34.5-30.27,2.94-1.94,5.67-3.87,8.22-5.84,25.3-19.49,41.62-42.27,49.68-69.41l62.44,40.9c1.59,1.05,3.27,1.85,4.99,2.43l12.62,27.93-1.85.74c-1.56.63-2.78,1.87-3.37,3.44-.59,1.56-.5,3.31.24,4.81l9.83,19.69c-3.08.99-6.05,2.3-8.88,3.94-23.09,13.33-30.29,44.24-16.06,68.89,9.81,16.99,27.28,26.65,44.75,26.65,7.88,0,15.76-1.96,22.94-6.11,19.21-11.09,27.89-34.59,21.13-57.16-4.35-14.54-13.53-34.04-21.62-51.25-3.78-8.04-7.35-15.63-10.2-22.2,0,0,0,0,0-.02l.05-.02-10.09-23.01,23.01,10.09.02-.05h.02c6.57,2.86,14.17,6.43,22.21,10.21,17.21,8.09,36.71,17.26,51.24,21.61,5.13,1.54,10.3,2.28,15.36,2.28,17.24,0,33.23-8.56,41.8-23.4,13.33-23.09,4.12-53.46-20.54-67.7h0Zm-9.39,50.41c4.25-7.35,1.07-17.17-7.08-21.88-2.85-1.65-6-2.5-9.13-2.5-1.27,0-2.55.14-3.8.43-4.14.95-7.54,3.39-9.56,6.88-4.25,7.36-1.07,17.18,7.08,21.89,8.15,4.7,18.24,2.54,22.49-4.82h0Zm-1.08-32.27c-6.65-3.84-14.32-5.04-21.6-3.38-7.44,1.7-13.58,6.17-17.28,12.58-7.56,13.09-2.41,30.26,11.47,38.28,4.8,2.77,10.02,4.09,15.12,4.09,9.64,0,18.82-4.73,23.76-13.3,7.56-13.09,2.42-30.26-11.47-38.27Z" fill-rule="evenodd" stroke-width="0"/>
  </g>
</svg>