<?xml version="1.0" encoding="UTF-8"?>
<svg id="Layer_2" data-name="Layer 2" xmlns="http://www.w3.org/2000/svg" viewBox="0 0 363.64 481.94">
  <g id="Layer_1-2" data-name="Layer 1">
    <path d="m73.98,234.97H12.54c2.36-13,15.2-21.39,30.71-29.8,15.52,8.41,28.36,16.8,30.72,29.8h0Zm-30.72,41.8c-15.52-8.42-28.35-16.8-30.71-29.8h61.43c-2.36,13-15.2,21.38-30.72,29.8h0Zm43.24-114.69c-.12-3.31-2.92-5.89-6.21-5.78-3.31.12-5.9,2.9-5.78,6.22.45,12.22-14.15,19.97-31.05,28.94-.07.03-.13.07-.2.11-.07-.04-.13-.07-.2-.11-16.9-8.97-31.5-16.72-31.05-28.94.12-3.31-2.47-6.09-5.78-6.22-3.31-.11-6.09,2.47-6.22,5.78-.63,17.36,14.29,27.41,30.65,36.35C15.8,207.04-.71,219.65.18,240.97c-.89,21.32,15.62,33.92,30.49,42.54C14.31,292.45-.61,302.5.02,319.86c.12,3.23,2.78,5.78,5.99,5.78h.22c3.31-.12,5.9-2.91,5.78-6.22-.45-12.22,14.15-19.97,31.05-28.94.07-.03.13-.07.2-.1.07.04.13.07.2.1,16.9,8.97,31.49,16.72,31.05,28.94-.12,3.31,2.47,6.1,5.78,6.22h.22c3.21,0,5.88-2.54,5.99-5.78.64-17.36-14.29-27.41-30.65-36.35,14.87-8.61,31.38-21.22,30.49-42.54.89-21.32-15.62-33.93-30.49-42.54,16.36-8.94,31.29-18.99,30.65-36.35h0Zm164.66,207.4c22.95-22.95,60.29-22.95,83.24,0,11.12,11.12,17.24,25.9,17.24,41.63,0,14.21-5.02,27.65-14.19,38.31-4.64-11.18-13.9-19.86-25.25-23.83,6.08-5.38,9.93-13.24,9.93-21.98,0-16.18-13.16-29.35-29.35-29.35s-29.35,13.16-29.35,29.35c0,8.74,3.84,16.6,9.93,21.98-11.35,3.97-20.62,12.65-25.25,23.83-9.17-10.66-14.19-24.1-14.19-38.31,0-15.73,6.12-30.51,17.24-41.63h0Zm41.62,51.48c9.56,0,17.35-7.78,17.35-17.35s-7.78-17.35-17.35-17.35-17.35,7.78-17.35,17.35,7.78,17.35,17.35,17.35h0Zm-35.03,37.45c20.73,15.37,49.33,15.37,70.05,0-3.27-13.42-15.42-23.19-29.51-23.19h-11.03c-14.09,0-26.24,9.77-29.51,23.19h0Zm-6.6-429.2c11.48-11.47,26.55-17.21,41.62-17.21s30.15,5.74,41.62,17.21c11.12,11.12,17.24,25.9,17.24,41.63,0,14.21-5.02,27.65-14.19,38.31-4.64-11.18-13.9-19.86-25.25-23.83,6.08-5.38,9.93-13.24,9.93-21.98,0-16.18-13.16-29.35-29.35-29.35s-29.35,13.17-29.35,29.35c0,8.74,3.84,16.59,9.93,21.98-11.35,3.97-20.62,12.65-25.25,23.83-9.17-10.66-14.19-24.1-14.19-38.31,0-15.72,6.12-30.51,17.24-41.63h0Zm41.62,51.48c9.56,0,17.35-7.78,17.35-17.34s-7.78-17.35-17.35-17.35-17.35,7.78-17.35,17.35,7.78,17.34,17.35,17.34h0Zm-35.03,37.46c10.36,7.68,22.69,11.53,35.03,11.53s24.67-3.84,35.03-11.53c-3.27-13.43-15.42-23.19-29.51-23.19h-11.03c-14.09,0-26.24,9.76-29.51,23.19h0Zm-6.6,81.2c11.48-11.48,26.55-17.21,41.62-17.21s30.15,5.74,41.62,17.21c11.12,11.12,17.24,25.9,17.24,41.63,0,14.21-5.02,27.65-14.19,38.31-4.64-11.18-13.9-19.86-25.25-23.83,6.08-5.38,9.93-13.24,9.93-21.98,0-16.18-13.16-29.35-29.35-29.35s-29.35,13.17-29.35,29.35c0,8.74,3.84,16.6,9.93,21.98-11.35,3.97-20.62,12.65-25.25,23.83-9.17-10.66-14.19-24.1-14.19-38.31,0-15.72,6.12-30.51,17.24-41.63h0Zm41.62,51.48c9.56,0,17.35-7.78,17.35-17.35s-7.78-17.34-17.35-17.34-17.35,7.78-17.35,17.34,7.78,17.35,17.35,17.35h0Zm-35.03,37.45c20.73,15.37,49.33,15.37,70.05,0-3.27-13.42-15.42-23.19-29.51-23.19h-11.03c-14.09,0-26.24,9.76-29.51,23.19h0Zm-80.68-41.3h45.11c1.39,16.66,8.53,32.15,20.49,44.11,13.82,13.82,31.96,20.73,50.11,20.73s36.29-6.91,50.11-20.73c13.38-13.38,20.75-31.18,20.75-50.1s-7.37-36.73-20.75-50.11c-27.64-27.63-72.59-27.63-100.22,0-11.96,11.96-19.1,27.45-20.49,44.11h-45.11V76.83h45.11c1.39,16.67,8.53,32.15,20.49,44.11,13.82,13.82,31.96,20.72,50.11,20.72s36.29-6.91,50.11-20.72c13.38-13.38,20.75-31.18,20.75-50.11s-7.37-36.73-20.75-50.11c-27.64-27.63-72.59-27.63-100.22,0-11.96,11.96-19.1,27.44-20.49,44.11h-51.11c-3.32,0-6,2.69-6,6v164.13h-50.84c-3.32,0-6,2.69-6,6s2.68,6,6,6h50.84v164.14c0,3.31,2.68,6,6,6h51.11c1.39,16.66,8.53,32.15,20.49,44.1,13.82,13.82,31.96,20.73,50.11,20.73s36.29-6.91,50.11-20.73c13.38-13.38,20.75-31.17,20.75-50.1s-7.37-36.73-20.75-50.11c-27.64-27.63-72.59-27.63-100.22,0-11.96,11.96-19.1,27.44-20.49,44.11h-45.11v-158.14Z" fill-rule="evenodd" stroke-width="0"/>
  </g>
</svg>