<?xml version="1.0" encoding="UTF-8"?>
<svg id="Layer_2" data-name="Layer 2" xmlns="http://www.w3.org/2000/svg" viewBox="0 0 482 482">
  <g id="Layer_1-2" data-name="Layer 1">
    <path d="m153.12,183.19c1.68.97,2.88,2.53,3.38,4.41,1.04,3.87-1.27,7.86-5.13,8.9-3.87,1.03-7.87-1.27-8.9-5.14-.51-1.87-.25-3.83.72-5.51.97-1.68,2.54-2.89,4.41-3.39.63-.17,1.27-.25,1.9-.25,1.26,0,2.5.33,3.62.98h0Zm-20.32-3.34c-2.57,4.45-3.26,9.64-1.93,14.62,2.31,8.59,10.11,14.28,18.62,14.28,1.64,0,3.32-.22,4.98-.66h0c10.26-2.75,16.37-13.34,13.62-23.6-1.33-4.97-4.52-9.12-8.97-11.7-3.7-2.13-7.9-2.94-12.06-2.4-3.79-10.68-5.72-21.87-5.72-33.33,0-10.36,1.58-20.56,4.69-30.32,1.01-3.16-.73-6.54-3.89-7.54-3.16-1.01-6.53.73-7.54,3.89-3.49,10.95-5.26,22.37-5.26,33.97,0,13.26,2.29,26.19,6.82,38.51-1.3,1.24-2.44,2.67-3.36,4.28h0Zm143.2-111.94c.95,7.86-1.74,15.85-7.41,21.52-5.67,5.66-13.66,8.35-21.51,7.4-.95-7.85,1.74-15.84,7.41-21.51,5.66-5.67,13.66-8.36,21.51-7.41h0Zm-41.37,38.59c-8.7,1.16-17.59-1.77-23.87-8.05-6.28-6.28-9.21-15.17-8.05-23.87,8.7-1.16,17.59,1.77,23.87,8.05,6.28,6.28,9.21,15.17,8.05,23.87h0Zm19.94,33.41v37.33c0,1.04.27,2.06.79,2.97l17.19,30.18h-25.66v-70.48h7.68Zm44.43,125.62c-1.61,2.78-4.27,4.31-7.48,4.31h-101.04c-3.21,0-5.87-1.53-7.48-4.31-1.62-2.78-1.63-5.84-.04-8.64l19.65-34.5h32.28v15.81c0,3.31,2.68,6,6,6s6-2.69,6-6v-15.81h32.5l19.65,34.5c1.59,2.8,1.58,5.86-.04,8.64h0Zm-72.36-85.32c.52-.91.79-1.93.79-2.97v-37.33h7.46v70.48h-25.44l17.19-30.18h0Zm19.36-113.38c9.55-9.55,23.59-13.31,36.66-9.82,2.07.55,3.69,2.17,4.24,4.25,3.49,13.06-.27,27.1-9.82,36.65-7.2,7.2-16.95,11.11-26.9,11.11-1.1,0-2.2-.07-3.29-.16v19.05h13.68c3.31,0,6,2.69,6,6v41.74l42.9,75.3c3.74,6.57,3.7,14.08-.09,20.61-3.8,6.53-10.31,10.28-17.86,10.28h-101.04c-7.55,0-14.06-3.75-17.86-10.28-3.79-6.53-3.83-14.04-.09-20.61l42.9-75.3v-41.74c0-3.31,2.68-6,6-6h13.46v-9.38c-1.34.13-2.67.22-4,.22-10.59,0-20.96-4.16-28.61-11.82-10.16-10.15-14.17-25.09-10.46-38.99.56-2.07,2.18-3.69,4.25-4.25,13.89-3.71,28.83.3,38.99,10.46,1.19,1.18,2.28,2.44,3.3,3.74,1.85-4.06,4.4-7.82,7.64-11.06h0Zm69.38-11.42c-4,0-7.26,3.26-7.26,7.27s3.26,7.26,7.26,7.26,7.27-3.26,7.27-7.26-3.26-7.27-7.27-7.27h0Zm19.24,141.09c-3.87,1.03-7.86-1.27-8.9-5.14-1.03-3.87,1.27-7.86,5.14-8.9.63-.17,1.26-.25,1.89-.25,1.26,0,2.5.33,3.62.98,1.68.97,2.89,2.53,3.39,4.41,1.04,3.87-1.27,7.86-5.14,8.9h0Zm-19.24-114.56c2.7,0,5.26-.56,7.6-1.56,11.58,16.68,17.68,36.17,17.68,56.68,0,11.45-1.91,22.63-5.69,33.28-2.39-.27-4.83-.11-7.22.53-10.26,2.75-16.37,13.33-13.62,23.6,2.3,8.59,10.11,14.28,18.62,14.28,1.64,0,3.31-.22,4.98-.66h0c10.26-2.75,16.37-13.34,13.62-23.6-.95-3.53-2.85-6.64-5.46-9.08,4.49-12.26,6.77-25.14,6.77-38.35,0-23.46-7.13-45.74-20.65-64.7,1.67-2.85,2.64-6.15,2.64-9.68,0-10.63-8.64-19.27-19.27-19.27s-19.26,8.64-19.26,19.27,8.64,19.26,19.26,19.26h0Zm-149.43-26.53c-4,0-7.26,3.26-7.26,7.27s3.26,7.26,7.26,7.26,7.27-3.26,7.27-7.26-3.26-7.27-7.27-7.27h0Zm0,26.53c10.63,0,19.27-8.64,19.27-19.26,0-2.56-.51-5-1.42-7.24,16.79-11.82,36.47-18.05,57.2-18.05,10.35,0,20.56,1.58,30.32,4.7,3.16,1.01,6.54-.74,7.54-3.89,1.01-3.16-.73-6.54-3.89-7.54-10.95-3.5-22.38-5.27-33.97-5.27-23.61,0-45.99,7.21-65.01,20.88-2.93-1.8-6.36-2.86-10.04-2.86-10.62,0-19.26,8.64-19.26,19.27s8.64,19.26,19.26,19.26h0Zm100.14,243.59c0,3.31-2.69,6-6,6h-38.18c-3.31,0-6-2.69-6-6s2.69-6,6-6h38.18c3.31,0,6,2.68,6,6h0Zm176.91,18.29c14.89,0,27-12.11,27-27v-9.59H12v9.59c0,14.89,12.11,27,27,27h404Zm-133.91,82.96h-136.18c9.36-22.05,14.11-45.85,14.13-70.96h107.92c.02,25.11,4.76,48.91,14.13,70.96h0Zm56.7,27.61c0,8.61-7.01,15.61-15.61,15.61h-218.36c-8.61,0-15.61-7-15.61-15.61s7-15.61,15.61-15.61h218.36c8.6,0,15.61,7,15.61,15.61h0ZM39,12c-14.89,0-27,12.11-27,27v256.23h458V39c0-14.89-12.11-27-27-27H39ZM443,0H39C17.5,0,0,17.5,0,39v277.82c0,21.51,17.5,39,39,39h136.04c-.02,25.28-5.15,49.1-15.25,70.96h-27.97c-15.22,0-27.61,12.38-27.61,27.61s12.39,27.61,27.61,27.61h218.36c15.22,0,27.61-12.39,27.61-27.61s-12.39-27.61-27.61-27.61h-27.97c-10.1-21.86-15.23-45.68-15.25-70.96h136.04c21.5,0,39-17.49,39-39V39c0-21.5-17.5-39-39-39Z" fill-rule="evenodd" stroke-width="0"/>
  </g>
</svg>