<?xml version="1.0" encoding="UTF-8"?>
<svg id="Layer_2" data-name="Layer 2" xmlns="http://www.w3.org/2000/svg" viewBox="0 0 481.94 482">
  <g id="Layer_1-2" data-name="Layer 1">
    <path d="m269.31,214.62c-6.75,6.74-15.71,10.45-25.24,10.45-7.5,0-14.64-2.31-20.63-6.57l12.37-12.37,22.48,4.54c.4.08.8.12,1.19.12,2.8,0,5.3-1.97,5.88-4.81.65-3.25-1.45-6.42-4.7-7.07l-14.67-2.96,13.23-13.23c2.35-2.34,2.35-6.14,0-8.48-2.34-2.34-6.14-2.34-8.48,0l-13.23,13.23-2.97-14.67c-.65-3.25-3.81-5.35-7.06-4.7-3.25.66-5.35,3.82-4.7,7.07l4.54,22.49-12.37,12.37c-4.26-5.99-6.57-13.13-6.57-20.63,0-9.53,3.71-18.5,10.45-25.23,6.75-6.74,15.71-10.45,25.24-10.45s18.49,3.71,25.24,10.45c6.74,6.74,10.45,15.7,10.45,25.23s-3.71,18.5-10.45,25.23h0Zm-129-106.61c0-19.68,16.01-35.69,35.69-35.69s35.69,16.01,35.69,35.69c0,17.63-12.86,32.31-29.69,35.17v-17.48l19.11-12.69c2.76-1.84,3.51-5.56,1.68-8.32-1.84-2.76-5.56-3.51-8.32-1.68l-12.47,8.28v-18.72c0-3.31-2.69-6-6-6s-6,2.69-6,6v18.72l-12.47-8.28c-2.76-1.83-6.48-1.08-8.32,1.68-1.83,2.76-1.08,6.48,1.68,8.32l19.11,12.69v17.48c-16.83-2.86-29.69-17.54-29.69-35.17h0Zm-32.38,117.07c-9.54,0-18.5-3.71-25.24-10.45-6.74-6.74-10.45-15.7-10.45-25.23s3.71-18.5,10.45-25.23c6.74-6.74,15.7-10.45,25.24-10.45s18.49,3.71,25.23,10.45c6.74,6.74,10.46,15.7,10.46,25.23,0,7.5-2.31,14.64-6.58,20.63l-12.36-12.37,4.54-22.49c.65-3.25-1.45-6.41-4.7-7.07-3.25-.66-6.41,1.45-7.07,4.7l-2.96,14.67-13.23-13.23c-2.34-2.34-6.14-2.34-8.49,0-2.34,2.34-2.34,6.14,0,8.48l13.24,13.23-14.68,2.96c-3.24.66-5.35,3.82-4.69,7.07.57,2.84,3.08,4.81,5.87,4.81.4,0,.8-.04,1.2-.12l22.48-4.54,12.37,12.37c-5.99,4.26-13.13,6.57-20.63,6.57h0Zm169.86-69.41c-18.59-18.59-48.85-18.59-67.44,0-9.01,9.01-13.97,20.98-13.97,33.72,0,10.72,3.52,20.88,10,29.2l-24.38,24.38v-87.67c23.47-2.96,41.69-23.03,41.69-47.29,0-26.3-21.4-47.69-47.69-47.69s-47.69,21.4-47.69,47.69c0,24.26,18.22,44.33,41.69,47.29v87.67l-24.38-24.38c6.47-8.32,10-18.49,10-29.2,0-12.74-4.96-24.71-13.97-33.72-18.6-18.59-48.85-18.59-67.44,0-18.6,18.59-18.6,48.85,0,67.44,9.29,9.3,21.5,13.95,33.72,13.95,10.32,0,20.64-3.34,29.2-9.98l32.87,32.87v19.9h-23.33c-3.32,0-6,2.68-6,6s2.68,6,6,6h58.66c3.31,0,6-2.69,6-6s-2.69-6-6-6h-23.33v-19.9l32.87-32.87c8.56,6.64,18.88,9.98,29.2,9.98,12.21,0,24.43-4.65,33.72-13.95,9.01-9.01,13.97-20.98,13.97-33.72s-4.96-24.71-13.97-33.72h0Zm182.34,304.54c-13.1,13.1-34.42,13.1-47.52,0l-89.16-89.16,47.51-47.52,89.17,89.16c13.1,13.1,13.1,34.42,0,47.52h0Zm-164.53-106.49l14.1,14.11,58.04-58.04-14.1-14.11-58.04,58.04h0Zm-14.98-35.97c6.98-5.17,13.63-10.9,19.88-17.16,6.26-6.26,11.99-12.9,17.17-19.88l16.98,16.99-37.04,37.04-16.99-16.99h0Zm-220.64-25.65c30.99,30.99,72.19,48.06,116.02,48.06s85.03-17.07,116.02-48.06c30.99-30.99,48.06-72.19,48.06-116.02s-17.07-85.03-48.06-116.02c-30.99-30.99-72.19-48.05-116.02-48.05S90.97,29.07,59.98,60.06c-63.98,63.98-63.98,168.07,0,232.04h0Zm408.63,112.11l-89.16-89.16,1.02-1.03c1.13-1.12,1.76-2.65,1.76-4.24s-.63-3.12-1.76-4.24l-22.59-22.59c-2.34-2.34-6.14-2.34-8.48,0l-6.26,6.25-18.55-18.55c17.89-27.99,27.49-60.54,27.49-94.57,0-47.03-18.32-91.25-51.58-124.5C267.24,18.32,223.02,0,176,0S84.75,18.32,51.49,51.58c-68.65,68.65-68.65,180.36,0,249.01,33.26,33.25,77.48,51.57,124.51,51.57,34.03,0,66.58-9.59,94.57-27.49l18.56,18.55-6.26,6.26c-2.34,2.34-2.34,6.14,0,8.48l22.59,22.59c1.17,1.17,2.71,1.76,4.24,1.76s3.07-.59,4.24-1.76l1.02-1.02,89.17,89.16c8.58,8.59,20.03,13.31,32.24,13.31s23.66-4.73,32.24-13.31c17.78-17.78,17.78-46.7,0-64.48h0Zm-201.07-136.58c24.46-24.45,37.92-56.97,37.92-91.55s-13.46-67.09-37.92-91.54c-24.45-24.45-56.96-37.92-91.54-37.92s-67.09,13.47-91.54,37.92c-50.48,50.48-50.48,132.61,0,183.09,24.45,24.45,56.96,37.91,91.54,37.91s67.09-13.46,91.54-37.91h0Zm8.49-191.58c-26.72-26.72-62.25-41.43-100.03-41.43s-73.31,14.71-100.03,41.43c-55.16,55.16-55.16,144.9,0,200.06,26.72,26.72,62.24,41.43,100.03,41.43s73.31-14.71,100.03-41.43c26.72-26.72,41.43-62.24,41.43-100.03s-14.71-73.31-41.43-100.03Z" fill-rule="evenodd" stroke-width="0"/>
  </g>
</svg>