<?xml version="1.0" encoding="UTF-8"?>
<svg id="Layer_2" data-name="Layer 2" xmlns="http://www.w3.org/2000/svg" viewBox="0 0 482.03 482">
  <g id="Layer_1-2" data-name="Layer 1">
    <path d="m322.38,237.85c2.34,2.34,2.34,6.14,0,8.48l-59.17,59.18c-1.13,1.12-2.65,1.75-4.24,1.75s-3.12-.63-4.24-1.75l-33.74-33.75c-2.34-2.34-2.34-6.14,0-8.48,2.34-2.34,6.14-2.34,8.49,0l29.5,29.5,54.93-54.93c2.34-2.35,6.14-2.35,8.48,0h0Zm141.48,226.01c-3.96,3.96-9.25,6.14-14.91,6.14s-10.94-2.18-14.9-6.14l-67.2-67.2,29.81-29.81,67.2,67.2c8.22,8.22,8.22,21.59,0,29.81h0Zm-113.58-96.49l14.44,14.44,17.09-17.09-14.44-14.43c-2.55,3.09-5.26,6.08-8.14,8.95-2.88,2.89-5.88,5.59-8.96,8.13h0Zm-157.69-16.61c43.61,43.6,114.56,43.6,158.16,0,21.12-21.13,32.76-49.21,32.76-79.08s-11.63-57.96-32.76-79.09c-21.12-21.12-49.21-32.75-79.08-32.75s-57.96,11.63-79.08,32.75c-21.12,21.13-32.76,49.21-32.76,79.09s11.63,57.95,32.76,79.08h0Zm33.68,103.92c2.38-26.92-3.49-53.04-16.97-75.55-.14-.24-.29-.47-.43-.71-8.85-5.2-17.18-11.59-24.76-19.18-6.76-6.76-12.63-14.16-17.58-22.07-5.91-3.39-12.17-6.35-18.67-8.77-7.05-2.62-14.17-4.82-21.06-6.95-22.77-7.02-44.28-13.66-62.09-34.12-10.86-12.48-16.09-26.21-17.46-45.91-.02-.28-.02-.56,0-.84,1.37-19.7,6.6-33.43,17.46-45.91,10.94-12.57,23.32-19.89,35.86-25.12-4.55-1.45-9.16-2.97-13.81-4.7-9.99-3.71-19.32-8.5-27.91-14.21-9.68,6.84-18.25,14.81-25.49,23.75-14.52,17.92-22.25,42.1-21.21,66.35,0,.18,0,.35,0,.52-1.04,24.25,6.7,48.44,21.21,66.35,16.98,20.95,41.75,36.81,69.75,44.65,31.87,8.93,61.72,19.29,76.56,47.65,7.02,13.41,10.79,31.02,11.54,53.84.3,9.11,7.67,16.25,16.79,16.25h1.55c8.77,0,15.96-6.59,16.74-15.32h0Zm-164.3-25.05c1.41-7.85,3.43-14.67,6.06-20.57h102.71c2.63,5.9,4.64,12.72,6.06,20.57H61.99Zm57.37-59.89c17.93,6.1,33.83,13.97,44.25,27.32h-88.38c11.39-14.47,28.94-22.18,44.12-27.32h0Zm-60.22,30.17c-7.02,13.41-10.79,31.02-11.54,53.84-.3,9.11-7.68,16.25-16.79,16.25h-1.54c-8.77,0-15.97-6.59-16.74-15.32-2.38-26.92,3.49-53.04,16.97-75.55,7.74-12.93,17.68-24.07,29.56-33.17,14.59,9.08,29.07,14.57,40.83,17.86.29.08.57.16.86.24-16,7.06-32.11,17.73-41.6,35.85h0Zm22.91-205.51c11.57-9.74,24.65-14.8,37.36-18.94,13.84,4.51,26.34,9.59,37.38,18.94h-74.74Zm71.3,40.6H59.85c1.51-11.73,4.85-20.55,10.81-28.6h95.74c-5.58,8.96-9.96,18.55-13.06,28.6h0Zm-.89,70.33c1.33,4.73,2.93,9.36,4.81,13.89-1.72-.73-3.46-1.42-5.21-2.07-4.67-1.74-9.3-3.27-13.87-4.71,4.82-2.02,9.61-4.35,14.27-7.11h0Zm-3.59-17.73c.23,1.79.49,3.56.79,5.33-8.9,5.9-18.69,9.83-30.26,13.62-13.84-4.52-26.34-9.6-37.38-18.95h66.84Zm-.95-12h-77.25c-5.96-8.05-9.3-16.87-10.81-28.6h90.44c-1.62,8.04-2.45,16.29-2.45,24.68,0,1.31.03,2.62.07,3.92h0ZM29.49,102.87C16.01,80.36,10.14,54.24,12.52,27.32c.77-8.73,7.97-15.32,16.74-15.32h1.54c9.12,0,16.49,7.14,16.79,16.25.75,22.82,4.53,40.43,11.54,53.84,14.85,28.36,44.69,38.72,76.56,47.65,25.86,7.24,48.96,21.33,65.71,39.94-6.12,4.24-11.91,9.05-17.28,14.43-3.48,3.47-6.71,7.13-9.72,10.92-.11-.12-.2-.24-.31-.36-17.81-20.46-39.32-27.1-62.09-34.12-6.89-2.13-14.02-4.33-21.07-6.95-26.14-9.72-47.39-27.26-61.45-50.73h0Zm147.33-50.5H61.99c1.41,7.85,3.43,14.67,6.06,20.57h102.71c2.63-5.9,4.65-12.72,6.06-20.57h0Zm-57.37,59.89c15.18-5.14,32.73-12.85,44.12-27.32h-88.38c10.42,13.35,26.33,21.22,44.26,27.32h0Zm60.22-30.17c-9.49,18.12-25.6,28.79-41.6,35.85.29.08.57.16.86.24,11.75,3.29,26.23,8.78,40.83,17.86,11.88-9.1,21.82-20.24,29.56-33.17,13.48-22.51,19.35-48.63,16.97-75.55-.77-8.73-7.97-15.32-16.74-15.32h-1.55c-9.12,0-16.49,7.14-16.79,16.25-.75,22.82-4.53,40.43-11.54,53.84h0Zm292.68,343.47l-68.7-68.7c-1.86-1.86-4.34-2.89-6.99-2.89-2.35,0-4.56.81-6.33,2.3l-15.7-15.7c13.59-20.22,20.89-43.99,20.89-68.89,0-33.08-12.88-64.18-36.27-87.57-23.39-23.39-54.49-36.27-87.57-36.27-21.31,0-41.8,5.35-59.93,15.41-6.84-7.88-14.16-14.52-21.62-20.11,11.73-9.56,21.63-21,29.48-34.1,14.79-24.7,21.23-53.32,18.63-82.78-1.32-14.97-13.66-26.26-28.69-26.26h-1.55c-15.63,0-28.27,12.24-28.78,27.85-.15,4.4-.41,8.56-.79,12.52H60.37c-.38-3.96-.65-8.12-.79-12.52C59.07,12.24,46.42,0,30.8,0h-1.54C14.22,0,1.89,11.29.56,26.26c-2.6,29.46,3.84,58.08,18.63,82.78,7.89,13.18,17.85,24.64,29.52,34.15-9.27,6.94-17.56,14.85-24.68,23.65C7.75,186.93-.95,213.95.14,241c-1.09,27.05,7.61,54.07,23.89,74.16,7.68,9.48,16.07,17.28,24.65,23.7-11.73,9.56-21.63,21-29.48,34.1-14.79,24.7-21.23,53.32-18.63,82.78,1.32,14.97,13.66,26.26,28.69,26.26h1.54c15.63,0,28.27-12.23,28.78-27.85.14-4.4.41-8.56.79-12.52h118.06c.38,3.96.65,8.12.79,12.52.51,15.62,13.16,27.85,28.78,27.85h1.55c15.03,0,27.37-11.29,28.69-26.26,2.12-23.97-1.75-47.38-11.23-68.58,14.34,5.53,29.51,8.3,44.68,8.3,24.06,0,48.12-6.96,68.87-20.85l15.73,15.72c-1.49,1.77-2.3,3.99-2.3,6.33,0,2.64,1.03,5.12,2.89,6.98l68.7,68.7c6.23,6.23,14.53,9.66,23.39,9.66s17.16-3.43,23.39-9.66c12.9-12.89,12.9-33.88,0-46.78h0Zm-143.48-96.69c31.53-31.54,31.53-82.85,0-114.38-31.54-31.54-82.85-31.54-114.38,0-31.53,31.53-31.53,82.84,0,114.38,15.76,15.76,36.48,23.64,57.19,23.65,20.71,0,41.42-7.89,57.19-23.65h0Zm8.48-122.87c-36.21-36.21-95.14-36.21-131.35,0-36.21,36.21-36.21,95.14,0,131.35,18.11,18.11,41.89,27.16,65.67,27.16s47.57-9.05,65.67-27.16c36.21-36.21,36.21-95.14,0-131.35Z" fill-rule="evenodd" stroke-width="0"/>
  </g>
</svg>