<?xml version="1.0" encoding="UTF-8"?>
<svg id="Layer_2" data-name="Layer 2" xmlns="http://www.w3.org/2000/svg" viewBox="0 0 481.91 404.01">
  <g id="Layer_1-2" data-name="Layer 1">
    <path d="m460.47,125.53c-9.11,11.15-26.01,22.09-51.53,33.34-2.82-5.36-6.33-10.3-10.67-14.56-.21-.2-.43-.39-.67-.56-13.58-9.91-31.48-11.54-51.78-4.75-16.35,5.48-33.27,16.47-45.26,29.39-21.06,22.7-33.08,54.19-32.16,84.25.96,31.37-23.36,62.03-50.54,93.3-24.97,28.72-63.02,45.08-107.14,46.06-26.04.57-74.77-14.84-91.87-76.29-8.17-29.37-15.4-73.46,16.06-116.9,31.43-43.39,81.92-44.11,119.79-26.01l6.08,15.06-38.77-15.65c-9.77-3.94-20.46-1.76-27.9,5.68l-15.24,15.24h0c-7.38,7.38-9.52,18.03-5.58,27.79l30.63,75.85c-8.06,4.89-17.82,6.89-27.4,5.5-7.42-1.08-14.5,1.17-19.94,6.33-5.45,5.15-8.08,12.1-7.41,19.56,1.25,14.04,8.33,26.54,20.47,36.15,18.07,14.31,43.93,19.45,60.14,17.12,14.21-2.04,40.65-5.83,61.55-25.9,18.41-17.67,28.99-43.39,31.46-76.43,3.71-20.52.54-42.89-8.92-63.03-1.18-2.51-2.45-4.98-3.81-7.39l2.88-2.88c7.45-7.44,9.62-18.14,5.68-27.9l-3.07-7.6,7.6,3.07c3.22,1.3,6.54,1.94,9.81,1.94,6.65,0,13.1-2.63,18.09-7.62l25.58-25.58,8.62-8.62c7.45-7.44,9.62-18.14,5.68-27.9l-3.42-8.49c3.86.89,7.75,1.34,11.6,1.34,13.46,0,26.5-5.31,36.6-15.4l13.23-13.23c.18-.18.35-.37.5-.56h0c9.32-12.01,12.86-27.4,9.72-42.21-.72-3.4-.11-6.45,1.87-9.31,1.97-2.86,4.61-4.51,8.04-5.04,18.33-2.83,38.96,3.12,61.31,17.68,16.42,10.7,35.04,34.5,38.88,59.28,2.16,14.09-.78,26.16-8.78,35.88h0Zm-52.83,90.35c.3-12.65-.62-28.06-5.13-41.57-52.09,17.77-79.9,35.55-89.94,57.42-8.2,17.85-17.47,50.58,12.09,69.78,41.25,17.9,63.5-15.36,69.35-26.01,7.75-14.12,13.1-37.52,13.63-59.62h0Zm-292.68,87.85c-11.21,8.69-25.84,12.5-40.16,10.42-3.82-.55-7.17.51-9.97,3.16-2.8,2.65-4.05,5.94-3.71,9.78.97,10.83,6.34,20.19,15.96,27.81,15.26,12.08,37.67,16.56,51,14.65,12.87-1.85,36.83-5.28,54.94-22.67,16.27-15.62,25.63-38.82,27.82-68.97.02-.22.05-.44.09-.65,3.67-19.89-.23-41.1-9.81-59.63l-22.38,22.38c-5,4.99-11.45,7.62-18.1,7.62-3.27,0-6.59-.64-9.8-1.94l-7.84-3.16c3.65,17.11-1.44,34.66-14.25,47.47l-13.23,13.23c-.18.18-.37.34-.57.49h.01Zm13.62-67.02l-42.98-17.35,27.85,68.97,6.82-6.82c11.6-11.6,14.99-28.26,8.85-43.47l-.54-1.34h0Zm60.84-24.35l-71.9-29.03c-5.3-2.14-10.88-1-14.92,3.04l-15.24,15.24h0c-1.3,1.3-2.28,2.76-2.96,4.32l70.93,28.63c5.3,2.14,10.88,1,14.92-3.03l19.17-19.17h0Zm-17.71-29.48l4.53,11.22,12.73,5.14c-5.07-6.12-10.85-11.64-17.26-16.36h0Zm-14.6-36.15l7.02,17.38c2.39,1.25,4.74,2.57,7.02,3.95,12.49,7.58,23.57,18.01,32.31,30.26l.99-.99c4.05-4.04,5.18-9.62,3.04-14.92l-7.4-18.33-42.98-17.35h0Zm17.8-32.67l-14.65,14.65c-1.49,1.49-2.63,3.17-3.42,4.96l70.8,28.58c5.3,2.14,10.88,1,14.92-3.03l19.17-19.17-71.9-29.03c-5.3-2.14-10.88-1-14.92,3.04h0Zm54.52-39.65l19.13,47.38,22.39,9.04,5.82-5.82c4.04-4.04,5.17-9.62,3.04-14.92l-7.41-18.33-42.97-17.35h0Zm17.79-32.67l-14.65,14.65h0c-1.49,1.49-2.63,3.17-3.42,4.96l54.61,22.04c15.21,6.14,31.86,2.75,43.47-8.85l6.82-6.82-71.91-29.03c-5.3-2.14-10.88-1-14.92,3.04h0Zm233.88,46.07c-3.92-25.35-22.09-53.11-44.19-67.51C412.04,4.09,388.58-2.47,367.24.83c-6.68,1.03-12.24,4.52-16.08,10.08-3.85,5.56-5.14,12-3.74,18.61,2.1,9.89.3,20.12-4.92,28.68l-75.86-30.62c-9.77-3.94-20.46-1.76-27.9,5.68l-14.65,14.65,4.24,4.24-4.25-4.24c-8.03,8.04-10.37,19.62-6.09,30.21l15.11,37.42-38.78-15.65c-9.76-3.94-20.45-1.77-27.9,5.68l-14.65,14.65c-8.04,8.04-10.37,19.62-6.1,30.21l2.71,6.69c-40.72-14.89-90.76-10.13-123.19,34.64C-.71,227.53-6.56,269.12,7.29,318.92c18.73,67.31,72.17,85.09,102.07,85.09.55,0,1.09,0,1.63-.02,47.54-1.06,88.71-18.88,115.92-50.19,28.81-33.14,54.57-65.84,53.48-101.54-.97-31.76,14.33-59.94,28.97-75.72,10.68-11.52,25.74-21.3,40.28-26.17,11.36-3.81,27.58-6.39,40.54,2.81,2.96,2.96,5.44,6.37,7.52,10.09-55.59,19.06-84.43,38.16-96.04,63.45-7.93,17.29-22.17,60.19,16.93,85.15.26.16.53.31.81.43,40.41,17.83,70.47-4.34,85.13-31.03,8.74-15.92,14.53-40.87,15.11-65.11.33-13.93-.78-30.96-6-46.25,27.69-12.18,45.62-23.95,56.15-36.77,10.09-12.3,13.97-27.97,11.31-45.32Z" fill-rule="evenodd" stroke-width="0"/>
  </g>
</svg>