<?xml version="1.0" encoding="UTF-8"?>
<svg id="Layer_2" data-name="Layer 2" xmlns="http://www.w3.org/2000/svg" viewBox="0 0 482 482">
  <g id="Layer_1-2" data-name="Layer 1">
    <path d="m105.44,60.43L22.2,95.79c-6.39,2.71-10.2,8.47-10.2,15.41v23.71c0,2.91.59,5.63,1.69,8.07l63.08-26.79c17.69-7.52,28.67-24.12,28.67-43.33v-12.43h0Zm-10.2,79.01c6.39,2.71,10.2,8.47,10.2,15.41v10.04l-26.43,11.23-55.27-23.48c-.34-.14-.67-.3-1-.46l51.25-21.77,21.25,9.03h0Zm10.2,38.49l-83.24,35.36c-6.39,2.71-10.2,8.47-10.2,15.41v23.72c0,2.9.59,5.62,1.69,8.07l81.55-34.65c6.39-2.71,10.2-8.47,10.2-15.41v-32.5h0Zm-31.45,69.98l21.25,9.03c6.39,2.71,10.2,8.47,10.2,15.41v10.04l-26.43,11.23-55.27-23.48c-.34-.14-.67-.3-1-.46l51.25-21.77h0Zm31.45,47.52l-83.24,35.36c-6.39,2.71-10.2,8.47-10.2,15.41v24.63c0,2.6.55,5.04,1.56,7.21l81.68-34.7c6.39-2.71,10.2-8.47,10.2-15.41v-32.5h0Zm-30.54,69.59l1.87.8c17.69,7.51,28.67,24.11,28.67,43.32v12.43l-81.84-34.76,51.3-21.79h0ZM117.44,51.31v21.55c0,21.38-10.85,40.18-28.78,50.74l11.28,4.79c10.79,4.59,17.5,14.73,17.5,26.46v55.58c0,11.73-6.71,21.87-17.5,26.46l-10.6,4.5,10.6,4.5c10.79,4.59,17.5,14.73,17.5,26.46v55.58c0,11.73-6.71,21.87-17.5,26.46l-10.52,4.46c17.48,10.64,28.02,29.21,28.02,50.29v21.56c0,.22-.01.44-.04.66v.03h0c-3.03,23.93-20.23,43.7-43.82,50.38-.55.16-1.1.23-1.64.23-2.62,0-5.02-1.72-5.77-4.36-.9-3.19.95-6.51,4.14-7.41,17.47-4.95,30.57-18.8,34.4-35.93l-87.2-37.04c-4.23-1.79-7.81-4.44-10.63-7.7-.11-.12-.21-.25-.32-.38-4.08-4.9-6.43-11.1-6.54-17.87-.01-.11-.02-.23-.02-.34v-24.77c0-11.73,6.71-21.87,17.51-26.46l46.15-19.6-44.61-18.95c-4.93-2.1-9.07-5.27-12.22-9.17-.08-.09-.16-.18-.23-.28C2.44,266.47.08,259.88,0,252.73c0-.07,0-.15,0-.22v-.11h0v-23.7c0-11.73,6.71-21.87,17.51-26.46l46.15-19.6-44.61-18.95c-4.93-2.1-9.07-5.27-12.22-9.17-.08-.09-.16-.19-.24-.29C2.44,148.96.08,142.38,0,135.23c0-.07,0-.15,0-.22v-.1h0v-23.71c0-11.73,6.71-21.87,17.51-26.46l87.2-37.04c-3.83-17.13-16.93-30.98-34.4-35.93-3.19-.9-5.04-4.22-4.14-7.4.9-3.19,4.22-5.05,7.41-4.14,23.59,6.68,40.79,26.46,43.82,50.38h0v.03c.03.22.04.44.04.67h0Zm352.56,21.55v-12.43l-83.24,35.36c-6.39,2.71-10.2,8.47-10.2,15.41v23.71c0,2.91.59,5.63,1.68,8.07l63.09-26.79c17.68-7.52,28.67-24.12,28.67-43.33h0Zm-10.2,66.58c6.39,2.71,10.2,8.47,10.2,15.41v10.04l-26.44,11.23-55.27-23.48c-.34-.14-.67-.3-.99-.46l51.24-21.77,21.26,9.03h0Zm10.2,70.99v-32.5l-83.24,35.36c-6.39,2.71-10.2,8.47-10.2,15.41v23.72c0,2.9.59,5.62,1.68,8.07l81.56-34.65c6.39-2.71,10.2-8.47,10.2-15.41h0Zm-31.45,37.48l21.25,9.03c6.39,2.71,10.2,8.47,10.2,15.41v10.04l-26.44,11.23-55.27-23.48c-.34-.14-.67-.3-.99-.46l51.25-21.77h0Zm31.45,80.02v-32.5l-83.24,35.36c-6.39,2.71-10.2,8.47-10.2,15.41v24.63c0,2.6.54,5.04,1.55,7.21l81.69-34.7c6.39-2.71,10.2-8.47,10.2-15.41h0Zm-30.54,37.09l1.87.8c17.68,7.51,28.67,24.11,28.67,43.32v12.43l-81.84-34.76,51.3-21.79h0Zm13.75-241.42l11.28,4.79c10.8,4.59,17.51,14.73,17.51,26.46v55.58c0,11.73-6.71,21.87-17.51,26.46l-10.6,4.5,10.6,4.5c10.8,4.59,17.51,14.73,17.51,26.46v55.58c0,11.73-6.71,21.87-17.51,26.46l-10.51,4.46c17.48,10.64,28.02,29.21,28.02,50.29v21.56c-.01.22-.02.44-.05.66v.03h0c-3.02,23.93-20.22,43.7-43.82,50.38-.54.16-1.09.23-1.63.23-2.62,0-5.03-1.72-5.77-4.36-.91-3.19.95-6.51,4.13-7.41,17.48-4.95,30.57-18.8,34.41-35.93l-87.21-37.04c-4.22-1.79-7.81-4.45-10.62-7.7-.11-.12-.22-.25-.32-.38-4.08-4.89-6.43-11.1-6.55-17.87,0-.11,0-.23,0-.34v-24.77c0-11.73,6.7-21.87,17.5-26.46l46.16-19.6-44.62-18.95c-4.93-2.1-9.06-5.26-12.21-9.16-.08-.1-.16-.2-.24-.3-4.15-5.27-6.51-11.85-6.58-19,0-.07,0-.15,0-.22v-.11h0v-23.7c0-11.73,6.7-21.87,17.5-26.46l46.16-19.6-44.62-18.95c-4.93-2.1-9.06-5.26-12.21-9.17-.08-.09-.16-.19-.24-.29-4.15-5.27-6.51-11.85-6.58-19,0-.07,0-.15,0-.22v-.1h0v-23.71c0-11.73,6.7-21.87,17.5-26.46l87.21-37.04c-3.84-17.13-16.93-30.98-34.41-35.93-3.18-.9-5.04-4.22-4.13-7.4.9-3.19,4.21-5.05,7.4-4.14,23.6,6.68,40.8,26.46,43.82,50.38h0v.03c.03.22.04.44.05.67v21.55c0,21.38-10.85,40.18-28.79,50.74h0Zm-184.72,33.42c-2.34-2.34-6.14-2.34-8.48,0-2.35,2.34-2.35,6.14,0,8.49l18.16,18.16h-88.83c-3.31,0-6,2.69-6,6s2.69,6,6,6h88.83l-18.16,18.17c-2.35,2.34-2.35,6.14,0,8.48,1.17,1.18,2.7,1.76,4.24,1.76s3.07-.58,4.24-1.76l28.41-28.41c2.34-2.34,2.34-6.14,0-8.48l-28.41-28.41h0Zm30.17,135.31c0,3.31-2.69,6-6,6h-88.83l18.16,18.17c2.35,2.34,2.35,6.14,0,8.48-1.17,1.17-2.7,1.76-4.24,1.76s-3.07-.59-4.24-1.76l-28.41-28.41c-2.35-2.34-2.35-6.14,0-8.48l28.41-28.41c2.34-2.35,6.14-2.35,8.48,0,2.35,2.34,2.35,6.14,0,8.48l-18.16,18.17h88.83c3.31,0,6,2.68,6,6Z" fill-rule="evenodd" stroke-width="0"/>
  </g>
</svg>