<?xml version="1.0" encoding="UTF-8"?>
<svg id="Layer_2" data-name="Layer 2" xmlns="http://www.w3.org/2000/svg" viewBox="0 0 482.02 481.82">
  <g id="Layer_1-2" data-name="Layer 1">
    <path d="m160,92l14.87-14.88h-83.07c-7.72,0-14.01,6.28-14.01,14v143.7h97.07l-14.87-14.88c-2.37-2.34-2.37-6.14,0-8.49,2.33-2.34,6.13-2.34,8.45,0l25.12,25.12c2.37,2.35,2.37,6.15,0,8.49l-25.12,25.12c-1.14,1.17-2.7,1.76-4.25,1.76s-3.06-.59-4.21-1.76c-2.37-2.34-2.37-6.14,0-8.49l14.87-14.88h-97.07v143.7c0,7.72,6.29,14,14.01,14h83.07l-14.87-14.88c-2.37-2.34-2.37-6.14,0-8.49,2.33-2.34,6.13-2.34,8.45,0l25.12,25.12c2.37,2.34,2.37,6.14,0,8.49l-25.12,25.12c-1.14,1.17-2.7,1.76-4.25,1.76s-3.06-.58-4.21-1.76c-2.37-2.34-2.37-6.14,0-8.49l14.87-14.88h-83.07c-14.33,0-25.97-11.66-25.97-26v-143.7H6c-3.31,0-6-2.69-6-6s2.7-6,6-6h59.83V91.12c0-14.34,11.64-26,25.97-26h83.07l-14.87-14.88c-2.37-2.34-2.37-6.14,0-8.49,2.33-2.34,6.13-2.34,8.45,0l25.12,25.12c2.37,2.34,2.37,6.15,0,8.49l-25.12,25.12c-1.14,1.17-2.7,1.76-4.25,1.76s-3.06-.59-4.21-1.76c-2.37-2.34-2.37-6.14,0-8.48h0ZM437.14,0h-174.31c-25.11,2.1-44.87,23.19-44.87,48.82v44.6c0,27.01,21.97,48.99,49.01,48.99h166.05c27.03,0,49.01-21.98,49.01-48.99v-44.6c0-25.62-19.77-46.71-44.87-48.82h0Zm-8.13,433.79c0,3.32-2.65,6-6,6h-146.04c-3.35,0-6-2.68-6-6s2.65-6,6-6h146.04c3.35,0,6,2.69,6,6h0Zm-158.04-46.54c0-3.31,2.65-6,6-6h97.4c3.31,0,6,2.69,6,6s-2.7,6-6,6h-97.4c-3.35,0-6-2.69-6-6h0Zm199.05,45.57v-44.6c0-20.4-16.62-37-37-37h-166.05c-20.42,0-37,16.6-37,37v44.6c0,20.4,16.58,37,37,37h166.05c20.38,0,37-16.6,37-37h0Zm-37-93.59h-166.05c-27.04,0-49.01,21.98-49.01,48.99v44.6c0,27.01,21.97,49,49.01,49h166.05c27.03,0,49.01-21.98,49.01-49v-44.6c0-27.01-21.97-48.99-49.01-48.99h0Zm-4-75.14c0,3.31-2.65,6-6,6h-146.04c-3.35,0-6-2.69-6-6s2.65-6,6-6h146.04c3.35,0,6,2.68,6,6h0Zm-158.04-46.54c0-3.31,2.65-6,6-6h97.4c3.31,0,6,2.69,6,6s-2.7,6-6,6h-97.4c-3.35,0-6-2.68-6-6h0Zm199.05,45.57v-44.6c0-20.4-16.62-37-37-37h-166.05c-20.42,0-37,16.6-37,37v44.6c0,20.4,16.58,37,37,37h166.05c20.38,0,37-16.6,37-37h0Zm-37-93.59h-166.05c-27.04,0-49.01,21.98-49.01,48.99v44.6c0,27.01,21.97,48.99,49.01,48.99h166.05c27.03,0,49.01-21.98,49.01-48.99v-44.6c0-27.01-21.97-48.99-49.01-48.99h0Zm-4-75.14c0,3.31-2.65,6-6,6h-146.04c-3.35,0-6-2.69-6-6s2.65-6,6-6h146.04c3.35,0,6,2.68,6,6h0Zm-158.04-46.54c0-3.32,2.65-6,6-6h97.4c3.31,0,6,2.68,6,6s-2.7,6-6,6h-97.4c-3.35,0-6-2.68-6-6h0Zm199.05,45.57c0,20.4-16.62,37-37,37h-166.05c-20.42,0-37-16.6-37-37v-44.6c0-20.4,16.58-37,37-37h166.05c20.38,0,37,16.6,37,37v44.6Z" fill-rule="evenodd" stroke-width="0"/>
  </g>
</svg>