<?xml version="1.0" encoding="UTF-8"?>
<svg id="Layer_2" data-name="Layer 2" xmlns="http://www.w3.org/2000/svg" viewBox="0 0 482 482">
  <g id="Layer_1-2" data-name="Layer 1">
    <path d="m469.99,163.3h-110.3V12h72.85l37.45,37.89v113.41h0Zm-61.15,180.56v-168.56h-55.15c-3.31,0-6-2.69-6-6v-75.52h-39.54v75.52c0,3.31-2.68,6-6,6h-122.31c-3.31,0-6-2.69-6-6v-75.52h-39.53v75.52c0,3.31-2.69,6-6,6h-55.3v168.56c0,13.37,10.94,24.25,24.39,24.25h41.95v-95.89c0-23.06,51.13-35.12,101.65-35.12s101.65,12.06,101.65,35.12v95.89h41.95c13.37,0,24.24-10.88,24.24-24.25h0Zm-167.84,67.92c-58.86,0-89.65-15.05-89.65-23.12v-40.73c18.08,11.62,54.02,17.62,89.65,17.62s71.57-6,89.65-17.62v40.73c0,8.07-30.79,23.12-89.65,23.12h0Zm0,58.22c58.86,0,89.65-15.05,89.65-23.11v-40.74c-18.08,11.63-54.02,17.63-89.65,17.63s-71.57-6-89.65-17.63v40.74c0,8.06,30.79,23.11,89.65,23.11h0Zm-89.65-180.3c18.08,11.63,54.02,17.63,89.65,17.63s71.57-6,89.65-17.63v40.74c0,8.07-30.79,23.11-89.65,23.11s-89.65-15.04-89.65-23.11v-40.74h0Zm23.81-32.31c17.55-5.34,40.94-8.29,65.84-8.29s48.29,2.95,65.84,8.29c18.8,5.72,23.81,12.01,23.81,14.83s-5.01,9.1-23.81,14.82c-17.55,5.35-40.94,8.29-65.84,8.29s-48.29-2.94-65.84-8.29c-18.8-5.72-23.81-12.01-23.81-14.82s5.01-9.11,23.81-14.83h0ZM12,12h72.85l37.46,37.89v113.41H12V12h0Zm173.84,0h72.86l37.45,37.89v113.41h-110.31V12h0Zm294.44,31.21L439.32,1.78c-1.14-1.14-2.65-1.78-4.29-1.78h-81.34c-3.31,0-6,2.69-6,6v75.78h-39.54v-34.35c0-1.58-.62-3.1-1.73-4.22L265.47,1.78c-1.13-1.14-2.66-1.78-4.27-1.78h-81.36c-3.31,0-6,2.69-6,6v75.78h-39.53v-34.35c0-1.58-.62-3.1-1.73-4.22L91.63,1.78c-1.13-1.14-2.67-1.78-4.27-1.78H6C2.69,0,0,2.69,0,6v163.3c0,3.31,2.69,6,6,6h55.01v168.56c0,19.99,16.33,36.25,36.39,36.25h41.95v66.78c0,23.05,51.13,35.11,101.65,35.11s101.65-12.06,101.65-35.11v-66.78h41.95c19.98,0,36.26-16.26,36.26-36.25v-168.56h55.13c3.31,0,6-2.69,6-6V47.43c0-1.58-.61-3.1-1.72-4.22Z" fill-rule="evenodd" stroke-width="0"/>
  </g>
</svg>