<?xml version="1.0" encoding="UTF-8"?>
<svg id="Layer_2" data-name="Layer 2" xmlns="http://www.w3.org/2000/svg" viewBox="0 0 482 481.82">
  <g id="Layer_1-2" data-name="Layer 1">
    <path d="m451.25,429.94c-3.32,0-6,2.69-6,6v33.88h-16.59v-33.88c0-3.31-2.69-6-6-6h-2.38l16.67-25.38,16.67,25.38h-2.37ZM452.69,0h-31.48c-2.61.65-4.55,3.01-4.55,5.82v33.88h-7.5c-2.2,0-4.23,1.21-5.28,3.15-1.04,1.94-.94,4.3.27,6.14l27.79,42.31c1.11,1.69,2.99,2.7,5.01,2.7s3.91-1.02,5.02-2.71l27.78-42.31c1.22-1.84,1.32-4.2.27-6.14-1.05-1.94-3.07-3.15-5.28-3.15h-7.49V5.82c0-2.82-1.94-5.18-4.55-5.82h0Zm-97.98,0h-31.48c-2.61.65-4.55,3.01-4.55,5.82v33.88h-7.49c-2.21,0-4.23,1.21-5.28,3.15-1.05,1.94-.95,4.3.26,6.14l27.79,42.31c1.11,1.69,3,2.71,5.02,2.71s3.9-1.02,5.01-2.71l27.79-42.31c1.21-1.84,1.31-4.2.26-6.14-1.04-1.94-3.07-3.15-5.28-3.15h-7.49V5.82c0-2.82-1.94-5.18-4.55-5.82h0Zm-97.98,0h-31.48c-2.62.65-4.55,3.01-4.55,5.82v33.88h-7.5c-2.2,0-4.23,1.21-5.28,3.15-1.05,1.94-.94,4.3.27,6.14l27.78,42.31c1.11,1.69,3,2.7,5.02,2.7s3.91-1.02,5.02-2.71l27.78-42.31c1.21-1.84,1.32-4.2.27-6.14-1.05-1.94-3.08-3.15-5.28-3.15h-7.5V5.82c0-2.82-1.93-5.18-4.55-5.82h0Zm-97.97,0h-31.48c-2.61.65-4.55,3.01-4.55,5.82v33.88h-7.49c-2.21,0-4.24,1.21-5.28,3.15-1.05,1.94-.95,4.3.26,6.14l27.79,42.31c1.11,1.69,2.99,2.7,5.01,2.7s3.91-1.02,5.02-2.71l27.79-42.31c1.21-1.84,1.31-4.2.26-6.14-1.05-1.94-3.07-3.15-5.28-3.15h-7.49V5.82c0-2.82-1.94-5.18-4.55-5.82h0ZM60.78,0h-31.48c-2.61.65-4.55,3.01-4.55,5.82v33.88h-7.49c-2.21,0-4.23,1.21-5.28,3.15-1.05,1.94-.95,4.3.26,6.14l27.79,42.31c1.11,1.69,3,2.71,5.02,2.71s3.9-1.02,5.01-2.71l27.79-42.31c1.21-1.84,1.31-4.2.26-6.14-1.04-1.94-3.07-3.15-5.28-3.15h-7.49V5.82c0-2.82-1.94-5.18-4.55-5.82h0Zm381.19,390.34c-1.11-1.69-3-2.71-5.02-2.71s-3.9,1.02-5.01,2.7l-27.79,42.31c-1.21,1.84-1.31,4.2-.27,6.14,1.05,1.94,3.08,3.15,5.28,3.15h7.5v33.88c0,3.32,2.69,6,6,6h28.59c3.31,0,6-2.69,6-6v-33.88h7.49c2.21,0,4.23-1.21,5.28-3.15,1.05-1.94.95-4.3-.27-6.14l-27.78-42.31h0Zm-88.7,39.6c-3.31,0-6,2.69-6,6v33.88h-16.59v-33.88c0-3.31-2.68-6-6-6h-2.37l16.67-25.38,16.67,25.38h-2.38Zm-9.28-39.6c-1.11-1.69-2.99-2.71-5.01-2.71s-3.91,1.02-5.02,2.71l-27.79,42.31c-1.21,1.84-1.31,4.2-.26,6.14,1.05,1.94,3.07,3.15,5.28,3.15h7.49v33.88c0,3.32,2.69,6,6,6h28.59c3.31,0,6-2.69,6-6v-33.88h7.49c2.21,0,4.24-1.21,5.28-3.15,1.05-1.94.95-4.3-.26-6.14l-27.79-42.31h0Zm-88.7,39.6c-3.31,0-6,2.69-6,6v33.88h-16.58v-33.88c0-3.31-2.69-6-6-6h-2.38l16.67-25.38,16.67,25.38h-2.38Zm-9.27-39.6c-1.11-1.69-3-2.71-5.02-2.71s-3.91,1.02-5.02,2.7l-27.78,42.31c-1.21,1.84-1.32,4.2-.27,6.14,1.05,1.94,3.08,3.15,5.28,3.15h7.5v33.88c0,3.32,2.68,6,6,6h28.58c3.32,0,6-2.69,6-6v-33.88h7.5c2.2,0,4.23-1.21,5.28-3.15,1.05-1.94.94-4.3-.27-6.14l-27.78-42.31h0Zm-88.7,39.6c-3.32,0-6,2.69-6,6v33.88h-16.59v-33.88c0-3.31-2.69-6-6-6h-2.38l16.67-25.38,16.67,25.38h-2.37Zm-9.28-39.6c-1.11-1.69-3-2.71-5.02-2.71s-3.9,1.02-5.01,2.7l-27.79,42.31c-1.21,1.84-1.31,4.2-.26,6.14,1.04,1.94,3.07,3.15,5.28,3.15h7.49v33.88c0,3.32,2.69,6,6,6h28.59c3.31,0,6-2.69,6-6v-33.88h7.49c2.21,0,4.23-1.21,5.28-3.15,1.05-1.94.95-4.3-.26-6.14l-27.79-42.31h0Zm-88.7,39.6c-3.31,0-6,2.69-6,6v33.88h-16.59v-33.88c0-3.31-2.68-6-6-6h-2.37l16.67-25.38,16.67,25.38h-2.38Zm-9.28-39.6c-1.11-1.69-2.99-2.71-5.01-2.71s-3.91,1.02-5.02,2.71l-27.79,42.31c-1.21,1.84-1.31,4.2-.26,6.14,1.05,1.94,3.07,3.15,5.28,3.15h7.49v33.88c0,3.32,2.69,6,6,6h28.59c3.31,0,6-2.69,6-6v-33.88h7.49c2.21,0,4.24-1.21,5.28-3.15,1.05-1.94.95-4.3-.26-6.14l-27.79-42.31h0ZM422.66,51.7c3.31,0,6-2.69,6-6V11.82h16.59v33.88c0,3.31,2.68,6,6,6h2.37l-16.67,25.38-16.67-25.38h2.38Zm-97.98,0c3.32,0,6-2.69,6-6V11.82h16.59v33.88c0,3.31,2.69,6,6,6h2.38l-16.67,25.38-16.67-25.38h2.37Zm-97.97,0c3.31,0,6-2.69,6-6V11.82h16.58v33.88c0,3.31,2.69,6,6,6h2.38l-16.67,25.38-16.67-25.38h2.38Zm-97.98,0c3.31,0,6-2.69,6-6V11.82h16.59v33.88c0,3.31,2.68,6,6,6h2.37l-16.67,25.38-16.67-25.38h2.38Zm-97.98,0c3.32,0,6-2.69,6-6V11.82h16.59v33.88c0,3.31,2.69,6,6,6h2.38l-16.67,25.38-16.67-25.38h2.37ZM12,322.05h105.5v38.76H12v-38.76h0Zm458,38.76h-105.5v-38.76h105.5v38.76h0Zm-164.25-38.76h46.75v38.76h-46.75v-38.76h0Zm-129.5,38.76h-46.75v-38.76h46.75v38.76h0Zm12-38.76h105.5v38.76h-105.5v-38.76h0Zm287.75-12H6c-3.31,0-6,2.69-6,6v50.76c0,3.31,2.69,6,6,6h470c3.31,0,6-2.69,6-6v-50.76c0-3.31-2.69-6-6-6h0Zm-111.5-49.84v-38.76h105.5v38.76h-105.5Zm-176.25,0v-38.76h105.5v38.76h-105.5ZM12,221.44h105.5v38.76H12v-38.76h0Zm164.25,0v38.76h-46.75v-38.76h46.75Zm176.25,0v38.76h-46.75v-38.76h46.75Zm123.5-12H6c-3.31,0-6,2.68-6,6v50.76c0,3.32,2.69,6,6,6h470c3.31,0,6-2.69,6-6v-50.76c0-3.32-2.69-6-6-6h0Zm-111.5-49.85v-38.76h105.5v38.76h-105.5Zm-176.25,0v-38.76h105.5v38.76h-105.5ZM12,120.84h105.5v38.76H12v-38.76h0Zm164.25,0v38.76h-46.75v-38.76h46.75Zm176.25,0v38.76h-46.75v-38.76h46.75Zm123.5-12H6c-3.31,0-6,2.69-6,6v50.76c0,3.31,2.69,6,6,6h470c3.31,0,6-2.69,6-6v-50.76c0-3.31-2.69-6-6-6Z" fill-rule="evenodd" stroke-width="0"/>
  </g>
</svg>