<?xml version="1.0" encoding="UTF-8"?>
<svg id="Layer_2" data-name="Layer 2" xmlns="http://www.w3.org/2000/svg" viewBox="0 0 482 482">
  <g id="Layer_1-2" data-name="Layer 1">
    <path d="m470,446.58c0,12.91-10.51,23.42-23.42,23.42h-37.74c-12.91,0-23.42-10.51-23.42-23.42v-29.33c0-12.91,10.51-23.42,23.42-23.42h37.74c12.91,0,23.42,10.51,23.42,23.42v29.33h0Zm-23.42-64.75h-37.74c-19.53,0-35.42,15.89-35.42,35.42v29.33c0,19.53,15.89,35.42,35.42,35.42h37.74c19.53,0,35.42-15.89,35.42-35.42v-29.33c0-19.53-15.89-35.42-35.42-35.42h0Zm-163.29,64.75c0,12.91-10.51,23.42-23.42,23.42h-37.74c-12.91,0-23.42-10.51-23.42-23.42v-29.33c0-12.91,10.51-23.42,23.42-23.42h37.74c12.91,0,23.42,10.51,23.42,23.42v29.33h0Zm-23.42-64.75h-37.74c-19.53,0-35.42,15.89-35.42,35.42v29.33c0,19.53,15.89,35.42,35.42,35.42h37.74c19.53,0,35.42-15.89,35.42-35.42v-29.33c0-19.53-15.89-35.42-35.42-35.42h0Zm-163.29,64.75c0,12.91-10.51,23.42-23.42,23.42h-37.74c-12.91,0-23.42-10.51-23.42-23.42v-29.33c0-12.91,10.51-23.42,23.42-23.42h37.74c12.91,0,23.42,10.51,23.42,23.42v29.33h0Zm-23.42-64.75h-37.74c-19.53,0-35.42,15.89-35.42,35.42v29.33c0,19.53,15.89,35.42,35.42,35.42h37.74c19.53,0,35.42-15.89,35.42-35.42v-29.33c0-19.53-15.89-35.42-35.42-35.42h0ZM219.01,110.8h43.98c-2.44,8.44-11.31,14.27-21.99,20.1-10.68-5.83-19.55-11.66-21.99-20.1h0Zm21.99-32.1c10.68,5.83,19.55,11.67,21.99,20.1h-43.98c2.44-8.43,11.31-14.27,21.99-20.1h0Zm22.77,86.66c-.12,3.31,2.47,6.09,5.78,6.21h.22c3.21,0,5.88-2.54,6-5.78.49-13.43-10.13-21.33-22.3-28.16,11.2-6.79,22.82-16.63,22.17-32.83.65-16.2-10.97-26.03-22.17-32.82,12.17-6.83,22.79-14.73,22.3-28.17-.13-3.31-2.93-5.91-6.22-5.77-3.31.12-5.9,2.9-5.78,6.21.29,7.9-8.81,13.42-22.77,20.84-13.96-7.42-23.06-12.94-22.77-20.84.12-3.31-2.47-6.09-5.78-6.21-3.32-.14-6.09,2.46-6.22,5.77-.49,13.44,10.13,21.34,22.29,28.17-11.19,6.79-22.81,16.62-22.16,32.82-.65,16.2,10.97,26.04,22.16,32.83-12.16,6.83-22.78,14.73-22.29,28.16.12,3.24,2.79,5.78,6,5.78h.22c3.31-.12,5.9-2.9,5.78-6.22-.29-7.89,8.81-13.41,22.77-20.83,13.96,7.42,23.06,12.94,22.77,20.84h0Zm-115.57-60.56c0,51.18,41.63,92.81,92.8,92.81s92.8-41.63,92.8-92.81S292.17,12,241,12s-92.8,41.63-92.8,92.8h0Zm-93.91,250.8c3.31,0,6-2.69,6-6v-67h174.71v67c0,3.31,2.69,6,6,6s6-2.69,6-6v-67h174.71v67c0,3.31,2.69,6,6,6s6-2.69,6-6v-73c0-3.31-2.69-6-6-6h-180.71v-61.17c55.01-3.12,98.8-48.85,98.8-104.63S298.79,0,241,0s-104.8,47.02-104.8,104.8,43.79,101.51,98.8,104.63v61.17H54.29c-3.31,0-6,2.69-6,6v73c0,3.31,2.69,6,6,6Z" fill-rule="evenodd" stroke-width="0"/>
  </g>
</svg>