<?xml version="1.0" encoding="UTF-8"?>
<svg id="Layer_2" data-name="Layer 2" xmlns="http://www.w3.org/2000/svg" viewBox="0 0 482.04 427.96">
  <g id="Layer_1-2" data-name="Layer 1">
    <path d="m185.48,290.76l-20.83-20.84c8.33-4.39,18.05-6.37,28.38-7.56-1.18,10.34-3.19,20.06-7.56,28.41h0Zm20.91-42.91c.78-10.23,1.55-20.19,3.68-29.25l26.75,26.74c-9.07,2.12-19.03,2.88-29.28,3.67-.41.03-.82.07-1.23.1.04-.42.04-.84.08-1.26h0Zm26.95-60.93c-4.12,1.95-7.92,4.44-11.35,7.64-3.23,3.41-5.68,7.23-7.64,11.36l35.12,35.13c4.12-1.94,7.96-4.43,11.35-7.64,3.23-3.42,5.72-7.23,7.68-11.37l-35.16-35.13h0Zm41.94-7.96c.41-.03.86-.07,1.27-.1-.04.42-.08.84-.08,1.26-.82,10.23-1.59,20.19-3.68,29.25l-26.75-26.74c9.07-2.12,18.99-2.88,29.24-3.67h0Zm22.09-41.75l20.83,20.84c-8.37,4.39-18.05,6.37-28.42,7.56,1.23-10.34,3.19-20.06,7.6-28.41h0Zm-160.09,142.62c-1.72,2.83-.82,6.52,2,8.24.98.59,2.04.87,3.1.87,2.04,0,4-1.03,5.15-2.89,2.12-3.52,4.57-6.5,7.19-9.04l23.69,23.65c-2.57,2.65-5.55,5.07-9.07,7.2-2.82,1.72-3.72,5.41-2,8.24,1.1,1.86,3.1,2.9,5.15,2.9,1.06,0,2.12-.29,3.1-.87,22.18-13.45,27.36-34.77,29.65-56.89,1.06-.08,2.12-.17,3.23-.25,21.77-1.67,44.31-3.41,60.73-18.97.08-.07.16-.15.25-.23,15.56-16.42,17.32-38.95,18.95-60.74.12-1.08.2-2.16.24-3.23,22.13-2.3,43.45-7.47,56.93-29.66,1.72-2.83.82-6.53-2.04-8.24-2.82-1.72-6.53-.81-8.25,2.02-2.12,3.52-4.53,6.5-7.19,9.04l-23.65-23.66c2.53-2.65,5.51-5.07,9.03-7.2,2.86-1.72,3.76-5.41,2.04-8.24-1.72-2.83-5.43-3.74-8.25-2.02-22.18,13.45-27.36,34.77-29.65,56.89-1.1.08-2.16.17-3.23.25-21.81,1.68-44.35,3.41-60.77,18.97-.08.07-.16.15-.2.23-15.56,16.42-17.32,38.96-18.99,60.74-.08,1.08-.16,2.16-.24,3.23-22.13,2.29-43.45,7.47-56.89,29.66h0Zm331.69-56.96c-1.96,7.07-6.53,12.95-12.9,16.57-13.19,7.46-30.02,2.8-37.45-10.39-7.47-13.18-2.82-29.98,10.37-37.44,4.21-2.37,8.82-3.58,13.48-3.58,2.49,0,4.94.33,7.39,1.01,7.06,1.96,12.95,6.56,16.58,12.95,3.59,6.39,4.53,13.8,2.53,20.87h0Zm-100.14,176.96c-7.35,13.26-24.14,18.06-37.37,10.71h0c-13.27-7.34-18.05-24.1-10.7-37.35,7.35-13.25,24.09-18.05,37.33-10.71,6.45,3.56,11.07,9.4,13.11,16.46,2,7.05,1.18,14.48-2.37,20.89h0Zm-189.78-2.28c.78-3.12,1.1-6.38,1.06-9.74-.08-4.64-.98-9.08-2.53-13.2h129.54c-2.41,7.59-2.37,15.58-.2,22.94h-127.87Zm-37.94,18.42h-.49c-14.91,0-27.2-12.01-27.44-26.99-.24-15.15,11.84-27.69,26.99-27.95h.49c14.91,0,27.2,12.01,27.44,26.99.29,15.15-11.84,27.68-26.99,27.95h0ZM15.6,225.71c-3.63-6.38-4.53-13.8-2.57-20.87,1.92-7.07,6.53-12.96,12.9-16.58,4.21-2.37,8.82-3.58,13.52-3.58,2.45,0,4.94.33,7.35,1,7.11,1.96,12.99,6.55,16.58,12.93,3.63,6.38,4.53,13.8,2.61,20.87-1.96,7.07-6.58,12.96-12.95,16.58-13.19,7.47-29.98,2.83-37.45-10.35h0ZM119.73,74.74c-3.43-1.99-6.49-4.44-9.07-7.21l-61.42,106.4c.24.07.49.12.78.2,7.35,2.04,13.84,6.1,18.87,11.68l61.63-106.8c-3.72-.87-7.35-2.29-10.78-4.26h0Zm-4.04-47.93c3.68-6.35,9.6-10.9,16.66-12.8,2.41-.63,4.78-.95,7.19-.95,4.74,0,9.43,1.25,13.68,3.7,13.11,7.57,17.64,24.41,10.05,37.53-3.68,6.35-9.6,10.9-16.66,12.8-7.11,1.9-14.5.93-20.87-2.74-13.11-7.58-17.64-24.41-10.05-37.53h0Zm-2.08,332.95c5.59-5.26,12.7-8.91,20.62-10.21l-64.61-111.88c-2.98,3.5-6.53,6.5-10.66,8.83-2.78,1.58-5.68,2.76-8.66,3.61l63.3,109.65h0Zm56.6-294.4c-5.23,6.48-12.33,11.13-20.5,13.32-1.92.51-3.84.86-5.76,1.08l-67.87,117.57c3.27,8.02,3.8,16.85,1.47,25.34-.29,1.02-.61,2.01-.98,3l71.63,124.06c8.78,1.7,16.54,6.34,22.22,12.86h142.98c6.41-8.45,15.8-13.73,25.89-15.17l67.06-116.17c-4.25-9.76-4.25-20.51-.61-29.95l-71.1-123.11c-8.78-1.71-16.54-6.34-22.22-12.85h-142.2Zm133.54-34.95c-.65,2.76-1.02,5.63-1.06,8.58-.04,5.06.86,9.9,2.57,14.37h-128.44c2.57-7.54,2.78-15.53.78-22.95h126.15Zm38.43-18.41h.33c15.15.18,27.32,12.65,27.12,27.8-.16,15.04-12.46,27.14-27.44,27.14h-.33c-15.15-.18-27.32-12.65-27.16-27.8.2-15.04,12.46-27.14,27.48-27.14h0Zm70.61,177.57c2.86-3.28,6.33-6.15,10.29-8.41,2.94-1.65,6-2.91,9.19-3.77l-63.05-109.2c-5.6,5.26-12.7,8.92-20.58,10.22l64.16,111.16h0Zm-48.84,162.41c3.39,1.88,6.41,4.21,9.07,6.89l60.6-104.95c-7.51-1.74-14.46-5.66-19.89-11.46l-60.85,105.39c3.8.79,7.51,2.15,11.07,4.12h0Zm112.96-155.9c-5.23-9.18-13.68-15.78-23.81-18.6-2.57-.71-5.15-1.15-7.72-1.34l-68.28-118.29c2.82-5.36,4.45-11.43,4.53-17.9h0C381.92,18.19,364.4.27,342.67,0c-.16,0-.33,0-.49,0-14.01,0-26.34,7.35-33.36,18.42h-136.65c-3.27-4.81-7.6-8.97-12.95-12.06-9.15-5.28-19.77-6.68-29.98-3.94-10.17,2.73-18.7,9.26-23.97,18.39-6.49,11.24-6.78,24.38-2,35.47l-67.26,116.56c-5.55.49-10.99,2.16-16.01,4.99-9.15,5.2-15.76,13.66-18.58,23.82-2.78,10.16-1.47,20.81,3.72,29.98,6.86,12.1,19.19,19.19,32.14,19.93l68.49,118.55c-3.02,5.69-4.7,12.19-4.57,19.07.41,21.53,18.01,38.78,39.45,38.78h.69c13.8-.24,25.81-7.56,32.71-18.42h138.69c3.31,4.6,7.64,8.57,12.9,11.49h0c6.04,3.35,12.62,4.94,19.07,4.94,13.93,0,27.4-7.34,34.59-20.33,5.15-9.22,6.33-19.88,3.43-30.02-.57-2.02-1.31-3.96-2.16-5.83l66.44-115.07c5.1-.58,10.21-2.16,14.95-4.85h0c9.19-5.19,15.8-13.64,18.62-23.8,2.82-10.16,1.51-20.81-3.68-29.99Z" fill-rule="evenodd" stroke-width="0"/>
  </g>
</svg>