<svg xmlns="http://www.w3.org/2000/svg" xml:space="preserve" viewBox="0 0 24 24"><path d="m2.6 15.2-.1.1-.1-.1c-.5-.5-.9-1.1-1.2-1.6h2.7c-.4.5-.9 1-1.3 1.6m.9 2.9H1.4c.2-.7.6-1.3 1.1-1.9.4.7.8 1.3 1 1.9m.8-6.1c0 .3-.1.6-.2.9H.8c-.1-.3-.2-.6-.2-.9s.1-.6.2-.9h3.3c.1.3.2.6.2.9m-2-3.2.1-.1.1.1c.5.6 1 1.1 1.3 1.7H1.1c.3-.6.8-1.1 1.2-1.7m-.9-2.9h2.1c-.2.7-.6 1.3-1.1 1.9-.4-.6-.8-1.2-1-1.9m1.4 2.3c.9-1.1 1.7-2.3 1.3-3.9 0-.2-.2-.3-.4-.2-.2 0-.3.2-.2.4.1.3.1.5.1.8H1.3c0-.3 0-.5.1-.8 0-.2-.1-.3-.2-.4-.2 0-.4.1-.4.2-.4 1.6.4 2.8 1.3 3.9l-.2.2C1 9.5 0 10.6 0 12s1 2.5 1.9 3.6l.2.2C1.2 16.9.4 18.1.8 19.7c0 .1.2.2.3.2h.1c.2 0 .3-.2.2-.4-.1-.3-.1-.6-.1-.8h2.3c0 .3 0 .5-.1.8 0 .2.1.3.2.4h.1c.1 0 .3-.1.3-.2.4-1.6-.4-2.8-1.3-3.9l.2-.2c.9-1.1 1.8-2.1 1.9-3.6 0-1.4-1-2.5-1.9-3.6zm14.1 6.4H14q-.3 0-.3.3v.5l-2.5-1.7 2.5-1.7v.5q0 .3.3.3h2.9zm.3-2.3h-2.9v-.8c0-.1-.1-.2-.2-.3s-.2 0-.3 0l-3.4 2.2c-.1.1-.1.1-.1.2s.1.2.1.2l3.4 2.2h.3c.1-.1.2-.2.2-.3v-.8h2.9q.3 0 .3-.3v-2.3c0 .2-.2 0-.3 0m-6.9-.4v-.5q0-.3-.3-.3H7.1V9.4H10q.3 0 .3-.3v-.5l2.5 1.7zm3.4-1.6c0-.1-.1-.2-.1-.2l-3.4-2.2q-.15-.15-.3 0c-.1-.1-.2 0-.2.1v.8H6.8q-.3 0-.3.3v2.3q0 .3.3.3h2.9v.8c0 .1.1.2.2.3h.3l3.4-2.2c0-.2.1-.2.1-.3m7.7 4.9c-.5-.5-.9-1.1-1.2-1.6h2.7c-.3.6-.8 1.1-1.2 1.6l-.1.1c-.1 0-.1-.1-.2-.1m1.2 2.9h-2.1c.2-.7.6-1.3 1.1-1.9.4.7.8 1.3 1 1.9m-1.2-9.3.1-.1.1.1c.5.5.9 1.1 1.2 1.6h-2.7c.4-.5.9-1 1.3-1.6m-.9-2.9h2.1c-.2.7-.6 1.3-1.1 1.9-.4-.6-.8-1.2-1-1.9m-.8 6.1c0-.3.1-.6.2-.9h3.3c.1.3.2.6.2.9s-.1.6-.2.9h-3.3c-.1-.2-.2-.6-.2-.9m4.3 0c0-1.4-1-2.5-1.9-3.6l-.2-.2c.9-1.1 1.7-2.3 1.3-3.9 0-.2-.2-.3-.4-.2-.2 0-.3.2-.2.4.1.3.1.6.1.8h-2.3c0-.3 0-.5.1-.8 0-.2-.1-.3-.2-.4-.2 0-.3.1-.4.2-.4 1.6.4 2.8 1.3 3.9l-.2.2c-.9 1.1-1.8 2.1-1.9 3.6 0 1.4 1 2.5 1.9 3.6l.2.2c-.9 1.1-1.7 2.3-1.3 3.9 0 .1.2.2.3.2h.1c.2 0 .3-.2.2-.4-.1-.3-.1-.6-.1-.8h2.3c0 .3 0 .5-.1.8 0 .2.1.3.2.4h.1c.1 0 .3-.1.3-.2.4-1.6-.4-2.8-1.3-3.9l.2-.2C23 14.5 24 13.4 24 12" style="fill-rule:evenodd;clip-rule:evenodd"/></svg>