<svg xmlns="http://www.w3.org/2000/svg" xml:space="preserve" viewBox="0 0 24 24"><path d="M23 21.5c-.3.3-.6.4-1 .4s-.7-.1-1-.4l-3.9-3.9 2-2 3.9 3.9c.5.6.5 1.5 0 2m-7.1-4.6.6.6L19 15l-.6-.6zm-.7-1.5.7.7 1.6-1.6-.7-.7c-.2.3-.5.6-.7.8-.3.3-.6.5-.9.8m-9.6-1.2c2.8 2.8 7.3 2.8 10.1 0 1.3-1.3 2.1-3.1 2.1-5 0-.4 0-.9-.1-1.3l-.8.7c.2 1.8-.4 3.7-1.8 5-1.2 1.2-2.8 1.8-4.4 1.8s-3.2-.6-4.4-1.8c-.8-.8-1.3-1.7-1.6-2.6l-.7.7c.3.9.8 1.8 1.6 2.5m8.2-4c-.4-.4-1-.5-1.6-.4-.2.1-.4.1-.6.3l-2-1.9c.3-.4.4-.9.3-1.4s-.4-.8-.8-1.1c-.4-.2-.9-.3-1.4-.1-.4.1-.8.4-1 .8s-.3.8-.2 1.3c0 .2.1.3.2.5L5 9.8c-.1-1.7.4-3.4 1.6-4.6 2.2-2.2 5.8-2.2 7.9 0 .9.8 1.5 1.9 1.7 3.1zm-1.5.2h.3c.5 0 1 .3 1.1.8.1.3 0 .6-.1.9-.2.3-.4.5-.7.5-.3.1-.6 0-.9-.1-.3-.2-.5-.4-.5-.7-.1-.3 0-.6.1-.9.2-.2.4-.4.7-.5M7.9 6.1h.3c.2 0 .4.1.6.2s.4.3.5.6c.2.6-.2 1.2-.8 1.4s-1.2-.2-1.4-.8c-.1-.3 0-.6.1-.8.2-.3.4-.5.7-.6m8.3 3.1c0 1.5-.6 2.9-1.6 4-2.2 2.2-5.8 2.2-7.9 0Q5.5 12 5.2 10.5l2-1.9c.2.2.6.4 1 .4.1 0 .3 0 .4-.1l.6-.3 2 1.9s0 .1-.1.1c-.2.4-.3.9-.2 1.3s.4.8.8 1.1c.3.2.6.2.9.2.2 0 .3 0 .5-.1.4-.1.8-.4 1.1-.8.2-.4.3-.9.2-1.3 0-.1-.1-.3-.2-.4l2-1.6zm-12.7 0c0-1.9.7-3.7 2.1-5C7 2.7 8.8 2 10.6 2s3.6.7 5 2.1c.9.9 1.5 1.9 1.8 3.1l-.8.6c-.2-1.1-.8-2.2-1.7-3.1-2.4-2.4-6.4-2.4-8.8 0C4.6 6.2 4 8.3 4.4 10.2l-.7.8c-.1-.6-.2-1.2-.2-1.8M2.7 14c-.2.3-.4.5-.7.5-.6.2-1.2-.2-1.4-.8-.1-.3 0-.6.1-.9.2-.3.4-.5.7-.5h.3c.2 0 .4.1.6.2.3.2.5.4.5.7.1.3.1.6-.1.8m16.1-8.8c.2-.2.4-.4.7-.5s.6 0 .9.1c.3.2.5.4.5.7.2.6-.2 1.2-.8 1.4-.3.1-.6 0-.9-.1-.3-.2-.5-.4-.5-.7-.1-.3 0-.6.1-.9m4.6 13.9-3.9-3.9c.1-.1.1-.3 0-.4l-1-1c-.1-.1-.3-.1-.4 0l-.2.2-.8-.8c.8-1.2 1.2-2.6 1.2-4.1 0-.6-.1-1.2-.2-1.7l.5-.4.3.3c.3.2.6.2.9.2.2 0 .3 0 .5-.1.9-.2 1.5-1.2 1.2-2.1-.1-.4-.4-.8-.8-1.1-.4-.2-.9-.3-1.3-.2s-.8.4-1.1.8-.3 1-.2 1.5c0 .1.1.2.1.3l-.2.2c-.4-1.2-1-2.2-1.9-3.1-3-3-7.9-3-10.9 0-1.5 1.5-2.3 3.4-2.3 5.5 0 .8.1 1.5.3 2.3l-.6.5c-.4-.2-.9-.3-1.3-.2s-.8.4-1.1.8c-.2.4-.3.9-.1 1.3.2.8.9 1.3 1.7 1.3.1 0 .3 0 .4-.1.4-.1.8-.4 1-.8s.3-.9.2-1.3c-.1-.2-.2-.5-.3-.6l.3-.3c.4 1 1 1.8 1.7 2.6 1.5 1.5 3.5 2.3 5.5 2.3 1.4 0 2.9-.4 4.1-1.2l.8.8-.2.2c-.1.1-.1.3 0 .4l1 1c.1.1.1.1.2.1s.2 0 .2-.1l3.9 3.9c.4.4.9.6 1.4.6s1.1-.2 1.4-.6c.8-.9.8-2.2 0-3" style="fill-rule:evenodd;clip-rule:evenodd"/></svg>