<svg xmlns="http://www.w3.org/2000/svg" xml:space="preserve" viewBox="0 0 24 24"><path d="M23 23c-.5.5-1.4.5-1.9 0l-3.7-3.7 1.9-1.9 3.7 3.7c.6.5.6 1.4 0 1.9M6.7 0h-.3c-.5.1-.8.4-.8.9H2.4c0-.5-.4-.8-.8-.9h-.3C.9.1.5.4.5.9c0 1.2.2 2.3.7 3.3.3.7.8 1.3 1.4 2l-.3.3C.8 8 0 9.9 0 12s.8 4 2.3 5.5l.3.3c-.6.7-1.1 1.4-1.4 2-.5 1-.7 2.1-.7 3.3 0 .5.4.9.9.9h.1c.5 0 .9-.4.9-.9h3.1c.1.5.5.9 1 .9h.1c.5 0 .9-.4.9-.9.1-2-.6-3.6-2.1-5.3l.3-.3.7-.7c1.4 1.3 3.2 1.9 4.9 1.9 1.4 0 2.7-.4 3.9-1.1l.7.7-.2.2c-.1.1-.1.1-.1.2s0 .2.1.2l.9.9c.1.1.1.1.2.1s.2 0 .2-.1l3.7 3.7c.4.4.9.6 1.4.6s1-.2 1.4-.6c.8-.8.8-2 0-2.7L19.8 17c.1-.1.1-.1.1-.2s0-.2-.1-.2l-.9-.9c-.1-.1-.3-.1-.4 0l-.2.2-.7-.7c1.8-2.8 1.4-6.6-1-9.1-3-2.9-7.7-2.9-10.5-.1l-.5.5c0-.1-.1-.2-.2-.3C7 4.5 7.6 2.9 7.5.9c0-.5-.3-.8-.8-.9m9.6 18.6.5.5 2.3-2.3-.5-.5zm-.6-1.5.6.6 1.5-1.5-.6-.6c-.2.3-.4.5-.7.8s-.5.5-.8.7M6.5 16c2.6 2.6 6.9 2.6 9.6 0 2.6-2.6 2.6-6.9 0-9.6-1.3-1.3-3-2-4.8-2s-3.5.7-4.8 2c-2.6 2.7-2.6 7 0 9.6m-1.2 1-.3.3c-1 1-1.9 1.9-2.5 3q-.6 1.2-.6 2.7 0 .3-.3.3h-.2q-.3 0-.3-.3c-.1-2.2.7-3.8 3-5.9.5-.5 1-1 1.3-1.5.2.2.3.4.5.6-.2.3-.4.6-.6.8m1.6 6.1q0 .3-.3.3h-.1q-.3 0-.3-.3c0-1.1-.2-1.9-.6-2.7-.3-.5-.6-1-1.1-1.6.2-.2.3-.4.5-.5 1.4 1.5 2 2.9 1.9 4.8m-4.2-1.9h2.5c.1.4.2.8.3 1.3h-3c0-.5.1-.9.2-1.3m1.3-2c.4.5.7.9 1 1.4H3c.3-.5.6-1 1-1.4m-1-1.9-.3-.3C1.3 15.6.6 13.9.6 12s.7-3.7 2.1-5c.1-.2.2-.3.3-.4.2.2.4.4.6.5C2 8.7 1.3 10.2 1.4 12c-.1 1.8.6 3.3 2.1 4.8-.1.2-.3.4-.5.5m1.2-8.1H2.7c.3-.5.7-1.1 1.3-1.6l.6.6c-.2.3-.3.7-.4 1m-1.8.6H4c-.1.6-.2 1.2-.1 1.9H2c0-.7.1-1.3.4-1.9m0 4.3c-.3-.6-.4-1.2-.4-1.8h2c.1.6.3 1.3.5 1.9 0-.1-2.1-.1-2.1-.1M4 16.4c-.6-.6-1-1.1-1.3-1.7h2.1c.1.2.2.3.3.5-.3.4-.7.8-1.1 1.2M1.1.9q0-.3.3-.3h.1q.3 0 .3.3c0 1.1.2 1.9.6 2.7.6 1.1 1.5 2 2.5 3l.3.3c-.1.3-.2.5-.3.7l-.8-.8C1.8 4.7 1 3.1 1.1.9M5 3.4c-.3.5-.6.9-1 1.4-.4-.4-.7-.9-1-1.4zm.3-.6H2.7c-.1-.4-.2-.8-.2-1.3h3.1c-.1.5-.2.9-.3 1.3M6.5.6c.3 0 .4.1.4.3.1 1.8-.5 3.3-2 4.9-.2-.2-.3-.4-.5-.6.5-.6.8-1.1 1.1-1.6.4-.8.6-1.6.7-2.7q0-.3.3-.3M15 15c-2.1 2.1-5.5 2.1-7.5 0s-2.1-5.5 0-7.5c1-1 2.4-1.6 3.8-1.6s2.7.5 3.7 1.6c1 1 1.6 2.3 1.6 3.8S16 14 15 15m.5-8c1.1 1.1 1.7 2.6 1.7 4.2s-.6 3.1-1.7 4.2c-1.2 1.2-2.7 1.7-4.2 1.7s-3-.6-4.2-1.7c-2.3-2.3-2.3-6.1 0-8.4s6-2.3 8.4 0" style="fill-rule:evenodd;clip-rule:evenodd"/></svg>