<svg xmlns="http://www.w3.org/2000/svg" xml:space="preserve" viewBox="0 0 24 24"><path d="m18.8 21.9-.9.5-1.1-2 .9-.5c.2-.1.4-.2.6-.2.4 0 .8.2 1 .6.2.6 0 1.3-.5 1.6m-2.3 1.4.9-.5-1.1-2-.9.5c-.5.3-.7 1-.4 1.6.2.5.9.7 1.5.4m.8-3.9L15 20.8c-.8.5-1.1 1.5-.6 2.4.3.6.9.9 1.5.9.3 0 .6-.1.9-.2l2.3-1.3c.4-.2.7-.6.8-1.1.1-.4.1-.9-.2-1.3-.5-.9-1.6-1.2-2.4-.8m5.5.9c-.5.3-1.2.1-1.6-.4l-.4-.9 2-1.1.5.9c.3.5.1 1.2-.5 1.5M20.4 16c-.5.3-.7 1-.4 1.6l.5.9 2-1.1-.5-.9c-.2-.3-.4-.5-.7-.5-.4-.2-.7-.1-.9 0m2 .1c-.2-.4-.6-.7-1.1-.8-.4-.1-.9-.1-1.3.2-.8.5-1 1.5-.6 2.4l1.3 2.3c.3.6.9.9 1.5.9.3 0 .6-.1.9-.2.8-.5 1.1-1.5.6-2.4zm-6.6-.3s-.1 0 0 0c-.8.9-1.9 1.5-3.1 1.6-.6.1-1.1 0-1.7-.1-.1-.5-.3-1-.5-1.5l-.3-.6c.6.3 1.3.4 2.1.4.8-.1 1.5-.4 2.2-1 .6-.7.9-1.4 1-2.2.1-1.3-.4-2.3-1-3.4-.2-.3-.3-.6-.5-1-.6-1.3-.7-2.6-.4-3.9s1-2.4 2-3.2c.3-.3.8-.3 1.1 0l.1.1c.3.3.3.8 0 1.2-.8.8-1.3 1.6-1.5 2.3-.5 1.5.2 2.9 1 4.3.7 1.3 1 2.7.9 4 0 1-.6 2.1-1.4 3m-3.5-6.7 2.6 2.6c-.1-.7-.3-1.3-.6-2-.6-.3-1.2-.6-2-.6m2 4.8c.4-.5.5-.9.6-1.4l-3.4-3.4c-.5.1-.9.3-1.4.6zm-1.8 1c.5-.1.9-.3 1.4-.6l-4.2-4.2c-.4.5-.5.9-.6 1.4zm-2.8-.6c.6.3 1.2.6 2 .6l-2.6-2.6c0 .8.3 1.4.6 2m.6 5.7c.3-1.3.2-2.7-.4-3.9-.2-.3-.3-.7-.5-1-.6-1-1.1-2-1-3.4.1-.8.4-1.5 1-2.2.7-.6 1.4-.9 2.2-1s1.5.1 2.1.4l-.3-.6c-.2-.5-.4-1-.5-1.5-.6-.1-1.2-.1-1.7-.1-1.1.1-2.2.7-3.1 1.6-.9.8-1.5 1.9-1.6 3.1-.1 1.3.2 2.7.9 4 .8 1.4 1.5 2.8 1 4.3-.2.7-.7 1.5-1.5 2.3-.3.3-.3.8 0 1.2l.1.1c.3.3.8.3 1.1 0 1.2-.9 1.9-2.1 2.2-3.3m-6.9-3.4c.3-.2.6-.4.9-.5l3.6 3.6c-.1.3-.3.6-.5.9zM8.1 19 5 15.9c.9-.1 1.8.2 2.5.6.4.9.7 1.7.6 2.5m-6-2.1c-.3.3-.8.3-1.2 0l-.1-.1c-.3-.3-.3-.8 0-1.1.9-1 2-1.7 3.2-2 .7-.2 1.5-.2 2.2-.1.2.8.5 1.5.8 2.1-.8-.3-1.7-.5-2.7-.2-.7.2-1.4.7-2.2 1.4m18.5-9.5-4-4c-.2.3-.4.6-.5.9l3.6 3.6c.3-.1.6-.2.9-.5M15.9 5c-.1.8.2 1.7.6 2.5.7.4 1.6.7 2.5.6zM22 7.1c-.8.8-1.6 1.3-2.3 1.5-1 .3-1.9.1-2.7-.2.3.5.6 1.2.8 2.1.7.1 1.5.1 2.2-.1 1.3-.3 2.4-1 3.2-2 .3-.3.3-.8-.1-1.1l-.1-.1c-.2-.4-.7-.4-1-.1m-5.8 9.1c1-.9 1.6-2.2 1.8-3.4.1-.6 0-1.2 0-1.7h.7c.5 0 1.1-.1 1.6-.2 1.4-.3 2.6-1.1 3.5-2.2.5-.6.4-1.4-.1-1.9l-.1-.1c-.5-.5-1.4-.6-2 0-.2.1-.3.3-.5.4L17 2.9c.1-.2.3-.3.4-.5.5-.6.5-1.4 0-2l-.1-.1c-.5-.5-1.4-.6-1.9-.1-1.1.9-1.9 2.2-2.2 3.5-.2.7-.2 1.5-.2 2.2-.6-.1-1.1-.1-1.7 0-1.3.3-2.6 1-3.5 1.9-1 .9-1.6 2.2-1.8 3.4-.1.6 0 1.2 0 1.7-.7-.1-1.5 0-2.2.2-1.4.3-2.6 1.1-3.5 2.2-.5.6-.4 1.4.1 1.9l.1.1c.3.3.6.4 1 .4.3 0 .7-.1 1-.4.2-.1.3-.3.5-.4L7.1 21c-.1.2-.3.3-.4.5-.5.6-.5 1.4 0 2l.1.1c.2.3.6.4.9.4q.45 0 .9-.3c1.1-.9 1.9-2.2 2.2-3.5.2-.7.2-1.5.2-2.2.3 0 .7.1 1 .1h.7c1.3-.3 2.6-.9 3.5-1.9" style="fill-rule:evenodd;clip-rule:evenodd"/></svg>