<svg xmlns="http://www.w3.org/2000/svg" xml:space="preserve" viewBox="0 0 24 24"><path d="M21.4 15.3v1.8c0 1-.8 1.7-1.7 1.7h-4.9l.8.8c.1.1.1.3 0 .4s-.1.1-.2.1-.2 0-.2-.1l-1.3-1.3c-.1-.1-.1-.3 0-.4l1.3-1.3c.1-.1.3-.1.4 0s.1.3 0 .4l-.8.8h4.9c.6 0 1.1-.5 1.1-1.1v-1.8q0-.3.3-.3c.2 0 .3.2.3.3M18.6 0h-.3c-.3 0-.5.2-.6.4-.5.7-.8 1.6-.8 2.4 0 .4.1.8.2 1.2-.3 0-.6.1-.8.2-.7.3-1.4.9-1.7 1.6-.4.7-.6 1.5-.5 2.3 0 .3.1.6.2.8-.4.1-.8.2-1.1.4-.8.4-1.4 1.1-1.7 1.9-.2.5 0 1 .4 1.2.2.1.3.1.5.1.3 0 .6-.2.8-.5 0-.1.1-.1.1-.2l2.8 1.6c0 .1-.1.1-.1.2-.2.5-.1 1 .4 1.3.2.1.3.1.5.1.3 0 .6-.1.8-.4.5-.7.8-1.6.8-2.4 0-.4-.1-.8-.2-1.2.3 0 .6-.1.8-.2.7-.3 1.4-.9 1.7-1.6.4-.7.6-1.5.5-2.3 0-.3-.1-.6-.2-.8.4-.1.8-.2 1.1-.4.8-.4 1.4-1.1 1.7-1.9.2-.5 0-1-.4-1.2-.5-.3-1-.1-1.3.3 0 .1-.1.1-.1.2l-2.8-1.6c0-.1.1-.1.1-.2.2-.5.1-1-.4-1.3-.1.1-.3 0-.4 0m-8.4 5.2c.1.1.1.3 0 .4L8.8 6.9c0 .1-.1.1-.2.1s-.1 0-.2-.1-.1-.3 0-.4l.8-.8H4.3c-.6 0-1.1.5-1.1 1.1v1.8c0 .2-.2.4-.3.4-.2 0-.3-.2-.3-.3V6.9c0-1 .8-1.7 1.7-1.7h4.9l-.8-.9c-.1-.1-.1-.3 0-.4s.3-.1.4 0zM7.5 21.8l-.9 1.6H4.8l-.9-1.6.9-1.6h1.8zM.6 20l.9 1.6h1.8l1-1.6-.9-1.6H1.5zm.9-5.3h1.8l.9 1.6-.9 1.6H1.5l-.9-1.6zm3.3-1.9-.9 1.6.9 1.6h1.8l.9-1.6-.9-1.6zm0 3.7h2c.1 0 .2-.1.3-.1l1.1-1.9q.15-.15 0-.3L7 12.4c-.1-.1-.2-.1-.3-.1H4.6c-.1 0-.2.1-.3.1l-1 1.7h-2c-.1 0-.2.1-.3.1l-1 1.9v.3l1 1.7-1 1.7v.3L1.1 22c.1.1.2.1.3.1h2l1 1.7c0 .1.1.2.2.2h2.2c.1 0 .2-.1.2-.1L8.1 22q.15-.15 0-.3L7 19.8c-.1-.1-.2-.1-.3-.1h-2l-.9-1.6zM23.4 3.7c-.4.7-.9 1.3-1.5 1.7-.3.2-.7.3-1.1.4-.2-.3-.4-.6-.6-.8.4 0 .9-.1 1.3-.3.5-.3.8-.7 1.2-1.3.1-.2.3-.2.5-.1s.2.3.2.4m-3.1 5.4c-.3.6-.9 1.1-1.5 1.3-.3.1-.6.2-.9.2-.1-.2-.3-.5-.5-.7l-.1-.1c.3 0 .7 0 1-.1.5-.2.8-.5 1.2-1 .3-.5.3-1 .2-1.5-.2-.8-.6-1.3-1.1-1.8-.1-.2-.3-.3-.4-.5-.5-.6-.8-1.3-.8-2.1 0-.7.2-1.5.7-2.1.1-.2.3-.2.5-.1s.2.3.1.5c-.3.6-.5 1.1-.5 1.6 0 1.1.7 1.9 1.3 2.4.6.6 1 1.3 1.1 2.1.2.7 0 1.4-.3 1.9M17.8 6c.3 0 .5 0 .8.1.2.2.3.4.5.6zm.6 3.1L16 7.7c0-.2 0-.4.1-.6l2.8 1.6c-.2.2-.3.3-.5.4m-1.5-2.9 2.4 1.4c0 .2 0 .4-.1.6l-2.8-1.6c.2-.2.3-.3.5-.4m-.1 3c-.2-.2-.3-.4-.5-.6l1.2.7c-.2 0-.5-.1-.7-.1m.3 5.3c-.1.2-.3.2-.5.1s-.2-.3-.1-.5c.3-.6.5-1.1.5-1.6 0-1.1-.7-1.9-1.3-2.4-.6-.6-1-1.3-1.1-2.1-.1-.6.1-1.3.4-1.9s.8-1.1 1.4-1.3c.3-.1.6-.2.9-.2.1.2.3.5.5.7l.1.1c-.3 0-.7 0-1 .1-.5.2-.8.5-1.2 1-.3.5-.3 1-.2 1.5.2.8.6 1.3 1.1 1.8.1.2.3.3.4.5.5.6.8 1.3.8 2.1s-.2 1.5-.7 2.1m-3.4-3 .3-.3 2.5 1.4c0 .1 0 .2-.1.4zm2-.5c.3.3.5.6.6 1l-1.7-1c.3-.1.7-.1 1.1 0m-3.1.9c-.1.2-.3.2-.5.1s-.2-.3-.1-.5c.3-.7.8-1.2 1.5-1.6.3-.2.7-.3 1.1-.4.2.3.4.6.6.8-.4 0-.9.1-1.3.3-.5.3-.9.7-1.3 1.3m7-7.6c-.3-.3-.5-.6-.6-1l1.7 1c-.3.1-.6.1-1.1 0m2.1-.6-.3.3L19 2.6c0-.1 0-.2.1-.4z" style="fill-rule:evenodd;clip-rule:evenodd"/></svg>