<svg xmlns="http://www.w3.org/2000/svg" xml:space="preserve" viewBox="0 0 24 24"><path d="M22.1 13.2c-.7 0-1.3-.6-1.3-1.3s.6-1.3 1.3-1.3 1.3.6 1.3 1.3-.6 1.3-1.3 1.3M16.6 0h-2.3c-.1 0-.1 0-.2.1s-.1.2-.1.2c.1.8.1 1.4-.1 1.9h-4c-.2-.5-.2-1.1-.1-1.9 0-.1 0-.2-.1-.2 0-.1-.1-.1-.1-.1H7.3c-.1 0-.2.1-.2.3 0 1.7.1 2.6.5 3.4s1 1.4 1.8 2.3c.2.2.3.3.4.5H6.4c-.1-1-.9-1.6-1.8-1.6-1 0-1.8.8-1.8 1.8s.8 1.8 1.8 1.8c.9 0 1.7-.7 1.8-1.5h3.3c-.3.4-.6.6-.7.8-1.1 1.1-1.8 2.4-1.9 3.9H3.7c-.1-.9-.9-1.5-1.8-1.5C.8 10.1 0 11 0 12s.8 1.8 1.8 1.8c.9 0 1.7-.7 1.8-1.5H7c.1 1.5.7 2.9 1.9 3.9l.8.8H6.4c-.1-.9-.9-1.5-1.8-1.5-1 0-1.8.8-1.8 1.8s.8 1.8 1.8 1.8c.9 0 1.7-.7 1.8-1.5h3.4c-.1.1-.3.3-.4.5-.8.9-1.4 1.5-1.8 2.3-.3.8-.5 1.7-.5 3.4 0 .1 0 .2.1.2h2.3c.1 0 .2 0 .2-.1s.1-.2.1-.2c-.1-.8-.1-1.4.1-1.9H14c.2.5.2 1.1.1 1.9 0 .1 0 .2.1.2.1.1.1.1.2.1h2.1c.1 0 .2 0 .2-.1.1-.1.1-.1.1-.2 0-1.7-.1-2.6-.5-3.4s-1-1.4-1.8-2.3c-.2-.2-.3-.3-.4-.5h3.4c.1.9.9 1.5 1.8 1.5 1 0 1.8-.8 1.8-1.8s-.8-1.8-1.8-1.8c-.9 0-1.7.7-1.8 1.5h-3.3c.4-.4.7-.6.8-.8 1.1-1.1 1.8-2.4 1.9-3.9h3.4c.1.9.9 1.5 1.8 1.5 1 0 1.8-.8 1.8-1.8s-.8-1.8-1.8-1.8c-.9 0-1.7.7-1.8 1.5h-3.4c-.1-1.5-.7-2.9-1.9-3.9l-.8-.8h3.3c.1.9.9 1.5 1.8 1.5 1 0 1.8-.8 1.8-1.8s-.8-1.8-1.8-1.8c-.9 0-1.7.7-1.8 1.5h-3.4c.1-.1.3-.3.4-.5.8-.9 1.4-1.5 1.8-2.3.3-.8.5-1.7.5-3.4.1 0 0-.1-.2-.1m-2 15.8c-.2.1-.6.5-1.1 1.1-.4-.4-.7-.7-1-1.1l.2-.2c1.5-1.2 2.2-2.4 2.2-3.6s-.7-2.4-2.2-3.6c-.7-.6-1.2-1.1-1.9-1.8-.3-.3-.6-.6-.9-1-1.7-1.8-2.2-2.2-2.2-5h1.5c-.1.9 0 2 .8 3 1 1.2 4 4.1 4.6 4.7 1.1 1 1.7 2.4 1.7 3.8s-.6 2.7-1.7 3.7m-4.4-5.3c.3-.5.8-1.1 1.5-1.7.1-.1.2-.1.3-.2.1.1.2.1.3.2.7.6 1.2 1.1 1.5 1.7zm4 1.5c0 .3-.1.6-.2.9H9.9c-.1-.3-.2-.6-.2-.9s.1-.6.2-.9H14c.2.3.2.6.2.9M12 15.4c-.1-.1-.2-.1-.3-.2-.7-.6-1.2-1.1-1.5-1.7h3.5c-.3.5-.8 1.1-1.5 1.7zm4.3 8h-1.5c.1-.9 0-2-.8-3-1-1.2-4-4.1-4.6-4.7-1.1-1-1.7-2.4-1.7-3.8s.6-2.8 1.7-3.8c.2-.1.6-.5 1.1-1.1.4.4.7.7 1 1.1l-.2.2C9.9 9.6 9.1 10.8 9.1 12s.7 2.4 2.2 3.6c.7.6 1.2 1.1 1.9 1.8.3.3.6.6.9 1 1.7 1.7 2.1 2.2 2.2 5m-6.1-2.2.3-.3c.3-.4.8-.9 1.5-1.6.6.6 1.2 1.2 1.5 1.6l.3.3zm-1 2.2H7.7c0-2.8.5-3.2 2.1-4.9.3-.3.5-.5.7-.8l1.1 1.1c-.7.7-1.2 1.3-1.6 1.7-.8.9-.9 2-.8 2.9m4.6-20.6-.3.3c-.3.4-.8.9-1.5 1.6-.6-.6-1.2-1.2-1.5-1.6l-.3-.3zm1-2.2h1.5c0 2.8-.5 3.2-2.1 4.9-.3.3-.5.5-.7.8l-1.1-1.1c.7-.7 1.2-1.3 1.6-1.7.8-.9.9-2 .8-2.9M19.4 16c.7 0 1.2.6 1.2 1.3s-.6 1.3-1.2 1.3c-.7 0-1.3-.6-1.3-1.3s.6-1.3 1.3-1.3M4.6 18.5c-.7 0-1.3-.6-1.3-1.3s.6-1.3 1.3-1.3 1.3.6 1.3 1.3c0 .8-.6 1.3-1.3 1.3m-2.8-5.3c-.7 0-1.3-.6-1.3-1.3s.6-1.3 1.3-1.3 1.3.6 1.3 1.3-.6 1.3-1.3 1.3M4.6 8c-.7 0-1.2-.6-1.2-1.3S4 5.4 4.7 5.4s1.2.6 1.2 1.3S5.3 8 4.6 8m14.8-2.6c.7 0 1.2.6 1.2 1.3S20.1 8 19.4 8s-1.3-.6-1.3-1.3.6-1.3 1.3-1.3" style="fill-rule:evenodd;clip-rule:evenodd"/></svg>