<svg xmlns="http://www.w3.org/2000/svg" xml:space="preserve" viewBox="0 0 24 24"><path d="M12 6.7q0-.3.3-.3h5.4q.3 0 .3.3c0 .3-.2.3-.3.3h-5.4q-.3 0-.3-.3m8.7 7.1q0 .3-.3.3h-8.1q-.3 0-.3-.3t.3-.3h8.1c.1 0 .3.2.3.3m0-1.7q0 .3-.3.3h-8.1q-.3 0-.3-.3t.3-.3h8.1c.1 0 .3.1.3.3m0-1.8q0 .3-.3.3h-8.1q-.3 0-.3-.3t.3-.3h8.1c.1 0 .3.1.3.3m0-1.8q0 .3-.3.3h-8.1q-.3 0-.3-.3c0-.3.1-.3.3-.3h8.1c.1 0 .3.2.3.3m-8.9 9.9h1v2.5h-1zm3.1-2.4h1v4.9h-1zm3.2 1.6h1v3.3h-1zm2.3 3.3h-.7v-3.6q0-.3-.3-.3h-1.6q-.3 0-.3.3v3.6h-1v-5.2q0-.3-.3-.3h-1.6q-.3 0-.3.3v5.2h-1v-2.8q0-.3-.3-.3h-1.6q-.3 0-.3.3v2.8h-.7q-.3 0-.3.3t.3.3h9.9q.3 0 .3-.3c.1-.2-.1-.3-.2-.3m-13-5.6c-.1.1-.3.2-.5.5-.1-.1-.2-.2-.3-.4.6-.5 1.3-1.2 1.2-2 .1-.8-.6-1.6-1.2-2-.4-.3-.6-.6-1-1-.2-.1-.4-.3-.6-.5-.8-.8-1-1.1-1-2.3h.5c0 .5.1 1 .5 1.5.6.7 2.2 2.2 2.4 2.5.4.4.9 1.2.8 1.9.1.6-.4 1.4-.8 1.8m-2-2.8h1.4l-.6-.6c-.4.2-.6.4-.8.6m1.7.9v-.3h-2v.7h2zm-1 1.6q.45-.3.6-.6H5.4c.2.2.4.4.7.6-.1 0 0 0 0 0m2.1 4.3c0-1.3-.2-1.5-1.1-2.4l-.5-.5c-.4-.4-.6-.7-1-1-.6-.5-1.3-1.2-1.2-2-.1-.8.6-1.5 1.2-2-.1-.1-.2-.2-.3-.4l-.5.5c-.4.4-.9 1.2-.8 1.9-.1.7.4 1.5.8 1.9.3.2 1.9 1.8 2.4 2.5.4.5.5 1 .5 1.5zm-1.5-1.2H5.4c.1-.2.4-.4.7-.7.2.3.5.5.6.7m-2.3 1.2H4c0-1.3.2-1.5 1-2.4l.3-.3.4.4c-.3.3-.6.6-.7.8-.5.5-.6 1-.6 1.5m1-10.6.7.7.7-.7zm2.3-1.1c0 .5-.1 1-.5 1.5-.1.1-.4.4-.7.8l.4.4c0-.2.1-.3.2-.4.8-.8 1-1.1 1.1-2.4zm.1 3.5c-.1-.1-.3-.2-.5-.5l.3-.3c1-1 1.2-1.3 1.2-3.1 0-.1-.1-.2-.3-.2H7.4c-.1 0-.2 0-.2.1-.1 0-.1.1-.1.2v.8h-2c-.1-.2-.1-.5 0-.8 0-.1 0-.2-.1-.2-.1-.1-.1-.1-.2-.1H3.7q-.3 0-.3.3c0 1.7.3 2.1 1.2 3.1l.3.3-.5.5c-.6.5-1.1 1.4-1 2.3-.1.9.5 1.8 1 2.3.1.1.3.2.5.5l-.3.3c-1 1-1.2 1.3-1.2 3.1 0 .1 0 .2.1.2.1.1.1.1.2.1h1.1c.1 0 .2 0 .2-.1.1-.1.1-.2.1-.2v-.8h2c.1.2.1.5 0 .8 0 .1 0 .2.1.2.1.1.1.1.2.1h1.1c.1 0 .2 0 .2-.1.1-.1.1-.1.1-.2 0-1.7-.3-2.1-1.2-3.1l-.3-.3.5-.5c.6-.5 1.1-1.4 1-2.3.1-1-.5-1.9-1-2.4m15.6-6.8c0 .3-.2.5-.5.5H1.1c-.2 0-.5-.2-.5-.5v-.9c0-.2.2-.4.5-.4H23c.3 0 .5.2.5.5zm-1.7 18.3c.5 0 .9-.4.9-.9V5.3H1.4v16.4c0 .5.4.9.9.9zM8.9 1.5c0-.1.1-.2.2-.2h5.6c.1 0 .2.1.2.2l.3.9H8.7zm14.1.9h-7l-.3-1c-.1-.4-.4-.6-.8-.6H9.2c-.4 0-.7.2-.8.6l-.4 1H1c-.5 0-1 .5-1 1v.8c0 .5.3.9.8 1v16.4c0 .9.7 1.5 1.5 1.5h19.3c.8 0 1.5-.7 1.5-1.5V5.3c.5-.1.8-.5.8-1v-.9c.1-.5-.4-1-.9-1" style="fill-rule:evenodd;clip-rule:evenodd"/></svg>