<svg xmlns="http://www.w3.org/2000/svg" xml:space="preserve" viewBox="0 0 24 24"><path d="M13.2 13q-.3 0-.3-.3c0-.3.1-.3.3-.3q.3 0 .3.3c0 .3-.1.3-.3.3m-1.9-2.2c0 .3-.2.5-.5.5H6.3c-.3 0-.5-.2-.5-.5V6.3c0-.3.2-.5.5-.5h4.4c.3 0 .5.2.5.5v4.5zM3.9 13q-.3 0-.3-.3c0-.3.1-.3.3-.3s.3.1.3.3-.2.3-.3.3m0-8.9q.3 0 .3.3c0 .3-.2.2-.3.2s-.3-.1-.3-.3.1-.2.3-.2m9.3 0q.3 0 .3.3c0 .3-.1.3-.3.3q-.3 0-.3-.3c0-.3.2-.3.3-.3m-.3 2.7c.3 0 .6-.3.6-.6v-1c.3-.1.6-.4.6-.8 0-.5-.4-.9-.9-.9s-.9.4-.9.9c0 .4.2.7.6.8v1h-1c-.1-.5-.5-.9-1.1-.9H6.3c-.6 0-1 .4-1.1.9h-1v-1c.3-.2.6-.5.6-.9 0-.5-.4-.9-.9-.9s-.9.4-.9.9c0 .4.3.7.6.8v1c0 .3.3.6.6.6h1v3.6h-1c-.3 0-.6.3-.6.6v1c-.3.2-.6.5-.6.9 0 .5.4.9.9.9s.9-.4.9-.9c0-.4-.2-.7-.6-.8v-1h1c.1.5.5.9 1.1.9h4.4c.6 0 1-.4 1.1-.9h1v1c-.3.1-.6.4-.6.8 0 .5.4.9.9.9s.9-.4.9-.9c0-.4-.2-.7-.6-.8v-1c0-.3-.3-.6-.6-.6h-1V6.8zm-2.7 3.3V7H7v3.1zc-.1 0 0 0 0 0m-.1-3.7H7q-.6 0-.6.6v3.1c0 .4.3.6.6.6h3.1c.4 0 .6-.3.6-.6V7q0-.6-.6-.6m12.7 16.3c-.5.5-1 .7-1.6.7s-1.1-.3-1.4-.7l-4.4-5.2 2-2 5.2 4.4c.4.4.7.9.7 1.4.1.5-.1 1-.5 1.4m-8.7-7.6 1.5 1.5.9-.9-1.5-1.5c-.1.2-.3.3-.5.5zm-11.2-.9c3.1 3.1 8.2 3.1 11.3 0s3.1-8.2 0-11.3C12.7 1.3 10.6.6 8.6.6s-4.1.8-5.7 2.3C-.2 6-.2 11.1 2.9 14.2m21.1 7c0-.7-.3-1.4-.9-1.9l-5.4-4.6c-.1-.1-.3-.1-.4 0l-.3.3-1.5-1.5c2.5-3.3 2.2-8.1-.8-11.1-3.3-3.3-8.8-3.3-12.1 0s-3.3 8.8 0 12.1C4.3 16.2 6.5 17 8.7 17c1.8 0 3.6-.6 5.1-1.7l1.5 1.5-.3.3c-.1.1-.1.3 0 .4l4.6 5.4c.5.6 1.1.9 1.9.9h.1c.7 0 1.3-.3 1.8-.8l.1-.1c.3-.3.5-.9.5-1.7" style="fill-rule:evenodd;clip-rule:evenodd"/></svg>