<svg xmlns="http://www.w3.org/2000/svg" xml:space="preserve" viewBox="0 0 24 24"><path d="M3.5 13.4q0-.3.3-.3c4.4-.3 6.3-2.8 8-5.2 1.8-2.5 3.7-5 8.4-5.3.1 0 .1 0 .2.1s.1.1.1.2q0 .3-.3.3c-4.4.3-6.3 2.8-8 5.2-1.8 2.5-3.7 5-8.4 5.3-.1 0-.2 0-.2-.1-.1 0-.1-.1-.1-.2M22.2 0H1.8C.8.1 0 .9 0 2v15.4c0 1.1.9 2 2 2h7.3v2.1l-1.2.5s-.1 0-.1.1c-.3.2-.8.4-.8.9s.5 1 1 1h7.5c.6 0 1-.5 1-1s-.4-.8-.8-.9c0 0-.1 0-.1-.1l-1.2-.6v-2.1H22c1.1 0 2-.9 2-2V2c0-1.1-.8-1.9-1.8-2M5.1 10.3v2c.4-.1.7-.2 1.1-.3V7.5c-.4-.1-.8-.5-.8-1s.3-.9.8-1.1V4.2c-.3-.1-.7-.2-1.1-.3v4.3c.5.1.8.6.8 1.1s-.3.9-.8 1m-.8-1c0 .3.2.5.5.5s.5-.2.5-.5-.2-.5-.5-.5-.5.2-.5.5m5.8-2.1v1.9c.3-.3.5-.6.7-.9-.2-.4-.4-.7-.7-1M8.5 10v.8c.4-.3.7-.6 1.1-1V6.5c-.3-.4-.7-.7-1.1-1v2.4c.5.1.8.5.8 1s-.3 1-.8 1.1m-.3-.6c.3 0 .5-.2.5-.5s-.2-.5-.5-.5-.5.2-.5.5.2.5.5.5M6.8 7.5v4.3c.4-.2.7-.4 1.1-.6V10c-.5-.1-.8-.6-.8-1.1s.3-.9.8-1V5.1c-.3-.3-.7-.5-1.1-.6v.9c.5.1.8.6.8 1.1s-.3.9-.8 1m-.3-1.6c-.3 0-.5.3-.5.6 0 .2.2.5.5.5s.5-.3.5-.5-.2-.6-.5-.6m-3-3q0 .3.3.3c1.9.1 3.4.6 4.8 1.6 1.1.8 1.9 1.8 2.7 2.8l.1-.1c.1-.1.2-.3.3-.4C9.9 4.8 8 2.8 3.8 2.5c-.1 0-.2 0-.2.1-.1.1-.1.1-.1.3m15.4 5.3V3.9c-.4.1-.7.2-1.1.3v1.1c.5.1.8.6.8 1.1s-.3.9-.8 1.1V12c.3.1.7.2 1.1.3v-2c-.5-.1-.8-.6-.8-1.1s.3-.9.8-1m.8 1.1c0-.3-.2-.5-.5-.5s-.5.2-.5.5.2.5.5.5c.2 0 .5-.3.5-.5m-5.8-.2V7.2c-.2.3-.5.6-.7.9.2.3.4.7.7 1m1.6-1.2V5.5c-.4.3-.7.6-1.1 1v3.3c.3.4.7.7 1.1 1V10c-.5-.1-.8-.6-.8-1.1s.3-.9.8-1m.3.5c-.3 0-.5.2-.5.5s.2.5.5.5.5-.2.5-.5-.2-.5-.5-.5m1.4-3v-.9c-.4.2-.7.4-1.1.6v2.8c.5.1.8.6.8 1.1s-.3.9-.8 1.1v1.2c.3.2.7.4 1.1.6V7.5c-.5-.1-.8-.6-.8-1.1s.3-.9.8-1m.3 1.6c.3 0 .5-.3.5-.5s-.2-.5-.5-.5-.5.2-.5.5c0 .2.2.5.5.5m3 6.4q0-.3-.3-.3c-1.9-.1-3.4-.6-4.8-1.6-1.1-.8-1.9-1.8-2.7-2.8l-.1.1c-.1.1-.2.3-.3.4 1.7 2.3 3.6 4.3 7.8 4.6.1 0 .2 0 .2-.1.2-.1.2-.2.2-.3m-16.7.9c4.5-.3 6.5-2.4 8.2-4.7.8 1 1.7 2.1 2.9 2.9 1.5 1 3.2 1.6 5.3 1.7h.1c.2 0 .4-.1.6-.2.2-.2.3-.4.3-.7 0-.5-.4-.9-.8-.9-.3 0-.5 0-.8-.1v-2.1c.5-.1.8-.6.8-1.1s-.3-.9-.8-1.1V3.9c.3 0 .5-.1.8-.1.5 0 .8-.4.8-.9 0-.3-.1-.5-.3-.7s-.4-.3-.7-.2c-4.4.3-6.4 2.4-8.2 4.7-.8-1-1.7-2.1-2.9-2.9-1.5-1-3.2-1.6-5.3-1.7-.2-.2-.4-.1-.6.1q-.3.3-.3.6c0 .5.4.9.8.9.3 0 .5 0 .8.1v4.4c-.4.1-.8.6-.8 1.1s.3.9.8 1.1v2.1c-.3 0-.5.1-.8.1-.5 0-.8.4-.8.9 0 .3.1.5.3.7.1 0 .4.1.6.1M22 18.7H2c-.8 0-1.4-.6-1.4-1.4v-1.1h22.8v1.1c0 .8-.6 1.4-1.4 1.4m-7.7 3.2 1.3.7s.1 0 .1.1c.3.2.4.2.4.4s-.2.4-.4.4H8.3c-.2 0-.4-.2-.4-.4 0-.1.1-.2.4-.4 0 0 .1 0 .1-.1l1.3-.7c.1-.1.2-.2.2-.3v-2.3h4.2v2.3c0 .1.1.2.2.3M2 .6C1.2.6.6 1.2.6 2v13.7h22.8V2c0-.8-.6-1.4-1.4-1.4z" style="fill-rule:evenodd;clip-rule:evenodd"/></svg>