<svg xmlns="http://www.w3.org/2000/svg" xml:space="preserve" viewBox="0 0 24 24"><path d="M19.8 14.4c-1.4 0-2.5-1.1-2.5-2.5s1.1-2.5 2.5-2.5 2.5 1.1 2.5 2.5-1.2 2.5-2.5 2.5M6.5 0h-.4C4.8.1 3.7 1.2 3.7 2.6s1.2 2.6 2.6 2.6h.5L9 12.4c-1.3.5-2.2 1.7-2.3 3.1H4.2c-.1-.7-.8-1.2-1.5-1.2-.8 0-1.5.7-1.5 1.5s.7 1.5 1.5 1.5c.7 0 1.4-.5 1.5-1.2h2.5c.1.7.3 1.3.7 1.9l-2.8 2.4c-.4-.3-.8-.5-1.3-.5-1.1 0-2 .9-2 2s.9 2 2 2 2-.9 2-2c0-.4-.1-.8-.3-1.1l2.8-2.4c.7.6 1.6 1 2.5 1q1.35 0 2.4-.9l2.1 2.1c-.3.3-.4.8-.4 1.2 0 1.1.9 2 2 2s2-.9 2-2-.9-2-2-2c-.5 0-.9.1-1.2.4l-2.1-2.1c.5-.6.9-1.5.9-2.4 0-.4-.1-.8-.2-1.1l3.2-1.3c.5 1 1.6 1.6 2.7 1.6 1.7 0 3.1-1.4 3.1-3.1s-1.4-3.1-3.1-3.1-3.1 1.4-3.1 3.1c0 .3 0 .6.1.9L13.5 14c-.6-1.2-1.8-2-3.2-2-.3 0-.5 0-.8.1L7.4 5C8.3 4.6 9 3.7 9 2.6 9 1.2 7.9.1 6.5 0m3.8 18.8c-1.7 0-3.1-1.4-3.1-3.1s1.4-3.1 3.1-3.1 3.1 1.4 3.1 3.1-1.4 3.1-3.1 3.1m7.6 3.1c0 .8-.6 1.4-1.4 1.4s-1.4-.6-1.4-1.4.6-1.4 1.4-1.4 1.4.6 1.4 1.4M3.2 23.4c-.8 0-1.4-.6-1.4-1.4s.6-1.4 1.4-1.4 1.4.6 1.4 1.4-.6 1.4-1.4 1.4m-.5-6.6c-.5 0-.9-.4-.9-.9s.4-.9.9-.9.9.4.9.9-.4.9-.9.9M4.3 2.6c0-1.1.9-2 2-2s2 .9 2 2-.9 2-2 2-2-.9-2-2" style="fill-rule:evenodd;clip-rule:evenodd"/></svg>