<svg xmlns="http://www.w3.org/2000/svg" xml:space="preserve" viewBox="0 0 24 24"><path d="M16.1 21.1c.2.4.1.9-.2 1.1-.4.2-.9.1-1.1-.4-.1-.2-.2-.4-.1-.6 0-.2.2-.4.3-.5.3-.2.8 0 1.1.4m-1.4-.9q-.45.3-.6.9c-.1.4 0 .7.2 1.1.3.5.8.7 1.3.7.2 0 .4-.1.7-.2.7-.4.9-1.2.5-1.9-.6-.7-1.5-1-2.1-.6m-1-5.6q-.15.15 0 0-.15 0 0 0-.15 0 0 0-.15 0 0 0m.4-.5c-.2-.2-.7-.3-.9 0-.2.2-.2.7 0 .9.1.1.3.2.5.2s.3-.1.5-.2c.1-.2.1-.6-.1-.9m8.7 2.7c-.4.7-1.3 1-2.2.8-.7-.2-1.6-.7-2.5-1-.3-.1-.6-.3-.9-.4l.4-1 1 .5h.3c.1 0 .1-.1.2-.2 0-.2.1-.4.2-.6.2-.4.6-.7 1.1-.8s1 0 1.5.2c1 .5 1.4 1.6.9 2.5M17.2 21c-.2-.7-.7-1.6-1-2.5-.1-.3-.3-.6-.4-.9l-1 .4.5 1v.3c0 .1-.1.1-.2.2-.2 0-.4.1-.6.2-.9.5-1.1 1.7-.6 2.6s1.7 1.3 2.6.8c.6-.3.9-1.2.7-2.1m-2.9-4.8c.1 0 .1 0 .2-.1l.4-.2.5 1.2-.6.2zm-5.1-3.6 4.6 3c.1.1.3.1.5 0l.7-.4c.1 0 .2-.1.3 0l1.5.7.2-.6-8.7-3.9c-.1.3 0 .7.4.9zm-1.7 4.5c-.2.1-.4.3-.7.4-.2-.1-.4-.2-.5-.3h-.1c.1 0 .1-.1.2-.1 1.1-.7 2.4-1.7 2.9-3.7l.5.4c-.3 1.2-1.1 2.3-2.3 3.3m1.2 2.6c.6.8 1.3 2.2 1.3 3.7h-.6c0-1.4-.5-2.5-1.4-3.6-.6-.7-1.5-1.2-2.5-1.7-.7-.3-1.4-.7-1.9-1.1-1.7-1.3-2.5-2.9-2.5-5s.8-3.7 2.5-5c.6-.4 1.3-.8 1.9-1.1 1-.5 1.9-.9 2.5-1.7C8.9 3.1 9.4 2 9.4.6h.6c0 1.5-.7 2.9-1.3 3.7C7.9 5.3 7 5.8 6 6.2c-.4.2-.9.4-1.3.7-1.4.9-3 2.2-3.1 5.1.1 2.9 1.7 4.2 3.1 5.1.5.3.9.5 1.3.7 1 .4 1.9.8 2.7 1.9m-6.1 2.1h5.9c-.1-.4-.3-.7-.6-1H3.1c-.2.3-.4.6-.5 1m2.9-2.9c-.8.4-1.5.8-1.9 1.3h3.9c-.5-.6-1.2-1-2-1.3m-3.8 4.5c0-1.4.5-2.5 1.4-3.6.5-.5 1.1-.9 1.8-1.3-.2-.1-.4-.2-.7-.4-.6.3-1.3.7-1.9 1.5S1 21.8 1 23.3h.7zm.7-19.1c.6.8 1.2 1.2 1.8 1.5.2-.1.4-.2.7-.4-.7-.3-1.4-.7-1.8-1.2C2.1 3.1 1.7 2 1.7.6H1c.1 1.5.7 2.9 1.4 3.7m3.1.8c.8-.3 1.5-.7 1.9-1.2H3.6c.5.5 1.1.9 1.9 1.2m3-2.9H2.6c.1.4.3.7.6 1H8c.1-.3.3-.6.5-1m.2 8.5h-.3l.3.1zm-.8.1s0-.1 0 0l-5.5-.1c-.1.3-.1.6-.2 1h5.4q0-.45.3-.9m.8 2.5H2.4c-.1-.3-.1-.6-.2-1h5.6c.1.2.3.3.4.4l.5.3zM3.1 9.1c-.2.3-.4.7-.6 1.1h5.9c-.1-.5-.3-.8-.5-1.1zm2.4-2c-.2.1-.3.2-.5.3-.5.3-.9.6-1.3 1.1h3.7C6.9 8 6.5 7.7 6 7.4c-.1-.1-.3-.2-.5-.3M7.9 15H3.2c-.2-.3-.4-.7-.6-1.1h5.9c-.2.4-.4.8-.6 1.1m-2.4 1.9c.2-.1.3-.2.5-.3.4-.3.9-.6 1.3-1H3.7c.4.4.9.7 1.3 1 .2.1.4.2.5.3m2-9.9C9 8.2 9.8 9.6 10 11.4l-.6-.3c-.4-2.3-1.8-3.4-3-4.2-.1 0-.1-.1-.2-.1 0 0 .1 0 .1-.1.2-.1.3-.2.5-.2.3.2.5.3.7.5m3.4 1.7c.3-.1.7 0 .9.4l3 4.6-2.2-1zm11.4 5c-.6-.3-1.3-.4-1.9-.3-.7.1-1.2.5-1.5 1.1-.1.1-.1.3-.2.4l-1-.5h-.2c-.1 0-.1.1-.2.2v.1l-1.3-.6-3.6-5.4c-.4-.6-1.3-.8-1.9-.5-.1.1-.2.2-.1.4l1.7 3.7-1.3-.6c-.1-2.2-1-3.9-2.8-5.2-.3-.1-.4-.2-.6-.3.6-.4 1.2-.8 1.8-1.5.7-1 1.5-2.6 1.5-4.4q0-.3-.3-.3H9.1c-.1 0-.2 0-.2.1-.1 0-.1.1-.1.2 0 .5 0 .9-.1 1.3H2.4c-.1-.4-.2-.8-.1-1.3 0-.1 0-.2-.1-.2C2.1 0 2 0 2 0H.7C.6 0 .4.1.4.3c0 1.8.7 3.4 1.5 4.4.5.7 1.1 1.2 1.7 1.5-.1.1-.3.2-.4.3-.9.6-1.5 1.3-1.9 2.2-.5 1-.8 2.1-.8 3.3 0 1.3.3 2.4.8 3.3.5.8 1.1 1.5 1.9 2.2.1.1.3.2.4.3-.6.3-1.2.8-1.7 1.5-.7 1-1.5 2.6-1.5 4.4q0 .3.3.3H2c.1 0 .2 0 .2-.1.1-.1.1-.1.1-.2 0-.5 0-.9.1-1.3h6.3c.1.4.1.8.1 1.3 0 .1 0 .2.1.2 0 .1.1.1.2.1h1.2q.3 0 .3-.3c0-1.8-.7-3.4-1.5-4.4-.5-.7-1.1-1.2-1.7-1.5.1-.1.3-.2.4-.3 1.3-1 2.1-2.1 2.5-3.5l3.1 2c.1.1.2.1.2.1l.6 1.4h-.1c-.1 0-.1.1-.2.2v.2l.5 1c-.2 0-.3.1-.4.2-1.1.7-1.5 2.2-.8 3.4.5.8 1.4 1.3 2.2 1.3.4 0 .8-.1 1.1-.3 1-.6 1.4-1.7 1.1-2.8-.2-.7-.7-1.7-1.1-2.6-.2-.4-.4-.8-.5-1.1l-.4-1 1.1.5c.3.1.7.3 1.1.5.9.4 1.8.9 2.6 1.1.3.1.5.1.8.1.9 0 1.7-.4 2.1-1.2.7-1.1.2-2.6-1-3.3m-.5 2.5c.2-.4.1-.9-.4-1.1-.1-.1-.2-.1-.4-.1h-.2c-.2 0-.4.2-.5.3-.2.4-.1.9.4 1.1.4.3.9.2 1.1-.2m0-1.6c-.3-.2-.7-.3-1.1-.2q-.6.15-.9.6c-.4.7-.1 1.5.6 1.9.2.1.5.2.8.2.5 0 .9-.2 1.2-.7s0-1.4-.6-1.8" style="fill-rule:evenodd;clip-rule:evenodd"/></svg>