<svg xmlns="http://www.w3.org/2000/svg" xml:space="preserve" viewBox="0 0 24 24"><path d="M6.6 11.7h-3c.1-.6.8-1.1 1.5-1.5.8.4 1.4.8 1.5 1.5m-1.5 2.1c-.8-.4-1.4-.8-1.5-1.5h3.1c-.2.6-.8 1.1-1.6 1.5m2.1-5.7q0-.3-.3-.3t-.3.3c0 .6-.7 1-1.5 1.4-.9-.4-1.6-.8-1.6-1.4q0-.3-.3-.3t-.3.3c0 .9.7 1.4 1.5 1.8-.7.4-1.6 1.1-1.5 2.1 0 1.1.8 1.7 1.5 2.1-.8.4-1.6.9-1.5 1.8q0 .3.3.3t.3-.3c0-.6.7-1 1.5-1.4.8.4 1.6.8 1.5 1.4q0 .3.3.3t.3-.3c0-.9-.7-1.4-1.5-1.8.7-.4 1.6-1.1 1.5-2.1 0-1.1-.8-1.7-1.5-2.1.9-.5 1.7-1 1.6-1.8m8.2 10.3c1.1-1.1 3-1.1 4.1 0q.9.9.9 2.1c0 .7-.2 1.4-.7 1.9-.2-.6-.7-1-1.3-1.2.3-.3.5-.7.5-1.1 0-.8-.7-1.5-1.5-1.5s-1.5.7-1.5 1.5c0 .4.2.8.5 1.1-.6.2-1 .6-1.3 1.2-.5-.5-.7-1.2-.7-1.9.2-.8.5-1.6 1-2.1m2.1 2.6c.5 0 .9-.4.9-.9s-.4-.9-.9-.9-.9.4-.9.9.4.9.9.9m-1.7 1.8c1 .8 2.5.8 3.5 0-.2-.7-.8-1.2-1.5-1.2h-.5c-.8.1-1.4.6-1.5 1.2m-.4-21.4q.9-.9 2.1-.9c1.2 0 1.5.3 2.1.9q.9.9.9 2.1c0 .7-.2 1.4-.7 1.9-.2-.6-.7-1-1.3-1.2.3-.2.5-.6.5-1.1 0-.8-.7-1.5-1.5-1.5S16 2.3 16 3.1c0 .4.2.8.5 1.1-.6.2-1 .6-1.3 1.2-.5-.5-.7-1.2-.7-1.9q.15-1.2.9-2.1M17.5 4c.5 0 .9-.4.9-.9s-.4-.8-.9-.8-.9.4-.9.9.4.8.9.8m-1.7 1.9c.5.4 1.1.6 1.7.6s1.2-.2 1.7-.6c-.2-.7-.8-1.2-1.5-1.2h-.5c-.7 0-1.3.5-1.4 1.2m-.4 4q.9-.9 2.1-.9c1.2 0 1.5.3 2.1.9q.9.9.9 2.1c0 .7-.2 1.4-.7 1.9-.2-.6-.7-1-1.3-1.2.3-.3.5-.7.5-1.1 0-.8-.7-1.5-1.5-1.5s-1.5.7-1.5 1.5c0 .4.2.8.5 1.1-.6.2-1 .6-1.3 1.2-.5-.5-.7-1.2-.7-1.9q.15-1.2.9-2.1m2.1 2.6c.5 0 .9-.4.9-.9s-.4-.9-.9-.9-.9.4-.9.9.4.9.9.9m-1.7 1.9c1 .8 2.5.8 3.5 0-.2-.7-.8-1.2-1.5-1.2h-.5c-.8 0-1.4.5-1.5 1.2m-4.1-2.1H14c.1.8.4 1.6 1 2.2.7.7 1.6 1 2.5 1s1.8-.3 2.5-1 1-1.6 1-2.5-.4-1.8-1-2.5c-1.4-1.4-3.6-1.4-5 0-.6.6-1 1.4-1 2.2h-2.2V3.8H14c.1.8.4 1.6 1 2.2.7.7 1.6 1 2.5 1s1.8-.3 2.5-1 1-1.6 1-2.5-.3-1.8-1-2.5c-1.4-1.4-3.6-1.4-5 0-.6.6-1 1.4-1 2.2h-2.5q-.3 0-.3.3v8.2H8.6q-.3 0-.3.3c0 .3.1.3.3.3h2.5v8.2q0 .3.3.3H14c.1.8.4 1.6 1 2.2.7.7 1.6 1 2.5 1s1.8-.3 2.5-1 1-1.6 1-2.5-.4-1.8-1-2.5c-1.4-1.4-3.6-1.4-5 0-.6.6-1 1.4-1 2.2h-2.2v-7.9z" style="fill-rule:evenodd;clip-rule:evenodd"/></svg>