<svg xmlns="http://www.w3.org/2000/svg" xml:space="preserve" viewBox="0 0 24 24"><path d="M7.6 9.1c.1 0 .1.1.2.2.1.2-.1.4-.3.4-.2.1-.4 0-.4-.2v-.3c0-.1.1-.1.2-.2h.1c.1.1.2.1.2.1m-1-.1c-.1.2-.1.4-.1.7.1.4.5.7.9.7h.2c.5-.1.8-.7.7-1.2 0-.3-.2-.5-.4-.6s-.4-.1-.6-.1C7.1 8 7 7.4 7 6.8c0-.5.1-1 .2-1.5.1-.2 0-.3-.2-.4-.1 0-.2.1-.3.2-.2.6-.3 1.1-.3 1.7 0 .7.1 1.3.3 1.9 0 .1 0 .2-.1.3m7.1-5.6c0 .4-.1.8-.4 1.1s-.7.4-1.1.4c0-.4.1-.8.4-1.1.4-.3.8-.5 1.1-.4m-2 1.9c-.4.1-.9-.1-1.2-.4s-.5-.8-.4-1.2c.4-.1.9.1 1.2.4s.4.8.4 1.2m1 1.7v2l.9 1.5h-1.3V7zm2.2 6.2c-.1.1-.2.2-.4.2h-5c-.2 0-.3-.1-.4-.2s-.1-.3 0-.4l1-1.7h1.6v.8q0 .3.3.3c.3 0 .3-.1.3-.3v-.8h1.6l1 1.7c.1.1.1.3 0 .4M11.3 9V7h.4v3.5h-1.3zm.9-5.7c.5-.5 1.2-.7 1.8-.5.1 0 .2.1.2.2.2.7 0 1.3-.5 1.8-.4.4-.8.6-1.3.6h-.2v.9h.8q.3 0 .3.3v2.1l2.1 3.7c.2.3.2.7 0 1s-.5.5-.9.5h-5c-.4 0-.7-.2-.9-.5s-.2-.7 0-1l2.1-3.7v-2q0-.3.3-.3h.7v-.5h-.2c-.5 0-1-.2-1.4-.6-.5-.5-.7-1.2-.5-1.9 0-.1.1-.2.2-.2.7-.2 1.4 0 1.9.5l.2.2zm3.5-.5c-.2 0-.4.2-.4.4s.2.4.4.4.4-.2.4-.4-.2-.4-.4-.4m1 7c-.2.1-.4-.1-.4-.3-.1-.2.1-.4.3-.4h.3c.1 0 .1.1.2.2-.1.2-.2.4-.4.5m-1-5.7c.1 0 .3 0 .4-.1.6.8.9 1.8.9 2.8 0 .6-.1 1.1-.3 1.7h-.4c-.5.1-.8.7-.7 1.2.1.4.5.7.9.7h.2c.5-.1.8-.7.7-1.2 0-.2-.1-.3-.3-.5.2-.6.3-1.3.3-1.9 0-1.2-.4-2.3-1-3.2.1-.1.1-.3.1-.5 0-.5-.4-1-1-1-.5 0-1 .4-1 1s.7 1 1.2 1M8.3 2.8c-.2 0-.4.2-.4.4s.2.4.4.4.4-.2.4-.4-.2-.4-.4-.4m0 1.3c.5 0 1-.4 1-1 0-.1 0-.2-.1-.4.8-.5 1.8-.8 2.8-.8.5 0 1 .1 1.5.2.2.1.3 0 .4-.2s0-.3-.2-.4c-.5-.2-1.1-.3-1.7-.3-1.2 0-2.3.4-3.2 1h-.5c-.5 0-1 .4-1 1s.4.9 1 .9m4.9 12.1q0 .3-.3.3H11q-.3 0-.3-.3t.3-.3h2c.1 0 .2.1.2.3m8.9.9c.7 0 1.3-.6 1.3-1.3v-.5H.6v.5c0 .7.6 1.3 1.3 1.3zm-6.7 4.2H8.6c.5-1.1.7-2.3.7-3.5h5.4c0 1.2.2 2.4.7 3.5m2.8 1.3c0 .4-.3.8-.8.8H6.6c-.4 0-.8-.3-.8-.8s.3-.8.8-.8h10.9c.4 0 .7.4.7.8M1.9.6C1.2.6.6 1.2.6 1.9v12.8h22.8V1.9c0-.7-.6-1.3-1.3-1.3zM22.1 0H1.9C.9 0 0 .9 0 1.9v13.8c0 1.1.9 1.9 1.9 1.9h6.8c0 1.3-.3 2.4-.8 3.5H6.6c-.8 0-1.4.6-1.4 1.4S5.8 24 6.6 24h10.9c.8 0 1.4-.6 1.4-1.4s-.6-1.4-1.4-1.4H16c-.5-1.1-.8-2.3-.8-3.5H22c1.1 0 1.9-.9 1.9-1.9V1.9c.1-1-.8-1.9-1.8-1.9" style="fill-rule:evenodd;clip-rule:evenodd"/></svg>