<svg xmlns="http://www.w3.org/2000/svg" xml:space="preserve" viewBox="0 0 24 24"><path d="M5.3 3 1.1 4.8c-.3.1-.5.4-.5.7v1.2c0 .1 0 .3.1.4l3.1-1.3c.9-.4 1.4-1.2 1.4-2.2V3zm-.5 3.9c.3.1.5.4.5.8v.5l-1.4.6-2.7-1.2 2.6-1.1zm.5 2-4.1 1.8c-.3.1-.5.4-.5.8v1.2c0 .1 0 .3.1.4l4.1-1.7c.3-.1.5-.4.5-.8V8.9zm-1.6 3.4 1.1.4c.3.1.5.4.5.8v.5l-1.3.6-2.8-1.2zm1.6 2.4-4.1 1.8c-.3.1-.5.4-.5.8v1.2c0 .1 0 .3.1.4l4.1-1.7c.3-.1.5-.4.5-.8v-1.7zm-1.6 3.5c1 .4 1.5 1.2 1.5 2.2v.6l-4.1-1.7zM5.9 2.6v1.1c0 1.1-.5 2-1.4 2.5l.5.2c.5.2.9.7.9 1.3v2.8c0 .6-.3 1.1-.9 1.3l-.5.2.5.2c.5.2.9.7.9 1.3v2.8c0 .6-.3 1.1-.9 1.3l-.5.2c.9.5 1.4 1.5 1.4 2.5v1.1c-.2 1.2-1 2.2-2.2 2.5h-.1c-.1 0-.2-.1-.3-.2 0-.2 0-.3.2-.4.9-.2 1.5-.9 1.7-1.8L.9 19.7c-.2-.1-.4-.2-.5-.4-.3-.2-.4-.5-.4-.8v-1.2c0-.6.3-1.1.9-1.3l2.3-1L1 14c-.2-.1-.5-.3-.6-.5-.3-.2-.4-.6-.4-.9v-1.2c0-.6.3-1.1.9-1.3l2.3-1L1 8.2C.7 8 .5 7.9.4 7.7c-.3-.3-.4-.6-.4-1V5.5c0-.5.3-1.1.9-1.3l4.3-1.8C5 1.5 4.4.8 3.5.6c-.2 0-.3-.2-.2-.4.1-.1.2-.2.4-.2 1.2.3 2 1.3 2.2 2.6q0-.15 0 0m17.5 1V3l-4.1 1.8c-.3.1-.5.4-.5.8v1.2c0 .1 0 .3.1.4L22 5.8c.9-.4 1.4-1.2 1.4-2.2m-.5 3.3c.3.1.5.4.5.8v.5l-1.3.6-2.8-1.2 2.6-1.1zm.5 3.6V8.9l-4.1 1.8c-.3.1-.5.4-.5.8v1.2c0 .1 0 .3.1.4l4.1-1.7c.2-.3.4-.6.4-.9m-1.5 1.8 1.1.4c.3.1.5.4.5.8v.5l-1.3.6-2.8-1.2zm1.5 4v-1.6l-4.1 1.8c-.3.1-.5.4-.5.8v1.2c0 .1 0 .3.1.4l4.1-1.7c.2-.2.4-.5.4-.9m-1.5 1.9c1 .4 1.5 1.2 1.5 2.2v.6l-4.1-1.7zm.7-12 .6.2c.5.2.8.7.8 1.3v2.8c0 .6-.3 1.1-.9 1.3l-.5.2.5.2c.5.2.9.7.9 1.3v2.8c0 .6-.3 1.1-.9 1.3l-.5.2c.9.5 1.4 1.5 1.4 2.5v1.1c-.2 1.2-1 2.2-2.2 2.5h-.1c-.1 0-.3-.1-.3-.2 0-.2 0-.3.2-.4.9-.2 1.5-.9 1.7-1.8L19 19.8c-.2-.1-.4-.2-.5-.4-.2-.2-.3-.6-.3-.9v-1.2c0-.6.3-1.1.9-1.3l2.3-1-2.3-1c-.2-.1-.5-.3-.6-.5q-.3-.45-.3-.9v-1.2c0-.6.3-1.1.9-1.3l2.3-1-2.2-.9c-.2-.1-.5-.3-.6-.5q-.3-.45-.3-.9V5.5c0-.6.3-1.1.9-1.3l4.3-1.8c-.2-.9-.8-1.5-1.7-1.8-.2 0-.3-.2-.2-.4 0-.2.2-.3.4-.2 1.2.3 2 1.3 2.2 2.5v1.1c-.2 1.1-.7 2-1.6 2.6m-9.2 1.6c-.1-.1-.3-.1-.4 0s-.1.3 0 .4l.9.9H9.4q-.3 0-.3.3t.3.3h4.4l-.8.9c-.1.1-.1.3 0 .4s.1.1.2.1.2 0 .2-.1l1.4-1.4c.1-.1.1-.3 0-.4zm1.5 6.8q0 .3-.3.3h-4.4l.9.9c.1.1.1.3 0 .4s-.1.1-.2.1-.2 0-.2-.1l-1.4-1.4c-.1-.1-.1-.3 0-.4l1.4-1.4c.1-.1.3-.1.4 0s.1.3 0 .4l-.9.9h4.4q.3 0 .3.3" style="fill-rule:evenodd;clip-rule:evenodd"/></svg>