<svg xmlns="http://www.w3.org/2000/svg" xml:space="preserve" viewBox="0 0 24 24"><path d="M16.1 11.8c.1.1.1.3 0 .4l-2.9 2.9c-.1.1-.1.1-.2.1s-.2 0-.2-.1L11 13.5c-.1-.1-.1-.3 0-.4s.3-.1.4 0l1.5 1.5 2.7-2.7c.1-.2.3-.2.5-.1m7 11.3c-.2.2-.5.3-.7.3s-.5-.1-.7-.3l-3.3-3.3 1.5-1.5 3.3 3.3c.3.4.3 1.1-.1 1.5m-5.7-4.8.7.7.9-.9-.7-.7c-.1.2-.3.3-.4.4-.2.2-.3.4-.5.5m-7.8-.8c2.2 2.2 5.7 2.2 7.9 0 1.1-1.1 1.6-2.5 1.6-3.9s-.6-2.9-1.6-3.9C16.4 8.5 15 8 13.5 8s-2.9.6-3.9 1.6C8.5 10.6 8 12 8 13.5s.5 2.9 1.6 4m1.7 5.1c.1-1.3-.2-2.6-.8-3.8-.4-.3-.9-.6-1.2-1-.3-.3-.6-.7-.9-1.1-.3-.2-.6-.3-.9-.4-.4-.1-.7-.2-1-.3-1.1-.3-2.2-.7-3.1-1.7-.7-.6-1-1.3-1-2.3.1-1 .3-1.7.9-2.3.5-.6 1.2-1 1.8-1.3-.3 0-.5-.1-.8-.2-.5-.2-.9-.4-1.4-.7q-.75.45-1.2 1.2C.9 9.6.6 10.8.6 12c-.1 1.2.3 2.4 1.1 3.3.8 1 2.1 1.8 3.5 2.2 1.6.4 3.1 1 3.8 2.4.3.7.5 1.5.6 2.7 0 .5.4.8.8.8h.1c.4 0 .7-.3.8-.8m-8.2-1.2c.1-.4.2-.7.3-1h5.1c.1.3.2.6.3 1zm2.8-3c.9.3 1.7.7 2.2 1.4H3.7c.6-.8 1.5-1.1 2.2-1.4m-3 1.5c-.3.7-.5 1.5-.6 2.7 0 .5-.4.8-.8.8s-.8-.3-.8-.8c-.1-1.3.2-2.6.8-3.8.4-.6.9-1.2 1.5-1.7.7.5 1.4.7 2 .9-.8.5-1.6 1-2.1 1.9M4.1 9.7c.6-.5 1.2-.7 1.9-.9.6.2 1.3.4 1.8.9zm3.5 2H3c.1-.6.2-1 .5-1.4h4.8c-.3.4-.5.9-.7 1.4m0 3.5c.1.2.1.5.2.7-.1 0-.2-.1-.3-.1-.2-.1-.5-.2-.7-.2.3-.1.6-.3.8-.4m-.2-.9v.3c-.4.3-.9.5-1.5.7-.7-.2-1.3-.5-1.9-.9zm0-.6H3.5c-.3-.4-.5-.8-.5-1.4h4.5c-.1.4-.1.8-.1 1.2zM1.5 5.1C.8 4 .5 2.7.6 1.4c0-.4.4-.8.8-.8h.1c.5 0 .9.4.9.8q0 1.65.6 2.7C3.7 5.5 5.2 6 6.8 6.5c1.2.3 2.4 1 3.2 1.9-.3.3-.6.5-.8.8-.2.1-.4.3-.5.5-.9-1-2-1.3-3.1-1.7-.3-.1-.7-.2-1-.3-1.4-.5-2.4-1.4-3.1-2.6m7.3-2.5H3.1c.1.4.2.7.3 1h5.1c.1-.3.2-.6.3-1m-2.9 3c.8-.3 1.7-.6 2.2-1.4H3.7c.6.7 1.4 1.1 2.2 1.4m3-1.5c-.4.9-1.2 1.4-2 1.8q.9.15 2.1.9c.6-.5 1.1-1 1.5-1.7.7-1.1 1-2.4.8-3.8 0-.4-.4-.8-.8-.8h-.1c-.5.1-.9.5-.9.9q0 1.65-.6 2.7m14.6 17.1-3.4-3.4c-.1-.1-.2-.1-.3-.1s-.2 0-.3.1l-.8-.8c.7-1 1-2.2 1-3.4 0-1.6-.6-3.2-1.8-4.4s-2.7-1.8-4.4-1.8c-1.1 0-2.1.3-3 .8-.3-.4-.7-.7-1.1-1 .6-.5 1.1-1 1.5-1.7.7-1.2 1.1-2.7.9-4.1 0-.8-.6-1.4-1.4-1.4h-.1c-.7 0-1.4.6-1.4 1.4V2H3v-.6C2.9.6 2.3 0 1.5 0S.1.6 0 1.3c-.1 1.5.2 2.9 1 4.1.4.7.9 1.2 1.5 1.7-.5.4-.9.8-1.3 1.2C.4 9.3 0 10.7 0 12c-.1 1.3.4 2.7 1.2 3.7q.6.75 1.2 1.2c-.6.5-1.1 1-1.5 1.7-.7 1.2-1.1 2.7-.9 4.1.1.7.7 1.3 1.5 1.3h.1c.8 0 1.4-.6 1.4-1.4V22h5.9v.6c0 .8.7 1.4 1.4 1.4h.1c.7 0 1.4-.6 1.4-1.3.1-1.2-.1-2.4-.6-3.4.7.3 1.5.4 2.2.4 1.2 0 2.4-.3 3.4-1l.8.8c-.1.1-.1.2-.1.3s.1.3.1.3l3.4 3.4c.3.3.7.5 1.2.5s.9-.2 1.2-.5c.8-.6.8-1.7.1-2.3m-7.1-4.8c1.6-1.6 1.6-4.1 0-5.7s-4.1-1.6-5.7 0-1.6 4.1 0 5.7c.8.8 1.8 1.2 2.8 1.2 1.1 0 2.1-.4 2.9-1.2m.4-6.1c-1.8-1.8-4.7-1.8-6.5 0s-1.8 4.7 0 6.5c.9.9 2.1 1.4 3.3 1.4s2.4-.5 3.3-1.4c1.7-1.8 1.7-4.7-.1-6.5" style="fill-rule:evenodd;clip-rule:evenodd"/></svg>