<svg xmlns="http://www.w3.org/2000/svg" xml:space="preserve" viewBox="0 0 24 24"><path d="M23.4 8.1h-5.5V.6h3.6l1.9 1.9zm-3 9V8.7h-2.7q-.3 0-.3-.3V4.7h-2v3.8q0 .3-.3.3H8.9q-.3 0-.3-.3V4.7h-2v3.8q0 .3-.3.3H3.6v8.4c0 .7.5 1.2 1.2 1.2h2.1v-4.8c0-1.1 2.5-1.7 5.1-1.7s5.1.6 5.1 1.7v4.8h2.1c.6-.1 1.2-.6 1.2-1.3M12 20.5c-2.9 0-4.5-.7-4.5-1.2v-2c.9.6 2.7.9 4.5.9s3.6-.3 4.5-.9v2c0 .5-1.6 1.2-4.5 1.2m0 2.9c2.9 0 4.5-.7 4.5-1.2v-2c-.9.6-2.7.9-4.5.9s-3.6-.3-4.5-.9v2c0 .5 1.6 1.2 4.5 1.2m-4.5-9c.9.6 2.7.9 4.5.9s3.6-.3 4.5-.9v2c0 .4-1.5 1.2-4.5 1.2s-4.5-.7-4.5-1.2zm1.2-1.6c.9-.3 2-.4 3.3-.4s2.4.1 3.3.4 1.2.6 1.2.7-.2.5-1.2.7c-.9.3-2 .4-3.3.4s-2.4-.1-3.3-.4-1.2-.6-1.2-.7.3-.4 1.2-.7M.6.6h3.6l1.9 1.9v5.6H.6zm8.6 0h3.6l1.9 1.9v5.6H9.2zm14.7 1.6-2-2.1c-.1-.1-.2-.1-.2-.1h-4.1q-.3 0-.3.3v3.8h-2V2.4c0-.1 0-.2-.1-.2l-2-2.1c0-.1-.1-.1-.2-.1H8.9c-.1 0-.2.1-.2.3v3.8h-2V2.4c0-.1 0-.2-.1-.2L4.6.1C4.5 0 4.4 0 4.3 0h-4Q0 0 0 .3v8.1q0 .3.3.3H3v8.4c0 1 .8 1.8 1.8 1.8h2.1v3.3c0 1.1 2.5 1.7 5.1 1.7s5.1-.6 5.1-1.7v-3.3h2.1c1 0 1.8-.8 1.8-1.8V8.7h2.7q.3 0 .3-.3v-6c0-.1 0-.2-.1-.2" style="fill-rule:evenodd;clip-rule:evenodd"/></svg>