<svg xmlns="http://www.w3.org/2000/svg" xml:space="preserve" viewBox="0 0 24 24"><path d="M22.5 21.4q-.3 0-.3.3v1.7h-.8v-1.7q0-.3-.3-.3H21l.8-1.3.8 1.3zm0-21.4H21c-.1 0-.2.1-.2.3V2h-.4c-.1 0-.2.1-.3.2s0 .2 0 .3l1.4 2.1c.1.1.1.1.2.1s.3-.1.3-.1l1.4-2.1q.15-.15 0-.3c0-.2-.1-.2-.3-.2h-.4V.3c.1-.1 0-.3-.2-.3m-4.8 0h-1.6c-.1 0-.2.1-.2.3V2h-.4c-.1 0-.2.1-.3.2s0 .2 0 .3l1.4 2.1c.1.1.1.1.2.1s.2-.1.2-.1l1.4-2.1q.15-.15 0-.3c.1-.2 0-.2-.1-.2h-.4V.3c0-.1-.1-.3-.2-.3m-4.9 0h-1.6c-.1 0-.2.2-.2.3V2h-.4c-.1 0-.2.1-.3.2s0 .2 0 .3l1.4 2.1c.1.1.1.1.2.1s.2-.1.2-.1l1.4-2.1q.15-.15 0-.3c.1-.2 0-.2-.1-.2H13V.3c0-.1-.1-.3-.2-.3M7.9 0H6.3c-.1 0-.2.2-.2.3V2h-.4c-.1 0-.2 0-.2.1-.1.1 0 .2 0 .3l1.4 2.1c0 .1.1.2.2.2s.2-.1.2-.1l1.4-2.1q.15-.15 0-.3c-.15-.15-.1-.2-.2-.2h-.4V.3C8.1.2 8 0 7.9 0M3 0H1.5c-.2 0-.3.2-.3.3V2H.9c-.2 0-.3 0-.3.1-.1.1 0 .2 0 .3L2 4.6s.1.1.2.1.2-.1.2-.1l1.4-2.1q.15-.15 0-.3c0-.2-.1-.2-.2-.2h-.3V.3C3.3.2 3.2 0 3 0m19 19.4c-.1-.1-.1-.1-.2-.1s-.2.1-.2.1l-1.4 2.1q-.15.15 0 .3c.1.1.2.2.3.2h.4v1.7q0 .3.3.3h1.4q.3 0 .3-.3V22h.4c.1 0 .2-.1.3-.2s0-.2 0-.3zm-4.4 2q-.3 0-.3.3v1.7h-.8v-1.7q0-.3-.3-.3H16l.8-1.3zm-.5-2c-.1-.1-.1-.1-.2-.1s-.2.1-.2.1l-1.4 2.1q-.15.15 0 .3c.1.1.2.2.3.2h.4v1.7q0 .3.3.3h1.4q.3 0 .3-.3V22h.4c.1 0 .2-.1.3-.2s0-.2 0-.3zm-4.4 2q-.3 0-.3.3v1.7h-.8v-1.7q0-.3-.3-.3h-.1l.8-1.3.8 1.3zm-.5-2c-.1-.1-.1-.1-.2-.1s-.2.1-.2.1l-1.4 2.1q-.15.15 0 .3c.15.15.2.2.3.2h.3v1.7q0 .3.3.3h1.4q.3 0 .3-.3V22h.4c.1 0 .2-.1.3-.2s0-.2 0-.3zm-4.4 2q-.3 0-.3.3v1.7h-.8v-1.7q0-.3-.3-.3h-.1l.8-1.3.9 1.3zm-.4-2c-.1-.1-.1-.1-.2-.1s-.2.1-.2.1l-1.4 2.1q-.15.15 0 .3c-.1.1 0 .2.1.2h.4v1.7q0 .3.3.3h1.4q.3 0 .3-.3V22h.4c.1 0 .2-.1.3-.2s0-.2 0-.3zm-4.4 2q-.3 0-.3.3v1.7h-.9v-1.7q0-.3-.3-.3h-.1l.8-1.3zc.1 0 0 0 0 0m-.5-2c-.1-.1-.1-.1-.2-.1s-.3.1-.3.1L.6 21.5q-.15.15 0 .3c0 .1.1.2.3.2h.4v1.7q0 .3.3.3H3q.3 0 .3-.3V22h.4c.1 0 .2-.1.3-.2s0-.2 0-.3zM21 2.6q.3 0 .3-.3V.6h.8v1.7q0 .3.3.3h.1l-.8 1.3-.8-1.3zm-4.8 0q.3 0 .3-.3V.6h.8v1.7q0 .3.3.3h.1l-.8 1.3-.9-1.3zm-4.9 0q.3 0 .3-.3V.6h.8v1.7q0 .3.3.3h.1L12 3.8l-.8-1.3c0 .1.1.1.1.1m-4.9 0q.3 0 .3-.3V.6h.8v1.7q0 .3.3.3H8l-.9 1.2-.8-1.2zm-4.9 0q.3 0 .3-.3V.6h.8v1.7q0 .3.3.3H3l-.8 1.2-.8-1.2zM.6 16h5.3v2H.6zm22.8 2h-5.3v-2h5.3zm-8.2-2h2.3v2h-2.3zm-6.4 2H6.4v-2h2.3v2zm.6-2h5.3v2H9.4zm14.3-.6H.3q-.3 0-.3.3v2.5q0 .3.3.3h23.4q.3 0 .3-.3v-2.5c0-.1-.1-.3-.3-.3M18.1 13v-2h5.3v2zm-8.7 0v-2h5.3v2zM.6 11h5.3v2H.6zm8.2 0v2H6.4v-2zm8.8 0v2h-2.3v-2zm6.1-.6H.3q-.3 0-.3.3v2.5q0 .3.3.3h23.4q.3 0 .3-.3v-2.5c0-.1-.1-.3-.3-.3M18.1 8V6h5.3v2zM9.4 8V6h5.3v2zM.6 6h5.3v2H.6zm8.2 0v2H6.4V6zm8.8 0v2h-2.3V6zm6.1-.6H.3c-.2 0-.3.2-.3.3v2.5q0 .3.3.3h23.4q.3 0 .3-.3V5.7c0-.1-.1-.3-.3-.3" style="fill-rule:evenodd;clip-rule:evenodd"/></svg>