<svg xmlns="http://www.w3.org/2000/svg" xml:space="preserve" viewBox="0 0 24 24"><path d="M23.4 22.2c0 .6-.5 1.2-1.2 1.2h-1.9c-.6 0-1.2-.5-1.2-1.2v-1.5c0-.6.5-1.2 1.2-1.2h1.9c.6 0 1.2.5 1.2 1.2zM22.2 19h-1.9c-1 0-1.8.8-1.8 1.8v1.5c0 1 .8 1.8 1.8 1.8h1.9c1 0 1.8-.8 1.8-1.8v-1.5c0-1-.8-1.8-1.8-1.8m-8.1 3.2c0 .6-.5 1.2-1.2 1.2H11c-.6 0-1.2-.5-1.2-1.2v-1.5c0-.6.5-1.2 1.2-1.2h1.9c.6 0 1.2.5 1.2 1.2zM12.9 19H11c-1 0-1.8.8-1.8 1.8v1.5c0 1 .8 1.8 1.8 1.8h1.9c1 0 1.8-.8 1.8-1.8v-1.5c0-1-.8-1.8-1.8-1.8m-8.1 3.2c0 .6-.5 1.2-1.2 1.2H1.8c-.6 0-1.2-.5-1.2-1.2v-1.5c0-.6.5-1.2 1.2-1.2h1.9c.6 0 1.2.5 1.2 1.2v1.5zM3.6 19H1.8c-1 0-1.8.8-1.8 1.8v1.5c0 1 .8 1.8 1.8 1.8h1.9c1 0 1.8-.8 1.8-1.8v-1.5c-.1-1-.9-1.8-1.9-1.8m7.3-13.5h2.2c-.1.4-.6.7-1.1 1-.5-.3-1-.6-1.1-1M12 3.9c.5.3 1 .6 1.1 1h-2.2c.1-.4.6-.7 1.1-1m1.1 4.3q0 .3.3.3t.3-.3c0-.7-.5-1.1-1.1-1.4.6-.3 1.1-.8 1.1-1.6s-.5-1.3-1.1-1.6c.6-.3 1.1-.7 1.1-1.4q0-.3-.3-.3t-.3.3c0 .4-.4.7-1.1 1-.7-.4-1.1-.6-1.1-1q0-.3-.3-.3t-.3.3c0 .7.5 1.1 1.1 1.4-.6.3-1.1.8-1.1 1.6s.5 1.3 1.1 1.6c-.6.3-1.1.7-1.1 1.4q0 .3.3.3t.3-.3c0-.4.4-.7 1.1-1 .7.4 1.1.6 1.1 1m-5.7-3c0 2.5 2.1 4.6 4.6 4.6s4.6-2.1 4.6-4.6S14.5.6 12 .6 7.4 2.7 7.4 5.2M2.7 17.7q.3 0 .3-.3v-3.3h8.7v3.3q0 .3.3.3t.3-.3v-3.3H21v3.3q0 .3.3.3t.3-.3v-3.6q0-.3-.3-.3h-9v-3c2.7-.2 4.9-2.4 4.9-5.2S14.9 0 12 0 6.8 2.3 6.8 5.2s2.2 5.1 4.9 5.2v3h-9q-.3 0-.3.3v3.6c0 .3.1.4.3.4" style="fill-rule:evenodd;clip-rule:evenodd"/></svg>