<svg xmlns="http://www.w3.org/2000/svg" xml:space="preserve" viewBox="0 0 24 24"><path d="m9.2 15.8-1-1c.4-.2.9-.3 1.4-.4-.1.5-.2 1-.4 1.4m1.1-2.1c0-.5.1-1 .2-1.5l1.3 1.3c-.5.2-1 .2-1.5.2m1.3-3c-.2.1-.4.2-.6.4s-.3.4-.4.6l1.7 1.7c.2-.1.4-.2.6-.4s.3-.4.4-.6zm2.1-.4q.15 0 0 0c0 .6 0 1.1-.1 1.5l-1.3-1.3c.4-.2.9-.2 1.4-.2m1.1-2.1 1 1c-.4.2-.9.3-1.4.4.1-.5.2-1 .4-1.4m-8 7.1c-.1.1 0 .3.1.4h.2c.1 0 .2-.1.3-.1.1-.2.2-.3.4-.5L9 16.3c-.1.1-.3.3-.5.4-.1.1-.2.3-.1.4s.2.1.3.1h.2c1.1-.7 1.4-1.7 1.5-2.8h.2c1.1-.1 2.2-.2 3-.9.8-.8.9-1.9.9-3v-.2c1.1-.1 2.2-.4 2.8-1.5.1-.1 0-.3-.1-.4s-.3 0-.4.1c-.1.2-.2.3-.4.5l-1.2-1.2.4-.4c.1-.1.2-.3.1-.4s-.3-.2-.4-.1c-1.1.7-1.4 1.7-1.5 2.8h-.2c-1.1.1-2.2.2-3 .9-.8.8-.9 1.9-.9 3v.2c-1.1.1-2.2.4-2.9 1.5m16.5-2.9c-.1.4-.3.6-.6.8-.7.4-1.5.1-1.9-.5-.4-.7-.1-1.5.5-1.9.2-.1.4-.2.7-.2.1 0 .2 0 .4.1.4.1.6.3.8.6.2.4.2.8.1 1.1m-4.9 8.9c-.4.7-1.2.9-1.9.5s-.9-1.2-.5-1.9 1.2-.9 1.9-.5c.3.2.6.5.7.8 0 .4-.1.7-.2 1.1m-9.5-.2c0-.1.1-.3.1-.4 0-.2 0-.5-.1-.7h6.4c-.1.4-.1.8 0 1.1zm-1.9 1c-.8 0-1.4-.6-1.4-1.3 0-.8.6-1.4 1.3-1.4s1.4.6 1.4 1.3c.1.7-.5 1.3-1.3 1.4M.8 12.6c-.2-.3-.2-.7-.1-1 .1-.4.3-.6.6-.8.2-.1.4-.2.7-.2h.4c.4.1.6.3.8.6s.2.7.1 1c-.1.4-.3.6-.6.8-.7.5-1.6.2-1.9-.4M6 5.1c-.2-.1-.4-.3-.5-.4L2.4 10q.6.15.9.6l3.1-5.3c-.1-.1-.3-.1-.4-.2m-.2-2.4c.1-.3.4-.6.8-.7H7c.2 0 .5.1.7.2.6.4.8 1.2.4 1.8-.2.4-.5.6-.8.7-.4.1-.7 0-1-.1-.7-.4-.9-1.3-.5-1.9m-.1 16.6c.3-.3.6-.4 1-.5l-3.2-5.6c-.1.2-.3.3-.5.4-.1.1-.3.1-.4.2zM8.5 4.6c-.3.3-.6.6-1 .7-.1 0-.2 0-.3.1l-3.4 5.9c.1.3.2.7.1 1.1v.1l3.6 6.2c.4.1.8.3 1.1.6h7.1c.3-.4.8-.7 1.3-.8l3.3-5.8q-.3-.75 0-1.5l-3.5-6.1c-.4-.1-.8-.3-1.1-.6zm6.6-1.7c0 .1-.1.3-.1.4 0 .3 0 .5.1.7H8.8c.1-.4.1-.8 0-1.1zm1.9-1c.8 0 1.4.6 1.4 1.4 0 .7-.6 1.4-1.4 1.4s-1.4-.6-1.4-1.4c.1-.8.7-1.4 1.4-1.4m3.5 8.9c.1-.2.3-.3.5-.4.1-.1.3-.1.5-.2l-3.1-5.4c-.3.3-.6.4-1 .5zm-2.4 8.1c.2.1.3.2.5.3l3-5.2c-.4-.1-.7-.3-1-.6l-3 5.2c.2.1.3.2.5.3m5.6-7.8q-.45-.75-1.2-.9c-.1 0-.3-.1-.4-.1l-3.4-5.9q.3-.3.3-.9c0-1.1-.9-2-1.9-2-.7 0-1.3.4-1.7.9H8.6c-.2-.2-.4-.4-.7-.5-.5-.3-1-.3-1.5-.2q-.75.15-1.2.9c-.3.5-.3 1.2-.1 1.7L1.8 10c-.3 0-.5.1-.8.2q-.75.45-.9 1.2c-.1.5-.1 1 .2 1.5.3.6 1 1 1.6 1l3.4 5.9q-.3.45-.3.9c0 1.1.9 1.9 2 1.9.7 0 1.3-.4 1.6-.9h6.9l.6.6c.3.2.6.2.9.2.7 0 1.4-.4 1.7-1 .3-.5.3-1 .2-1.5 0-.1-.1-.2-.1-.3l3.3-5.7c.3 0 .5-.1.7-.2q.75-.45.9-1.2c.4-.5.3-1 0-1.5" style="fill-rule:evenodd;clip-rule:evenodd"/></svg>